if (_typeface_js && _typeface_js.loadFace) _typeface_js.loadFace({"glyphs":{"ợ":{"x_min":72,"x_max":827,"ha":843,"o":"m 771 378 q 676 86 771 193 q 421 -20 581 -20 q 166 86 261 -20 q 72 378 72 193 q 166 671 72 563 q 421 779 261 779 q 488 773 456 779 q 550 758 521 768 l 613 758 q 699 780 674 758 q 725 850 725 802 q 717 905 725 874 q 702 951 710 936 l 702 958 l 810 958 q 823 902 819 926 q 827 844 827 878 q 787 729 827 772 q 675 672 748 686 q 746 546 722 620 q 771 378 771 473 m 639 378 q 581 597 639 525 q 421 669 524 669 q 260 597 318 669 q 203 378 203 525 q 261 162 203 236 q 421 89 318 89 q 581 161 523 89 q 639 378 639 234 m 486 -259 l 342 -259 l 342 -127 l 486 -127 l 486 -259 "},"Ẩ":{"x_min":17.53125,"x_max":932.015625,"ha":950,"o":"m 932 0 l 788 0 l 689 282 l 252 282 l 153 0 l 17 0 l 385 1010 l 564 1010 l 932 0 m 648 397 l 471 893 l 293 397 l 648 397 m 705 1113 l 597 1113 l 471 1252 l 347 1113 l 242 1113 l 396 1336 l 550 1336 l 705 1113 m 911 1290 q 888 1220 911 1247 q 822 1180 866 1194 l 822 1134 l 747 1134 l 747 1215 q 794 1237 778 1223 q 811 1277 811 1250 q 798 1306 811 1293 q 762 1320 785 1320 q 729 1316 741 1320 q 700 1307 716 1313 l 698 1307 l 698 1378 q 736 1386 711 1382 q 786 1391 760 1391 q 876 1361 841 1391 q 911 1290 911 1332 "},"ǻ":{"x_min":71,"x_max":715,"ha":835,"o":"m 715 0 l 588 0 l 588 80 q 542 48 571 69 q 486 15 513 27 q 412 -10 454 0 q 315 -21 371 -21 q 142 47 213 -21 q 71 221 71 115 q 107 361 71 307 q 213 445 144 414 q 379 487 282 476 q 588 498 476 498 l 588 518 q 572 592 588 563 q 528 638 556 622 q 464 660 501 654 q 384 666 427 666 q 309 659 345 666 q 245 645 273 652 q 184 626 211 636 q 145 612 157 616 l 138 612 l 138 741 q 197 754 161 747 q 265 766 232 760 q 234 814 247 786 q 222 874 222 843 q 275 997 222 948 q 407 1046 329 1046 q 539 997 485 1046 q 593 874 593 948 q 577 808 593 839 q 538 756 562 777 q 668 676 622 733 q 715 514 715 618 l 715 0 m 588 186 l 588 396 q 450 388 529 396 q 324 368 371 381 q 236 319 270 352 q 202 229 202 286 q 241 130 202 163 q 362 98 281 98 q 484 124 429 98 q 588 186 540 150 m 495 874 q 470 936 495 911 q 407 962 446 962 q 344 936 369 962 q 320 874 320 911 q 344 809 320 835 q 407 784 369 784 q 470 810 445 784 q 495 874 495 836 m 595 1250 l 431 1065 l 329 1065 l 431 1250 l 595 1250 "},"Ổ":{"x_min":78,"x_max":1016,"ha":1093,"o":"m 888 893 q 983 727 950 826 q 1016 504 1016 629 q 982 281 1016 379 q 888 116 948 182 q 740 13 826 48 q 546 -21 655 -21 q 353 14 440 -21 q 204 116 265 49 q 110 281 143 183 q 78 504 78 379 q 110 726 78 628 q 205 893 143 824 q 353 995 265 960 q 546 1031 442 1031 q 741 995 655 1031 q 888 893 828 959 m 876 504 q 787 808 876 701 q 547 915 699 915 q 305 808 393 915 q 218 504 218 701 q 307 200 218 305 q 547 95 396 95 q 786 200 697 95 q 876 504 876 305 m 775 1113 l 667 1113 l 542 1252 l 417 1113 l 312 1113 l 466 1335 l 620 1335 l 775 1113 m 981 1289 q 958 1219 981 1246 q 891 1179 936 1193 l 891 1133 l 816 1133 l 816 1215 q 864 1236 848 1223 q 881 1276 881 1249 q 868 1305 881 1292 q 832 1319 855 1319 q 799 1316 811 1319 q 770 1307 786 1313 l 768 1307 l 768 1377 q 806 1385 781 1381 q 856 1390 830 1390 q 946 1360 911 1390 q 981 1289 981 1331 "},"Ừ":{"x_min":121,"x_max":1121,"ha":1051,"o":"m 896 405 q 871 213 896 295 q 792 78 847 132 q 670 2 740 26 q 508 -21 601 -21 q 342 4 413 -21 q 224 78 272 29 q 145 212 169 133 q 121 405 121 291 l 121 1010 l 255 1010 l 255 398 q 266 269 255 316 q 303 182 277 221 q 384 116 333 138 q 508 94 436 94 q 631 116 580 94 q 713 182 682 138 q 750 271 739 221 q 762 395 762 321 l 762 1011 l 908 1011 q 994 1033 969 1011 q 1019 1103 1019 1055 q 1011 1158 1019 1127 q 997 1205 1004 1189 l 997 1211 l 1104 1211 q 1117 1155 1113 1179 q 1121 1097 1121 1131 q 1062 963 1121 1008 q 896 919 1004 919 l 896 405 m 632 1137 l 531 1137 l 345 1390 l 510 1390 l 632 1137 "},"Á":{"x_min":17.625,"x_max":931.796875,"ha":949,"o":"m 931 0 l 788 0 l 689 282 l 252 282 l 153 0 l 17 0 l 385 1010 l 564 1010 l 931 0 m 648 397 l 471 893 l 293 397 l 648 397 m 647 1390 l 462 1137 l 361 1137 l 482 1390 l 647 1390 "},"ĥ":{"x_min":125,"x_max":759,"ha":879,"o":"m 759 0 l 631 0 l 631 431 q 624 529 631 484 q 602 601 618 575 q 553 644 585 630 q 470 658 521 658 q 361 632 418 658 q 252 566 304 606 l 252 0 l 125 0 l 125 1056 l 252 1056 l 252 674 q 375 751 311 723 q 506 779 439 779 q 694 705 629 779 q 759 491 759 631 l 759 0 m 696 1133 l 588 1133 l 462 1306 l 337 1133 l 232 1133 l 387 1390 l 541 1390 l 696 1133 "},"Κ":{"x_min":139,"x_max":947.109375,"ha":962,"o":"m 947 0 l 772 0 l 373 449 l 273 342 l 273 0 l 139 0 l 139 1010 l 273 1010 l 273 482 l 763 1010 l 926 1010 l 475 535 l 947 0 "},"»":{"x_min":118,"x_max":783,"ha":896,"o":"m 783 412 l 410 109 l 410 242 l 661 442 l 410 641 l 410 774 l 783 472 l 783 412 m 476 413 l 118 129 l 118 257 l 360 442 l 118 627 l 118 755 l 476 471 l 476 413 "},"∆":{"x_min":33.90625,"x_max":975.203125,"ha":1010,"o":"m 975 0 l 33 0 l 415 1010 l 594 1010 l 975 0 m 794 114 l 501 892 l 208 114 l 794 114 "},"ỹ":{"x_min":41.671875,"x_max":781.09375,"ha":822,"o":"m 781 758 l 338 -279 l 202 -279 l 343 36 l 41 758 l 179 758 l 412 196 l 647 758 l 781 758 m 697 1099 q 651 943 697 995 q 529 891 606 891 q 460 904 492 891 q 401 942 429 917 q 347 986 369 971 q 298 1001 325 1001 q 244 970 262 1001 q 227 888 227 940 l 140 888 q 188 1042 140 990 q 307 1095 237 1095 q 373 1081 341 1095 q 434 1044 405 1068 q 490 1002 466 1016 q 538 989 515 989 q 592 1020 573 989 q 612 1099 612 1051 l 697 1099 "},"ў":{"x_min":41.6875,"x_max":781.21875,"ha":823,"o":"m 781 758 l 339 -280 l 202 -280 l 343 36 l 41 758 l 180 758 l 412 195 l 647 758 l 781 758 m 651 1056 q 590 899 651 955 q 414 843 530 843 q 238 899 298 843 q 178 1056 178 955 l 293 1056 q 323 952 293 984 q 414 921 354 921 q 505 952 474 921 q 536 1056 536 983 l 651 1056 "},"ţ":{"x_min":42,"x_max":519,"ha":547,"o":"m 519 6 q 501 2 510 4 q 480 -1 491 0 q 483 -28 482 -14 q 485 -60 485 -43 q 423 -228 485 -170 q 262 -287 361 -287 q 197 -282 237 -287 q 128 -269 158 -277 l 128 -161 l 133 -161 q 180 -176 151 -167 q 244 -185 210 -185 q 347 -158 314 -185 q 381 -72 381 -132 q 381 -40 381 -56 q 378 -14 381 -24 l 365 -14 q 188 48 249 -14 q 128 248 128 110 l 128 651 l 42 651 l 42 758 l 128 758 l 128 975 l 256 975 l 256 758 l 519 758 l 519 651 l 258 651 l 258 305 q 258 212 258 245 q 274 149 258 178 q 316 109 289 122 q 396 97 342 97 q 462 106 428 97 q 512 122 497 115 l 519 122 l 519 6 "},"«":{"x_min":113,"x_max":778,"ha":896,"o":"m 778 129 l 420 413 l 420 471 l 778 755 l 778 627 l 535 442 l 778 257 l 778 129 m 486 109 l 113 412 l 113 472 l 486 774 l 486 641 l 234 442 l 486 242 l 486 109 "},"ử":{"x_min":120,"x_max":980,"ha":916,"o":"m 754 0 l 626 0 l 626 83 q 502 5 561 32 q 372 -21 443 -21 q 186 51 252 -21 q 120 266 120 124 l 120 758 l 248 758 l 248 326 q 253 227 248 268 q 276 157 258 186 q 323 113 294 127 q 408 100 353 100 q 516 125 458 100 q 626 191 575 151 l 626 758 l 767 758 q 853 780 828 758 q 878 850 878 802 q 870 905 878 874 q 855 952 863 936 l 855 958 l 963 958 q 976 902 972 926 q 980 844 980 878 q 921 710 980 755 q 755 666 863 666 l 754 666 l 754 0 m 567 1036 q 544 966 567 993 q 478 926 522 940 l 478 880 l 403 880 l 403 962 q 450 983 434 970 q 467 1023 467 996 q 454 1052 467 1039 q 418 1066 441 1066 q 385 1063 397 1066 q 356 1054 372 1060 l 354 1054 l 354 1124 q 392 1132 367 1128 q 442 1137 416 1137 q 532 1107 497 1137 q 567 1036 567 1078 "},"í":{"x_min":108.6875,"x_max":395.375,"ha":382,"o":"m 255 0 l 127 0 l 127 758 l 255 758 l 255 0 m 395 1137 l 210 884 l 108 884 l 230 1137 l 395 1137 "},"◦":{"x_min":76,"x_max":417,"ha":493,"o":"m 246 630 q 367 580 317 630 q 417 459 417 530 q 367 338 417 388 q 246 289 317 289 q 125 338 175 289 q 76 459 76 388 q 125 580 76 530 q 246 630 175 630 m 246 578 q 162 543 197 578 q 128 459 128 508 q 162 375 128 410 q 246 341 197 341 q 330 375 295 341 q 365 459 365 410 q 330 543 365 508 q 246 578 295 578 "},"ң":{"x_min":125,"x_max":850,"ha":885,"o":"m 850 -182 l 731 -182 l 731 0 l 632 0 l 632 341 l 252 341 l 252 0 l 125 0 l 125 758 l 252 758 l 252 451 l 632 451 l 632 758 l 759 758 l 759 110 l 850 110 l 850 -182 "},"ņ":{"x_min":125,"x_max":759,"ha":879,"o":"m 759 0 l 631 0 l 631 432 q 624 530 631 484 q 602 601 618 575 q 553 644 585 630 q 470 658 521 658 q 361 632 418 658 q 252 566 304 606 l 252 0 l 125 0 l 125 758 l 252 758 l 252 674 q 375 751 311 723 q 506 779 439 779 q 694 705 629 779 q 759 491 759 631 l 759 0 m 517 -60 q 454 -228 517 -170 q 293 -287 392 -287 q 229 -282 268 -287 q 159 -269 190 -277 l 159 -161 l 165 -161 q 212 -176 183 -167 q 276 -185 242 -185 q 379 -158 346 -185 q 412 -72 412 -132 q 412 -28 412 -52 q 407 14 412 -3 l 511 14 q 514 -16 512 1 q 517 -60 517 -34 "},"µ":{"x_min":129,"x_max":763,"ha":892,"o":"m 763 0 l 641 0 l 635 79 q 551 10 594 35 q 445 -14 507 -14 q 343 9 387 -14 q 256 76 300 33 l 256 -280 l 129 -280 l 129 758 l 256 758 l 256 189 q 330 134 277 162 q 444 107 383 107 q 553 129 508 107 q 635 193 598 152 l 635 758 l 763 758 l 763 0 "},"ỳ":{"x_min":41.375,"x_max":780.578125,"ha":822,"o":"m 780 758 l 338 -280 l 202 -280 l 343 36 l 41 758 l 179 758 l 412 195 l 646 758 l 780 758 m 516 883 l 415 883 l 229 1137 l 394 1137 l 516 883 "},"қ":{"x_min":131,"x_max":811,"ha":822,"o":"m 811 -182 l 692 -182 l 692 0 l 641 0 l 327 348 l 258 348 l 258 0 l 131 0 l 131 758 l 258 758 l 258 431 q 425 526 374 431 q 462 605 428 531 q 555 722 500 688 q 702 757 610 757 l 760 757 l 760 648 l 704 648 q 616 622 648 648 q 565 545 588 599 q 444 402 520 439 l 708 110 l 811 110 l 811 -182 "},"Ι":{"x_min":93,"x_max":492,"ha":585,"o":"m 492 0 l 93 0 l 93 103 l 225 103 l 225 907 l 93 907 l 93 1010 l 492 1010 l 492 907 l 359 907 l 359 103 l 492 103 l 492 0 "},"Ύ":{"x_min":0.296875,"x_max":1042.359375,"ha":1046,"o":"m 1042 1011 l 687 443 l 687 0 l 553 0 l 553 428 l 196 1011 l 344 1011 l 620 558 l 899 1011 l 1042 1011 m 165 1011 l 131 750 l 33 750 l 0 1011 l 165 1011 "},"ѕ":{"x_min":74.15625,"x_max":666,"ha":723,"o":"m 666 218 q 580 48 666 114 q 346 -18 494 -18 q 191 2 261 -18 q 74 45 121 22 l 74 189 l 80 189 q 214 116 140 143 q 356 90 288 90 q 488 117 440 90 q 536 202 536 144 q 510 270 536 247 q 410 309 484 293 q 339 323 383 315 q 260 341 296 332 q 118 419 160 368 q 77 545 77 470 q 96 633 77 592 q 154 707 115 675 q 251 758 192 739 q 382 777 310 777 q 520 760 450 777 q 635 719 589 743 l 635 583 l 628 583 q 510 644 580 619 q 373 669 440 669 q 255 642 303 669 q 207 562 207 615 q 236 491 207 515 q 328 452 264 467 q 407 436 364 444 q 480 421 451 428 q 617 351 569 401 q 666 218 666 301 "},"Ш":{"x_min":136,"x_max":1296,"ha":1432,"o":"m 1296 0 l 136 0 l 136 1010 l 270 1010 l 270 117 l 649 117 l 649 1010 l 783 1010 l 783 117 l 1162 117 l 1162 1010 l 1296 1010 l 1296 0 "},"M":{"x_min":136,"x_max":1035,"ha":1171,"o":"m 1035 0 l 901 0 l 901 870 l 620 278 l 539 278 l 261 870 l 261 0 l 136 0 l 136 1010 l 318 1010 l 588 447 l 848 1010 l 1035 1010 l 1035 0 "},"Ψ":{"x_min":121,"x_max":1087,"ha":1208,"o":"m 1087 615 q 1059 435 1087 508 q 979 316 1032 362 q 849 245 925 269 q 671 222 773 222 l 671 0 l 537 0 l 537 222 q 356 246 432 222 q 228 316 279 271 q 148 436 175 363 q 121 615 121 508 l 121 1010 l 255 1010 l 255 601 q 275 478 255 527 q 330 400 295 430 q 418 353 366 369 q 537 337 470 337 l 537 1010 l 671 1010 l 671 337 q 789 352 736 337 q 878 399 842 367 q 934 479 916 433 q 953 601 953 524 l 953 1010 l 1087 1010 l 1087 615 "},"ũ":{"x_min":120,"x_max":754,"ha":879,"o":"m 754 0 l 626 0 l 626 83 q 502 6 561 33 q 372 -21 443 -21 q 186 51 252 -21 q 120 266 120 124 l 120 758 l 248 758 l 248 326 q 253 227 248 268 q 276 157 258 186 q 323 113 294 127 q 408 100 353 100 q 516 125 458 100 q 626 191 575 151 l 626 758 l 754 758 l 754 0 m 724 1098 q 678 943 724 995 q 557 891 633 891 q 488 904 520 891 q 429 942 457 917 q 375 986 397 971 q 326 1001 352 1001 q 272 970 290 1001 q 255 888 255 940 l 168 888 q 216 1042 168 990 q 335 1095 265 1095 q 401 1081 369 1095 q 461 1044 433 1068 q 518 1002 493 1016 q 565 989 543 989 q 619 1020 600 989 q 639 1098 639 1051 l 724 1098 "},"ŭ":{"x_min":120,"x_max":754,"ha":879,"o":"m 754 0 l 626 0 l 626 83 q 502 6 561 33 q 372 -21 443 -21 q 186 51 252 -21 q 120 266 120 124 l 120 758 l 248 758 l 248 326 q 253 227 248 268 q 276 157 258 186 q 323 113 294 127 q 408 100 353 100 q 516 125 458 100 q 626 191 575 151 l 626 758 l 754 758 l 754 0 m 693 1137 q 625 950 693 1023 q 441 878 557 878 q 257 950 325 878 q 190 1136 190 1023 l 300 1136 q 344 1006 308 1047 q 442 966 380 966 q 538 1006 502 966 q 584 1137 575 1047 l 693 1137 "},"―":{"x_min":138,"x_max":1252,"ha":1390,"o":"m 1252 388 l 138 388 l 138 497 l 1252 497 l 1252 388 "},"Ə":{"x_min":78,"x_max":971,"ha":1048,"o":"m 971 505 q 864 135 971 274 q 524 -21 746 -21 q 198 116 317 -21 q 94 348 120 207 q 78 605 78 436 l 824 605 q 730 818 808 734 q 510 912 643 912 q 195 817 318 912 l 184 817 l 184 966 q 509 1029 332 1029 q 859 881 739 1029 q 971 505 971 743 m 829 484 l 220 484 q 288 217 220 319 q 524 95 369 95 q 761 217 681 95 q 829 484 829 319 "},"{":{"x_min":117,"x_max":754,"ha":881,"o":"m 754 -266 l 652 -266 q 455 -198 531 -266 q 380 -3 380 -130 l 380 97 q 323 277 380 212 q 151 342 267 342 l 117 342 l 117 448 l 151 448 q 323 512 267 448 q 380 692 380 577 l 380 793 q 455 988 380 920 q 652 1056 531 1056 l 754 1056 l 754 962 l 676 962 q 542 919 584 962 q 501 781 501 876 l 501 662 q 448 504 501 568 q 304 403 396 440 l 304 386 q 448 285 396 349 q 501 127 501 221 l 501 8 q 542 -129 501 -86 q 676 -172 584 -172 l 754 -172 l 754 -266 "},"¼":{"x_min":116.265625,"x_max":1260,"ha":1390,"o":"m 370 383 l 258 383 l 258 846 l 116 846 l 116 925 q 228 939 185 925 q 277 1013 270 954 l 370 1013 l 370 383 m 956 1009 l 427 0 l 315 0 l 844 1009 l 956 1009 m 1260 149 l 1149 149 l 1149 0 l 1047 0 l 1047 149 l 731 149 l 731 274 l 1047 641 l 1149 641 l 1149 239 l 1260 239 l 1260 149 m 1050 239 l 1050 510 l 810 239 l 1050 239 "},"ι":{"x_min":127,"x_max":255,"ha":382,"o":"m 255 0 l 127 0 l 127 758 l 255 758 l 255 0 "},"Ĳ":{"x_min":93,"x_max":1084,"ha":1209,"o":"m 492 0 l 93 0 l 93 103 l 225 103 l 225 908 l 93 908 l 93 1011 l 492 1011 l 492 908 l 359 908 l 359 103 l 492 103 l 492 0 m 1084 262 q 1002 57 1084 129 q 785 -14 921 -14 q 698 -8 753 -14 q 608 5 644 -2 l 608 131 l 615 131 q 684 111 643 121 q 767 101 724 101 q 866 115 829 101 q 921 156 903 129 q 944 222 939 183 q 950 313 950 262 l 950 904 l 736 904 l 736 1011 l 1084 1011 l 1084 262 "},"Ê":{"x_min":136,"x_max":801.015625,"ha":878,"o":"m 801 0 l 136 0 l 136 1010 l 801 1010 l 801 891 l 270 891 l 270 614 l 801 614 l 801 495 l 270 495 l 270 119 l 801 119 l 801 0 m 699 1133 l 591 1133 l 466 1306 l 341 1133 l 236 1133 l 390 1390 l 544 1390 l 699 1133 "},"Ά":{"x_min":4.75,"x_max":931.796875,"ha":949,"o":"m 931 0 l 788 0 l 689 282 l 252 282 l 153 0 l 17 0 l 385 1010 l 564 1010 l 931 0 m 648 397 l 471 893 l 293 397 l 648 397 m 169 1011 l 136 750 l 37 750 l 4 1011 l 169 1011 "},")":{"x_min":100,"x_max":508,"ha":631,"o":"m 508 387 q 441 20 508 183 q 255 -280 375 -142 l 100 -280 l 100 -273 q 204 -158 152 -226 q 297 -7 257 -91 q 364 175 339 78 q 389 387 389 271 q 363 599 389 498 q 297 782 338 699 q 204 933 254 869 q 100 1048 154 998 l 100 1055 l 255 1055 q 441 754 375 917 q 508 387 508 591 "},"ε":{"x_min":74,"x_max":682.109375,"ha":712,"o":"m 682 43 q 539 -3 609 10 q 391 -18 469 -18 q 282 -7 338 -18 q 179 30 227 3 q 103 100 132 57 q 74 207 74 143 q 112 320 74 272 q 233 395 150 369 l 233 400 q 134 461 170 416 q 98 568 98 506 q 130 669 98 629 q 206 732 162 708 q 304 765 249 754 q 413 776 359 776 q 535 764 479 776 q 651 734 590 753 l 651 594 l 643 594 q 532 647 598 628 q 398 667 466 667 q 341 663 367 667 q 286 645 315 659 q 245 612 262 635 q 228 559 228 589 q 247 494 228 517 q 298 460 266 470 q 364 451 329 451 q 435 451 399 451 l 511 451 l 511 338 l 403 338 q 327 334 361 338 q 265 320 293 331 q 220 283 237 308 q 204 218 204 258 q 221 157 204 182 q 267 118 239 132 q 326 98 292 105 q 398 91 360 91 q 546 116 468 91 q 673 183 625 140 l 682 183 l 682 43 "},"э":{"x_min":56,"x_max":687,"ha":759,"o":"m 583 681 q 659 562 632 633 q 687 393 687 491 q 581 94 687 205 q 300 -17 476 -17 q 166 0 230 -17 q 56 33 101 15 l 56 174 l 64 174 q 173 116 105 141 q 315 92 240 92 q 489 157 422 92 q 557 349 557 222 l 178 349 l 178 451 l 560 451 q 482 612 546 558 q 321 666 417 666 q 198 645 259 666 q 78 579 137 624 l 70 579 l 70 718 q 178 755 112 735 q 314 775 244 775 q 465 751 398 775 q 583 681 533 728 "},"ш":{"x_min":125,"x_max":1091,"ha":1216,"o":"m 1091 0 l 125 0 l 125 757 l 252 757 l 252 109 l 544 109 l 544 757 l 672 757 l 672 109 l 963 109 l 963 757 l 1091 757 l 1091 0 "},"Я":{"x_min":29.46875,"x_max":844,"ha":980,"o":"m 844 0 l 710 0 l 710 402 l 492 402 l 190 0 l 29 0 l 353 422 q 195 529 251 456 q 140 723 140 601 q 172 856 140 800 q 257 949 204 912 q 369 997 305 983 q 512 1011 434 1011 l 844 1011 l 844 0 m 710 514 l 710 896 l 505 896 q 411 888 447 896 q 347 861 376 881 q 298 802 316 840 q 281 718 281 764 q 293 628 281 664 q 333 564 306 592 q 408 524 364 534 q 510 514 452 514 l 710 514 "},"a":{"x_min":71,"x_max":715,"ha":835,"o":"m 715 0 l 588 0 l 588 80 q 542 48 571 69 q 486 15 513 27 q 412 -10 454 0 q 315 -21 371 -21 q 142 47 213 -21 q 71 221 71 115 q 107 361 71 307 q 213 445 144 414 q 379 487 282 476 q 588 498 476 498 l 588 517 q 572 590 588 561 q 528 636 557 619 q 463 657 501 652 q 384 663 425 663 q 272 649 334 663 q 144 612 210 636 l 138 612 l 138 741 q 245 763 175 751 q 385 776 316 776 q 524 762 465 776 q 627 717 583 749 q 692 636 670 686 q 715 514 715 587 l 715 0 m 588 186 l 588 396 q 450 388 529 396 q 325 368 371 381 q 236 319 270 352 q 202 229 202 286 q 241 130 202 163 q 362 98 281 98 q 484 124 429 98 q 588 186 540 150 "},"Ę":{"x_min":136,"x_max":833.625,"ha":878,"o":"m 833 -265 q 772 -278 798 -274 q 718 -283 747 -283 q 567 -229 624 -283 q 510 -78 510 -175 q 513 -36 510 -54 q 521 0 517 -19 l 136 0 l 136 1010 l 801 1010 l 801 891 l 270 891 l 270 614 l 801 614 l 801 495 l 270 495 l 270 119 l 801 119 l 801 0 l 628 0 q 622 -36 624 -18 q 620 -72 620 -54 q 648 -154 620 -128 q 737 -181 676 -181 q 789 -171 761 -181 q 828 -157 816 -162 l 833 -157 l 833 -265 "},"Z":{"x_min":85,"x_max":873,"ha":951,"o":"m 873 0 l 85 0 l 85 124 l 704 891 l 108 891 l 108 1010 l 858 1010 l 858 888 l 232 119 l 873 119 l 873 0 "},"⁸":{"x_min":134,"x_max":620,"ha":754,"o":"m 620 557 q 551 420 620 475 q 377 366 482 366 q 198 419 263 366 q 134 555 134 473 q 165 649 134 608 q 258 715 197 690 l 258 718 q 178 780 202 746 q 155 862 155 814 q 217 982 155 934 q 378 1030 280 1030 q 540 984 479 1030 q 602 867 602 938 q 574 782 602 825 q 492 716 547 740 l 492 713 q 588 651 557 687 q 620 557 620 614 m 491 856 q 461 915 491 891 q 378 940 432 940 q 299 918 331 940 q 268 860 268 897 q 284 814 268 834 q 331 779 300 793 q 371 762 346 773 q 426 744 395 751 q 478 796 465 769 q 491 856 491 823 m 507 557 q 488 611 507 591 q 425 652 469 631 q 379 668 409 658 q 321 688 350 677 q 263 634 282 666 q 244 570 244 603 q 283 488 244 520 q 378 456 323 456 q 470 482 433 456 q 507 557 507 508 "},"k":{"x_min":131,"x_max":812.75,"ha":822,"o":"m 812 0 l 644 0 l 340 331 l 258 253 l 258 0 l 131 0 l 131 1056 l 258 1056 l 258 378 l 626 758 l 786 758 l 435 407 l 812 0 "},"₯":{"x_min":28,"x_max":1371,"ha":1389,"o":"m 1371 194 q 1311 48 1371 102 q 1161 -3 1255 -3 q 1030 49 1088 -3 l 979 -189 q 946 -275 971 -228 l 811 -275 q 851 -184 826 -250 l 938 186 q 1018 325 958 271 q 1168 381 1082 381 q 1311 332 1256 381 q 1371 194 1371 280 m 991 605 q 899 200 991 363 q 565 0 786 0 q 417 47 488 0 q 329 120 373 84 q 158 0 267 0 q 28 124 28 0 q 65 213 28 177 q 156 249 103 249 q 252 223 210 249 q 292 435 273 340 q 372 766 339 665 q 474 959 411 890 q 184 899 280 959 l 171 940 q 261 975 213 961 q 523 1011 379 1011 q 718 1165 571 1063 l 752 1146 q 635 999 707 1101 q 991 605 991 999 m 1270 185 q 1243 276 1270 236 q 1163 321 1212 321 q 1079 276 1112 321 q 1049 184 1049 236 q 1081 93 1049 135 q 1163 49 1115 49 q 1242 94 1210 49 q 1270 185 1270 135 m 856 594 q 807 853 856 766 q 603 960 748 960 q 516 767 562 901 q 441 466 489 685 q 357 168 398 264 q 440 102 384 145 q 551 64 491 64 q 791 254 708 64 q 856 594 856 402 m 244 167 q 156 197 200 197 q 104 176 126 197 q 82 124 82 155 q 158 57 82 57 q 228 103 207 57 q 244 167 233 115 "},"Ù":{"x_min":121,"x_max":896,"ha":1017,"o":"m 896 405 q 871 214 896 295 q 792 78 847 132 q 670 2 740 26 q 508 -21 601 -21 q 342 4 413 -21 q 224 78 272 29 q 145 212 169 133 q 121 405 121 291 l 121 1010 l 255 1010 l 255 398 q 266 269 255 316 q 303 182 277 221 q 384 116 333 138 q 508 94 436 94 q 631 116 580 94 q 713 182 682 138 q 750 271 739 221 q 762 395 762 321 l 762 1010 l 896 1010 l 896 405 m 632 1137 l 531 1137 l 345 1390 l 510 1390 l 632 1137 "},"Ů":{"x_min":121,"x_max":896,"ha":1017,"o":"m 896 405 q 871 214 896 295 q 792 78 847 132 q 670 2 740 26 q 508 -21 601 -21 q 342 4 413 -21 q 224 78 272 29 q 145 212 169 133 q 121 405 121 291 l 121 1010 l 255 1010 l 255 398 q 266 269 255 316 q 303 182 277 221 q 384 116 333 138 q 508 94 436 94 q 631 116 580 94 q 713 182 682 138 q 750 271 739 221 q 762 395 762 321 l 762 1010 l 896 1010 l 896 405 m 746 1160 q 676 996 746 1063 q 509 929 607 929 q 341 995 411 929 q 272 1160 272 1062 q 341 1323 272 1257 q 509 1390 410 1390 q 677 1323 608 1390 q 746 1160 746 1257 m 648 1160 q 608 1258 648 1218 q 509 1299 568 1299 q 409 1259 449 1299 q 370 1160 370 1219 q 410 1061 370 1101 q 509 1021 450 1021 q 608 1061 568 1021 q 648 1160 648 1101 "},"¢":{"x_min":108,"x_max":759.75,"ha":883,"o":"m 759 50 q 650 12 711 29 q 519 -3 589 -3 l 519 -245 l 439 -245 l 439 -1 q 196 110 285 12 q 108 377 108 208 q 198 643 108 541 q 439 759 289 744 l 439 1001 l 519 1001 l 519 761 q 652 745 589 761 q 759 709 715 730 l 759 572 l 752 572 q 655 630 714 601 q 519 660 596 660 l 519 94 q 659 130 600 101 q 752 187 717 159 l 759 187 l 759 50 m 439 96 l 439 662 q 292 577 347 648 q 238 377 238 506 q 289 183 238 255 q 439 96 340 112 "},"В":{"x_min":136,"x_max":898,"ha":953,"o":"m 898 310 q 869 177 898 235 q 792 82 841 120 q 667 19 735 38 q 494 0 599 0 l 136 0 l 136 1011 l 435 1011 q 600 1002 545 1011 q 705 968 655 994 q 786 893 761 939 q 812 784 812 847 q 775 661 812 712 q 676 580 738 610 l 676 574 q 838 485 779 553 q 898 310 898 416 m 672 766 q 659 828 672 802 q 620 868 647 853 q 542 891 588 887 q 430 896 497 896 l 270 896 l 270 604 l 443 604 q 544 610 506 604 q 613 637 581 616 q 658 689 645 657 q 672 766 672 722 m 758 305 q 739 402 758 366 q 673 463 721 438 q 594 485 640 480 q 481 491 547 491 l 270 491 l 270 115 l 447 115 q 592 124 535 115 q 684 157 648 133 q 740 218 722 184 q 758 305 758 252 "},"І":{"x_min":93,"x_max":492,"ha":585,"o":"m 492 0 l 93 0 l 93 103 l 225 103 l 225 907 l 93 907 l 93 1010 l 492 1010 l 492 907 l 359 907 l 359 103 l 492 103 l 492 0 "},"ē":{"x_min":72,"x_max":760,"ha":828,"o":"m 760 365 l 202 365 q 223 243 202 295 q 280 158 244 191 q 364 109 315 125 q 471 93 412 93 q 626 124 548 93 q 738 185 704 155 l 745 185 l 745 45 q 613 0 680 18 q 472 -18 546 -18 q 177 84 283 -18 q 72 374 72 186 q 173 669 72 560 q 440 779 274 779 q 676 689 593 779 q 760 434 760 599 l 760 365 m 635 463 q 585 618 635 563 q 433 674 535 674 q 270 613 331 674 q 202 463 210 552 l 635 463 m 687 905 l 184 905 l 184 1010 l 687 1010 l 687 905 "},"Ẹ":{"x_min":136,"x_max":801.015625,"ha":878,"o":"m 801 0 l 136 0 l 136 1010 l 801 1010 l 801 891 l 270 891 l 270 614 l 801 614 l 801 495 l 270 495 l 270 119 l 801 119 l 801 0 m 546 -259 l 402 -259 l 402 -127 l 546 -127 l 546 -259 "},"β":{"x_min":125,"x_max":789.5625,"ha":861,"o":"m 789 301 q 698 74 789 164 q 467 -15 607 -15 q 354 0 414 -15 q 252 43 294 14 l 252 -280 l 125 -280 l 125 731 q 210 969 125 883 q 448 1056 296 1056 q 559 1041 509 1056 q 649 995 610 1026 q 711 919 688 966 q 735 811 735 872 q 687 660 735 725 q 554 571 640 596 l 554 560 q 725 474 662 542 q 789 301 789 407 m 658 304 q 634 402 658 365 q 571 461 611 440 q 482 490 531 483 q 383 498 432 498 l 359 498 l 359 607 l 383 607 q 472 616 428 607 q 542 647 516 626 q 589 703 573 670 q 605 794 605 736 q 558 909 605 870 q 437 949 511 949 q 351 931 387 949 q 294 883 316 913 q 262 813 272 853 q 252 731 252 773 l 252 146 q 347 110 296 121 q 447 100 398 100 q 603 153 548 100 q 658 304 658 206 "},"≠":{"x_min":166,"x_max":970,"ha":1136,"o":"m 970 246 l 557 246 l 487 18 l 383 18 l 454 246 l 166 246 l 166 352 l 487 352 l 544 534 l 166 534 l 166 640 l 576 640 l 648 867 l 751 867 l 680 640 l 970 640 l 970 534 l 647 534 l 591 352 l 970 352 l 970 246 "},"‼":{"x_min":204,"x_max":663,"ha":867,"o":"m 341 1010 l 341 278 l 207 278 l 207 1010 l 341 1010 m 342 0 l 204 0 l 204 143 l 342 143 l 342 0 m 661 1010 l 661 278 l 527 278 l 527 1010 l 661 1010 m 663 0 l 525 0 l 525 143 l 663 143 l 663 0 "},"Ғ":{"x_min":9,"x_max":787.125,"ha":786,"o":"m 787 891 l 269 891 l 269 599 l 520 599 l 520 502 l 269 502 l 269 0 l 135 0 l 135 502 l 9 502 l 9 599 l 135 599 l 135 1010 l 787 1010 l 787 891 "},"¥":{"x_min":73.4375,"x_max":807.546875,"ha":883,"o":"m 807 1010 l 504 438 l 504 407 l 756 407 l 756 313 l 506 313 l 506 220 l 756 220 l 756 126 l 506 126 l 506 0 l 378 0 l 378 126 l 127 126 l 127 220 l 378 220 l 378 313 l 127 313 l 127 407 l 379 407 l 379 438 l 73 1010 l 217 1010 l 442 563 l 670 1010 l 807 1010 "},"Ĥ":{"x_min":136,"x_max":908,"ha":1044,"o":"m 908 0 l 774 0 l 774 495 l 270 495 l 270 0 l 136 0 l 136 1010 l 270 1010 l 270 614 l 774 614 l 774 1010 l 908 1010 l 908 0 m 753 1133 l 645 1133 l 520 1306 l 395 1133 l 290 1133 l 445 1390 l 598 1390 l 753 1133 "},"U":{"x_min":121,"x_max":896,"ha":1017,"o":"m 896 405 q 871 214 896 295 q 792 78 847 132 q 670 2 740 26 q 508 -21 601 -21 q 342 4 413 -21 q 224 78 272 29 q 145 212 169 133 q 121 405 121 291 l 121 1010 l 255 1010 l 255 398 q 266 269 255 316 q 303 182 277 221 q 384 116 333 138 q 508 94 436 94 q 631 116 580 94 q 713 182 682 138 q 750 271 739 221 q 762 395 762 321 l 762 1010 l 896 1010 l 896 405 "},"Ñ":{"x_min":136,"x_max":906,"ha":1039,"o":"m 906 0 l 740 0 l 261 903 l 261 0 l 136 0 l 136 1010 l 343 1010 l 781 185 l 781 1010 l 906 1010 l 906 0 m 816 1351 q 770 1196 816 1248 q 648 1144 725 1144 q 580 1157 611 1144 q 520 1195 548 1170 q 466 1239 488 1224 q 417 1254 444 1254 q 363 1223 381 1254 q 346 1141 346 1193 l 259 1141 q 307 1295 259 1243 q 426 1348 356 1348 q 492 1334 460 1348 q 553 1297 524 1321 q 609 1255 585 1269 q 657 1242 634 1242 q 711 1273 692 1242 q 731 1351 731 1304 l 816 1351 "},"F":{"x_min":136,"x_max":780.671875,"ha":798,"o":"m 780 892 l 270 892 l 270 606 l 708 606 l 708 487 l 270 487 l 270 1 l 136 1 l 136 1011 l 780 1011 l 780 892 "},"ả":{"x_min":71,"x_max":715,"ha":835,"o":"m 715 0 l 588 0 l 588 80 q 542 48 571 69 q 486 15 513 27 q 412 -10 454 0 q 315 -21 371 -21 q 142 47 213 -21 q 71 221 71 115 q 107 361 71 307 q 213 445 144 414 q 379 487 282 476 q 588 498 476 498 l 588 517 q 572 590 588 561 q 528 636 557 619 q 463 657 501 652 q 384 663 425 663 q 272 649 334 663 q 144 612 210 636 l 138 612 l 138 741 q 245 763 175 751 q 385 776 316 776 q 524 762 465 776 q 627 717 583 749 q 692 636 670 686 q 715 514 715 587 l 715 0 m 588 186 l 588 396 q 450 388 529 396 q 325 368 371 381 q 236 319 270 352 q 202 229 202 286 q 241 130 202 163 q 362 98 281 98 q 484 124 429 98 q 588 186 540 150 m 532 1036 q 509 966 532 993 q 442 926 487 940 l 442 880 l 367 880 l 367 962 q 415 983 399 970 q 432 1023 432 996 q 419 1052 432 1039 q 383 1066 406 1066 q 350 1063 362 1066 q 321 1054 337 1060 l 319 1054 l 319 1124 q 357 1132 332 1128 q 407 1137 381 1137 q 497 1107 462 1137 q 532 1036 532 1078 "},"Ќ":{"x_min":139,"x_max":947.109375,"ha":962,"o":"m 947 0 l 774 0 l 364 461 l 273 461 l 273 0 l 139 0 l 139 1010 l 273 1010 l 273 557 q 338 563 307 557 q 395 586 368 569 q 449 631 422 602 q 496 702 475 660 q 516 748 504 720 q 540 806 528 776 q 650 964 587 919 q 835 1010 713 1010 l 888 1010 l 888 890 l 832 890 q 759 881 785 890 q 711 853 732 873 q 677 805 692 835 q 647 736 662 776 q 575 604 612 646 q 478 531 539 562 l 947 0 m 693 1377 l 508 1123 l 407 1123 l 528 1377 l 693 1377 "},"∕":{"x_min":-69.171875,"x_max":571.703125,"ha":502,"o":"m 571 1010 l 42 0 l -69 0 l 459 1010 l 571 1010 "},"ờ":{"x_min":72,"x_max":827,"ha":843,"o":"m 771 378 q 676 86 771 193 q 421 -21 581 -21 q 166 86 261 -21 q 72 378 72 193 q 166 671 72 563 q 421 779 261 779 q 488 773 456 779 q 550 758 521 768 l 613 758 q 699 780 674 758 q 725 850 725 802 q 717 905 725 874 q 702 951 710 936 l 702 958 l 810 958 q 823 902 819 926 q 827 844 827 878 q 787 729 827 772 q 675 672 748 686 q 746 546 722 620 q 771 378 771 472 m 639 378 q 581 597 639 525 q 421 669 524 669 q 260 597 318 669 q 203 378 203 525 q 261 162 203 236 q 421 88 318 88 q 581 161 523 88 q 639 378 639 234 m 496 884 l 395 884 l 210 1137 l 375 1137 l 496 884 "},"å":{"x_min":71,"x_max":715,"ha":835,"o":"m 715 0 l 588 0 l 588 80 q 542 48 571 69 q 486 15 513 27 q 412 -10 454 0 q 315 -21 371 -21 q 142 47 213 -21 q 71 221 71 115 q 107 361 71 307 q 213 445 144 414 q 379 487 282 476 q 588 498 476 498 l 588 517 q 572 590 588 561 q 528 636 557 619 q 463 657 501 652 q 384 663 425 663 q 272 649 334 663 q 144 612 210 636 l 138 612 l 138 741 q 245 763 175 751 q 385 776 316 776 q 524 762 465 776 q 627 717 583 749 q 692 636 670 686 q 715 514 715 587 l 715 0 m 588 186 l 588 396 q 450 388 529 396 q 325 368 371 381 q 236 319 270 352 q 202 229 202 286 q 241 130 202 163 q 362 98 281 98 q 484 124 429 98 q 588 186 540 150 m 649 1106 q 579 942 649 1009 q 411 875 510 875 q 243 941 313 875 q 174 1106 174 1008 q 243 1269 174 1203 q 411 1336 312 1336 q 580 1269 511 1336 q 649 1106 649 1203 m 551 1106 q 511 1204 551 1164 q 411 1245 471 1245 q 311 1205 351 1245 q 272 1106 272 1165 q 312 1007 272 1047 q 411 967 352 967 q 511 1007 471 967 q 551 1106 551 1047 "},"Ϋ":{"x_min":4.296875,"x_max":850.625,"ha":855,"o":"m 850 1010 l 495 442 l 495 0 l 361 0 l 361 428 l 4 1010 l 152 1010 l 428 558 l 707 1010 l 850 1010 m 637 1138 l 502 1138 l 502 1270 l 637 1270 l 637 1138 m 357 1138 l 222 1138 l 222 1270 l 357 1270 l 357 1138 "},"0":{"x_min":93,"x_max":792,"ha":884,"o":"m 792 505 q 706 106 792 233 q 442 -21 621 -21 q 176 107 260 -21 q 93 504 93 236 q 177 902 93 773 q 442 1031 262 1031 q 708 900 624 1031 q 792 505 792 769 m 613 197 q 645 326 637 252 q 654 505 654 401 q 645 684 654 608 q 612 813 637 760 q 547 892 588 866 q 442 919 506 919 q 337 892 378 919 q 271 812 295 866 q 239 681 247 762 q 231 504 231 600 q 238 327 231 398 q 270 199 245 255 q 333 118 292 146 q 442 91 374 91 q 548 117 506 91 q 613 197 590 143 "},"ō":{"x_min":72,"x_max":771,"ha":843,"o":"m 771 378 q 676 86 771 193 q 421 -21 581 -21 q 166 86 261 -21 q 72 378 72 193 q 166 671 72 563 q 421 779 261 779 q 676 671 581 779 q 771 378 771 563 m 639 378 q 581 597 639 525 q 421 669 524 669 q 260 597 318 669 q 203 378 203 525 q 261 162 203 236 q 421 88 318 88 q 581 161 523 88 q 639 378 639 234 m 673 906 l 170 906 l 170 1011 l 673 1011 l 673 906 "},"”":{"x_min":101.71875,"x_max":650.359375,"ha":637,"o":"m 650 1056 l 466 677 l 375 677 l 487 1056 l 650 1056 m 376 1056 l 192 677 l 101 677 l 213 1056 l 376 1056 "},"ö":{"x_min":72,"x_max":771,"ha":843,"o":"m 771 378 q 676 86 771 193 q 421 -21 581 -21 q 166 86 261 -21 q 72 378 72 193 q 166 671 72 563 q 421 779 261 779 q 676 671 581 779 q 771 378 771 563 m 639 378 q 581 597 639 525 q 421 669 524 669 q 260 597 318 669 q 203 378 203 525 q 261 162 203 236 q 421 88 318 88 q 581 161 523 88 q 639 378 639 234 m 629 885 l 494 885 l 494 1017 l 629 1017 l 629 885 m 349 885 l 214 885 l 214 1017 l 349 1017 l 349 885 "},"ć":{"x_min":71,"x_max":685,"ha":723,"o":"m 685 47 q 564 0 621 17 q 442 -17 506 -17 q 291 7 360 -17 q 174 80 223 31 q 98 203 125 128 q 71 378 71 278 q 173 670 71 564 q 442 776 275 776 q 570 757 507 776 q 685 712 632 739 l 685 571 l 678 571 q 557 640 619 616 q 436 665 495 665 q 265 592 328 665 q 203 378 203 519 q 264 167 203 241 q 436 94 325 94 q 515 104 475 94 q 587 130 555 114 q 639 160 615 144 q 678 188 663 176 l 685 188 l 685 47 m 618 1137 l 433 883 l 332 883 l 453 1137 l 618 1137 "},"þ":{"x_min":125,"x_max":791.5625,"ha":865,"o":"m 791 387 q 765 218 791 294 q 690 89 738 142 q 584 11 645 38 q 456 -16 524 -16 q 349 -3 397 -16 q 252 37 301 9 l 252 -280 l 125 -280 l 125 1055 l 252 1055 l 252 677 q 366 749 302 720 q 501 778 429 778 q 715 674 638 778 q 791 387 791 571 m 660 384 q 613 589 660 521 q 469 657 566 657 q 358 633 414 657 q 252 570 302 609 l 252 141 q 345 107 306 116 q 433 99 384 99 q 600 170 540 99 q 660 384 660 242 "},"]":{"x_min":116.359375,"x_max":469,"ha":631,"o":"m 469 -266 l 116 -266 l 116 -169 l 351 -169 l 351 959 l 116 959 l 116 1056 l 469 1056 l 469 -266 "},"А":{"x_min":17.625,"x_max":931.796875,"ha":949,"o":"m 931 0 l 788 0 l 689 282 l 252 282 l 153 0 l 17 0 l 385 1010 l 564 1010 l 931 0 m 648 397 l 471 893 l 293 397 l 648 397 "},"₥":{"x_min":125,"x_max":1231,"ha":1351,"o":"m 1231 0 l 1103 0 l 1103 431 q 1079 598 1103 555 q 951 658 1048 658 q 844 631 897 658 q 796 603 826 622 l 742 488 l 742 0 l 614 0 l 614 217 l 448 -135 l 333 -135 l 612 463 q 609 527 612 505 q 546 643 601 615 q 461 658 517 658 q 252 566 371 658 l 252 0 l 125 0 l 125 758 l 252 758 l 252 674 q 497 779 379 779 q 707 662 649 779 l 825 914 l 941 914 l 867 757 q 987 779 924 779 q 1231 492 1231 779 l 1231 0 "},"′":{"x_min":144.453125,"x_max":438.78125,"ha":502,"o":"m 438 1010 l 236 590 l 144 590 l 276 1010 l 438 1010 "},"Ы":{"x_min":136,"x_max":1143,"ha":1279,"o":"m 751 310 q 734 399 751 361 q 681 462 717 438 q 594 492 643 487 q 457 498 546 498 l 270 498 l 270 115 l 453 115 q 592 123 544 115 q 677 157 641 132 q 733 219 715 184 q 751 310 751 255 m 891 312 q 862 179 891 239 q 785 82 833 120 q 663 19 728 38 q 495 0 598 0 l 136 0 l 136 1010 l 270 1010 l 270 614 l 499 614 q 667 602 602 614 q 790 545 732 590 q 866 446 841 505 q 891 312 891 387 m 1143 0 l 1009 0 l 1009 1010 l 1143 1010 l 1143 0 "},"ẁ":{"x_min":58.328125,"x_max":1078.296875,"ha":1137,"o":"m 1078 758 l 880 0 l 762 0 l 568 584 l 375 0 l 257 0 l 58 758 l 191 758 l 330 171 l 519 758 l 624 758 l 818 171 l 950 758 l 1078 758 m 649 884 l 547 884 l 362 1137 l 527 1137 l 649 884 "},"ệ":{"x_min":72,"x_max":760,"ha":828,"o":"m 760 366 l 202 366 q 222 243 202 295 q 280 158 243 191 q 364 110 315 126 q 470 94 412 94 q 626 124 548 94 q 738 185 704 155 l 745 185 l 745 46 q 613 1 680 19 q 472 -17 546 -17 q 177 85 283 -17 q 72 374 72 187 q 173 669 72 560 q 440 779 274 779 q 676 689 593 779 q 760 435 760 599 l 760 366 m 635 464 q 585 619 635 564 q 433 674 535 674 q 270 613 331 674 q 202 464 210 553 l 635 464 m 668 880 l 560 880 l 435 1053 l 310 880 l 206 880 l 360 1137 l 514 1137 l 668 880 m 525 -259 l 381 -259 l 381 -127 l 525 -127 l 525 -259 "},"ĭ":{"x_min":1,"x_max":380,"ha":381,"o":"m 380 1113 q 332 943 380 1008 q 190 878 285 878 q 49 942 97 878 q 1 1113 1 1007 l 100 1113 q 122 993 100 1029 q 190 957 144 957 q 257 990 234 957 q 281 1113 281 1023 l 380 1113 m 255 0 l 127 0 l 127 758 l 255 758 l 255 0 "},"8":{"x_min":83,"x_max":801,"ha":884,"o":"m 801 281 q 698 63 801 150 q 442 -23 596 -23 q 180 61 277 -23 q 83 278 83 146 q 131 431 83 363 q 270 539 180 499 l 270 543 q 149 638 188 587 q 110 767 110 690 q 203 957 110 881 q 442 1034 297 1034 q 683 961 593 1034 q 774 776 774 888 q 731 641 774 708 q 605 538 688 575 l 605 534 q 750 433 700 493 q 801 281 801 374 m 640 775 q 583 890 640 847 q 440 934 527 934 q 300 893 355 934 q 246 783 246 852 q 273 698 246 734 q 357 635 301 663 q 429 603 382 623 q 521 570 476 583 q 614 663 588 615 q 640 775 640 712 m 661 268 q 633 368 661 331 q 525 444 606 406 q 456 472 494 459 q 355 508 418 485 q 257 418 294 475 q 220 289 220 361 q 283 137 220 197 q 443 78 346 78 q 601 128 542 78 q 661 268 661 179 "},"₵":{"x_min":78,"x_max":915.609375,"ha":970,"o":"m 915 73 q 769 12 868 50 q 605 -16 684 -16 l 605 -118 l 525 -118 l 525 -11 q 216 103 331 -11 q 78 501 78 242 q 215 894 78 753 q 525 1020 332 1020 l 525 1144 l 605 1144 l 605 1025 q 915 939 753 1025 l 915 780 l 905 780 q 605 907 761 907 l 605 105 q 906 231 773 105 l 915 231 l 915 73 m 525 99 l 525 912 q 426 889 470 907 q 244 683 295 836 q 218 503 218 605 q 321 195 218 305 q 525 99 399 112 "},"Ữ":{"x_min":121,"x_max":1121,"ha":1051,"o":"m 896 405 q 871 213 896 295 q 792 78 847 132 q 670 2 740 26 q 508 -21 601 -21 q 342 4 413 -21 q 224 78 272 29 q 145 212 169 133 q 121 405 121 291 l 121 1010 l 255 1010 l 255 398 q 266 269 255 316 q 303 182 277 221 q 384 116 333 138 q 508 94 436 94 q 631 116 580 94 q 713 182 682 138 q 750 271 739 221 q 762 395 762 321 l 762 1011 l 908 1011 q 994 1033 969 1011 q 1019 1103 1019 1055 q 1011 1158 1019 1127 q 997 1204 1004 1189 l 997 1211 l 1104 1211 q 1117 1155 1113 1179 q 1121 1097 1121 1131 q 1062 963 1121 1008 q 896 919 1004 919 l 896 405 m 787 1345 q 741 1189 787 1241 q 619 1137 696 1137 q 550 1150 582 1137 q 491 1189 519 1163 q 437 1232 459 1218 q 388 1247 415 1247 q 334 1216 352 1247 q 317 1135 317 1186 l 230 1135 q 278 1288 230 1236 q 397 1341 327 1341 q 463 1327 431 1341 q 524 1290 495 1314 q 580 1248 556 1262 q 628 1235 605 1235 q 682 1266 663 1235 q 702 1345 702 1297 l 787 1345 "},"R":{"x_min":136,"x_max":971.609375,"ha":966,"o":"m 971 0 l 797 0 l 459 402 l 270 402 l 270 0 l 136 0 l 136 1011 l 418 1011 q 571 999 510 1011 q 681 956 632 987 q 767 869 736 922 q 798 736 798 816 q 743 553 798 626 q 592 442 688 479 l 971 0 m 658 726 q 642 803 658 770 q 592 860 627 837 q 522 888 562 880 q 428 896 482 896 l 270 896 l 270 514 l 405 514 q 517 525 469 514 q 598 567 564 536 q 643 632 628 595 q 658 726 658 669 "},"Ż":{"x_min":85,"x_max":873,"ha":951,"o":"m 873 0 l 85 0 l 85 124 l 704 891 l 108 891 l 108 1010 l 858 1010 l 858 888 l 232 119 l 873 119 l 873 0 m 552 1138 l 408 1138 l 408 1270 l 552 1270 l 552 1138 "},"Ң":{"x_min":136,"x_max":1004,"ha":1045,"o":"m 1004 -229 l 876 -229 l 876 0 l 774 0 l 774 495 l 270 495 l 270 0 l 136 0 l 136 1010 l 270 1010 l 270 614 l 774 614 l 774 1010 l 908 1010 l 908 118 l 1004 118 l 1004 -229 "},"ħ":{"x_min":13,"x_max":759,"ha":879,"o":"m 759 0 l 631 0 l 631 431 q 624 529 631 484 q 602 601 618 575 q 553 644 585 630 q 471 658 522 658 q 362 632 419 658 q 253 566 305 606 l 253 0 l 126 0 l 126 860 l 13 860 l 13 951 l 126 951 l 126 1056 l 253 1056 l 253 951 l 471 951 l 471 860 l 253 860 l 253 674 q 376 751 312 723 q 507 779 440 779 q 694 705 630 779 q 759 491 759 631 l 759 0 "},"õ":{"x_min":72,"x_max":771,"ha":843,"o":"m 771 378 q 676 86 771 193 q 421 -21 581 -21 q 166 86 261 -21 q 72 378 72 193 q 166 671 72 563 q 421 779 261 779 q 676 671 581 779 q 771 378 771 563 m 639 378 q 581 597 639 525 q 421 669 524 669 q 260 597 318 669 q 203 378 203 525 q 261 162 203 236 q 421 88 318 88 q 581 161 523 88 q 639 378 639 234 m 700 1099 q 654 943 700 995 q 532 891 609 891 q 463 904 495 891 q 404 942 432 917 q 350 986 372 971 q 301 1001 328 1001 q 247 970 265 1001 q 230 888 230 940 l 143 888 q 191 1042 143 990 q 310 1095 240 1095 q 376 1081 344 1095 q 437 1044 408 1068 q 493 1002 469 1016 q 541 989 518 989 q 595 1020 576 989 q 615 1099 615 1051 l 700 1099 "},"─":{"x_min":-16,"x_max":999,"ha":984,"o":"m 999 362 l -16 362 l -16 481 l 999 481 l 999 362 "},"ẫ":{"x_min":71,"x_max":715,"ha":835,"o":"m 715 0 l 588 0 l 588 80 q 541 48 570 69 q 486 15 513 27 q 412 -10 454 0 q 315 -21 371 -21 q 142 47 213 -21 q 71 221 71 115 q 107 361 71 307 q 213 445 144 414 q 379 487 282 476 q 588 498 476 498 l 588 517 q 572 590 588 561 q 528 636 557 619 q 463 657 501 652 q 384 663 425 663 q 272 649 334 663 q 144 612 210 636 l 138 612 l 138 741 q 245 763 175 751 q 385 776 316 776 q 524 762 465 776 q 627 717 583 749 q 692 636 670 686 q 715 514 715 587 l 715 0 m 588 186 l 588 396 q 450 388 529 396 q 325 368 371 381 q 236 319 270 352 q 202 229 202 286 q 241 130 202 163 q 362 98 281 98 q 484 124 429 98 q 588 186 540 150 m 651 880 l 544 880 l 418 1053 l 294 880 l 189 880 l 343 1137 l 497 1137 l 651 880 m 662 1367 q 616 1224 662 1273 q 505 1176 570 1176 q 444 1189 469 1176 q 400 1220 419 1203 q 364 1250 384 1235 q 327 1266 344 1266 q 285 1245 297 1266 q 274 1176 274 1224 l 179 1176 q 225 1316 179 1267 q 336 1366 271 1366 q 398 1351 373 1366 q 442 1320 423 1337 q 477 1291 456 1307 q 514 1276 497 1276 q 555 1296 543 1276 q 568 1367 568 1317 l 662 1367 "},"ғ":{"x_min":13,"x_max":647.703125,"ha":654,"o":"m 647 646 l 253 646 l 253 405 l 471 405 l 471 314 l 253 314 l 253 0 l 126 0 l 126 314 l 13 314 l 13 405 l 126 405 l 126 758 l 647 758 l 647 646 "},"˙":{"x_min":370,"x_max":514,"ha":884,"o":"m 514 885 l 370 885 l 370 1017 l 514 1017 l 514 885 "},"ê":{"x_min":72,"x_max":760,"ha":828,"o":"m 760 365 l 202 365 q 223 243 202 295 q 280 158 244 191 q 364 109 315 125 q 471 93 412 93 q 626 124 548 93 q 738 185 704 155 l 745 185 l 745 45 q 613 0 680 18 q 472 -18 546 -18 q 177 84 283 -18 q 72 374 72 186 q 173 669 72 560 q 440 779 274 779 q 676 689 593 779 q 760 434 760 599 l 760 365 m 635 463 q 585 618 635 563 q 433 674 535 674 q 270 613 331 674 q 202 463 210 552 l 635 463 m 668 880 l 561 880 l 435 1053 l 311 880 l 206 880 l 360 1137 l 514 1137 l 668 880 "},"″":{"x_min":144.453125,"x_max":710.71875,"ha":774,"o":"m 438 1010 l 236 590 l 144 590 l 276 1010 l 438 1010 m 710 1010 l 508 590 l 416 590 l 547 1010 l 710 1010 "},"„":{"x_min":-6.78125,"x_max":541.859375,"ha":637,"o":"m 541 192 l 358 -187 l 267 -187 l 379 192 l 541 192 m 267 192 l 84 -187 l -6 -187 l 105 192 l 267 192 "},"ч":{"x_min":96,"x_max":715,"ha":840,"o":"m 715 0 l 587 0 l 587 290 q 469 260 526 272 q 347 249 413 249 q 160 309 224 249 q 96 482 96 369 l 96 758 l 224 758 l 224 547 q 229 469 224 503 q 252 410 234 435 q 301 372 270 385 q 390 360 333 360 q 492 369 437 360 q 587 390 547 378 l 587 758 l 715 758 l 715 0 "},"δ":{"x_min":72,"x_max":772.5625,"ha":844,"o":"m 772 374 q 678 84 772 189 q 423 -21 584 -21 q 165 81 259 -21 q 72 362 72 184 q 101 525 72 458 q 173 635 130 591 q 281 712 220 684 q 404 751 342 739 q 292 840 353 794 q 162 934 231 885 l 162 1056 l 711 1056 l 711 949 l 331 949 l 331 942 q 452 858 377 910 q 590 748 527 805 q 732 570 692 655 q 772 374 772 485 m 641 374 q 603 543 641 465 q 491 678 566 620 q 397 657 447 673 q 303 604 348 640 q 232 511 261 570 q 203 366 203 452 q 261 159 203 230 q 424 88 318 88 q 584 160 528 88 q 641 374 641 232 "},"Â":{"x_min":17.625,"x_max":931.796875,"ha":949,"o":"m 931 0 l 788 0 l 689 282 l 252 282 l 153 0 l 17 0 l 385 1010 l 564 1010 l 931 0 m 648 397 l 471 893 l 293 397 l 648 397 m 700 1134 l 592 1134 l 467 1307 l 342 1134 l 237 1134 l 391 1390 l 545 1390 l 700 1134 "},"Į":{"x_min":93,"x_max":539.890625,"ha":585,"o":"m 251 0 l 93 0 l 93 103 l 225 103 l 225 907 l 93 907 l 93 1010 l 492 1010 l 492 907 l 359 907 l 359 103 l 492 103 l 492 0 l 359 0 q 352 -33 355 -19 q 350 -72 350 -46 q 372 -154 350 -127 q 454 -182 394 -182 q 498 -175 476 -182 q 533 -162 521 -169 l 539 -162 l 539 -268 q 487 -279 515 -275 q 437 -283 460 -283 q 293 -228 345 -283 q 241 -79 241 -174 q 244 -38 241 -56 q 251 0 247 -20 "},"ω":{"x_min":77,"x_max":1053,"ha":1130,"o":"m 1053 341 q 1037 210 1053 276 q 986 94 1021 145 q 896 10 949 40 q 764 -20 842 -20 q 644 13 699 -20 q 565 93 590 47 l 560 93 q 484 13 534 46 q 365 -20 434 -20 q 233 11 288 -20 q 143 94 178 43 q 92 210 108 146 q 77 341 77 275 q 115 550 77 456 q 251 758 154 644 l 407 758 l 407 746 q 261 568 315 673 q 207 340 207 464 q 212 256 207 295 q 238 175 217 218 q 287 113 255 138 q 367 89 318 89 q 425 97 401 89 q 463 117 449 106 q 488 144 478 129 q 502 170 497 160 l 502 566 l 628 566 l 628 170 q 643 143 634 158 q 667 117 653 128 q 703 96 683 104 q 761 89 722 89 q 841 113 809 89 q 891 176 872 137 q 915 254 908 213 q 923 340 923 296 q 869 568 923 463 q 724 746 816 672 l 724 758 l 878 758 q 1014 550 975 644 q 1053 341 1053 456 "},"Ţ":{"x_min":0,"x_max":856,"ha":856,"o":"m 856 891 l 495 891 l 495 25 q 500 -12 497 11 q 503 -60 503 -37 q 440 -228 503 -170 q 279 -287 378 -287 q 215 -282 254 -287 q 145 -269 176 -277 l 145 -161 l 151 -161 q 199 -176 169 -167 q 263 -185 229 -185 q 366 -158 333 -185 q 400 -72 400 -132 q 398 -33 400 -52 q 394 0 396 -15 l 361 0 l 361 891 l 0 891 l 0 1010 l 856 1010 l 856 891 "},"´":{"x_min":366.890625,"x_max":653.078125,"ha":883,"o":"m 653 1138 l 467 884 l 366 884 l 488 1138 l 653 1138 "},"ỏ":{"x_min":72,"x_max":771,"ha":843,"o":"m 771 378 q 676 86 771 193 q 421 -21 581 -21 q 166 86 261 -21 q 72 378 72 193 q 166 671 72 563 q 421 779 261 779 q 676 671 581 779 q 771 378 771 563 m 639 378 q 581 597 639 525 q 421 669 524 669 q 260 597 318 669 q 203 378 203 525 q 261 162 203 236 q 421 88 318 88 q 581 161 523 88 q 639 378 639 234 m 552 1036 q 529 966 552 993 q 462 926 507 940 l 462 880 l 387 880 l 387 962 q 435 983 419 970 q 452 1023 452 996 q 439 1052 452 1039 q 403 1066 426 1066 q 370 1063 382 1066 q 341 1054 357 1060 l 339 1054 l 339 1124 q 377 1132 352 1128 q 427 1137 401 1137 q 517 1107 482 1137 q 552 1036 552 1078 "},"Ĉ":{"x_min":78,"x_max":916,"ha":970,"o":"m 916 73 q 848 43 878 57 q 769 13 818 28 q 679 -8 728 0 q 572 -18 631 -18 q 372 12 462 -18 q 216 109 282 43 q 114 273 151 174 q 78 504 78 372 q 113 727 78 629 q 215 893 148 826 q 370 994 279 959 q 573 1029 462 1029 q 735 1009 654 1029 q 916 939 816 989 l 916 781 l 905 781 q 740 882 822 850 q 564 914 658 914 q 426 889 487 914 q 317 812 365 864 q 244 683 270 761 q 218 504 218 606 q 246 321 218 397 q 321 196 275 244 q 432 122 368 146 q 565 98 495 98 q 747 131 663 98 q 906 231 832 164 l 916 231 l 916 73 m 788 1134 l 680 1134 l 555 1307 l 430 1134 l 325 1134 l 479 1390 l 633 1390 l 788 1134 "},"И":{"x_min":136,"x_max":907,"ha":1043,"o":"m 907 0 l 773 0 l 773 809 l 272 0 l 136 0 l 136 1010 l 270 1010 l 270 212 l 764 1010 l 907 1010 l 907 0 "},"Љ":{"x_min":11.921875,"x_max":1498,"ha":1552,"o":"m 1358 310 q 1341 399 1358 360 q 1288 462 1324 438 q 1201 492 1250 487 q 1064 498 1153 498 l 877 498 l 877 115 l 1060 115 q 1199 123 1151 115 q 1284 157 1248 132 q 1340 219 1322 183 q 1358 310 1358 255 m 1498 312 q 1469 179 1498 239 q 1392 82 1440 120 q 1270 19 1335 38 q 1102 0 1205 0 l 743 0 l 743 892 l 376 892 q 376 741 376 815 q 376 609 376 667 q 363 370 376 464 q 330 217 350 277 q 284 119 309 156 q 226 54 259 83 q 157 11 192 24 q 75 -1 122 -1 q 40 -1 60 -1 q 11 -1 20 -1 l 11 130 l 21 130 q 38 129 28 129 q 58 129 48 129 q 104 136 82 129 q 141 158 126 143 q 217 317 189 207 q 246 632 246 428 q 246 809 246 699 q 246 1011 246 919 l 877 1011 l 877 614 l 1106 614 q 1274 602 1209 614 q 1397 545 1339 590 q 1473 446 1448 505 q 1498 312 1498 387 "},"Ờ":{"x_min":78,"x_max":1136,"ha":1120,"o":"m 977 744 q 1007 628 998 685 q 1016 505 1016 572 q 982 281 1016 380 q 888 116 948 182 q 740 13 826 48 q 546 -21 655 -21 q 353 14 440 -21 q 204 116 265 49 q 110 281 143 183 q 78 504 78 379 q 110 726 78 628 q 205 893 143 824 q 353 995 265 960 q 546 1031 442 1031 q 741 995 654 1031 q 888 894 827 959 q 912 864 904 876 q 935 833 921 853 q 1011 854 988 833 q 1034 922 1034 876 q 1026 978 1034 947 q 1011 1024 1019 1009 l 1011 1031 l 1119 1031 q 1132 975 1128 999 q 1136 917 1136 951 q 1095 800 1136 844 q 977 744 1054 756 m 876 504 q 787 808 876 701 q 547 915 699 915 q 305 808 393 915 q 218 504 218 701 q 307 200 218 305 q 547 95 396 95 q 786 200 697 95 q 876 504 876 305 m 632 1137 l 531 1137 l 346 1389 l 510 1389 l 632 1137 "},"р":{"x_min":125,"x_max":791.5625,"ha":865,"o":"m 791 387 q 765 218 791 294 q 690 89 738 142 q 584 11 645 38 q 456 -16 524 -16 q 349 -3 397 -16 q 252 37 301 9 l 252 -280 l 125 -280 l 125 758 l 252 758 l 252 678 q 366 749 302 721 q 501 778 429 778 q 715 674 638 778 q 791 387 791 571 m 660 384 q 613 589 660 521 q 469 657 566 657 q 358 633 414 657 q 252 570 302 609 l 252 141 q 345 107 306 116 q 433 99 384 99 q 600 170 540 99 q 660 384 660 242 "},"Ω":{"x_min":72.953125,"x_max":1063.0625,"ha":1136,"o":"m 1063 0 l 672 0 l 672 262 q 753 318 712 288 q 823 386 793 347 q 871 480 853 426 q 889 606 889 534 q 802 830 889 746 q 568 915 716 915 q 333 830 419 915 q 247 606 247 746 q 264 480 247 534 q 312 386 282 426 q 383 318 343 347 q 464 262 423 288 l 464 0 l 72 0 l 72 118 l 351 118 l 351 202 q 175 368 244 263 q 107 606 107 474 q 234 912 107 793 q 568 1031 361 1031 q 901 912 774 1031 q 1029 606 1029 793 q 960 368 1029 474 q 785 202 891 263 l 785 118 l 1063 118 l 1063 0 "},"т":{"x_min":7,"x_max":682,"ha":689,"o":"m 682 646 l 409 646 l 409 0 l 281 0 l 281 646 l 7 646 l 7 758 l 682 758 l 682 646 "},"П":{"x_min":136,"x_max":908,"ha":1044,"o":"m 908 0 l 774 0 l 774 891 l 270 891 l 270 0 l 136 0 l 136 1010 l 908 1010 l 908 0 "},"Ö":{"x_min":76,"x_max":1014,"ha":1093,"o":"m 886 893 q 981 727 948 826 q 1014 504 1014 629 q 980 281 1014 379 q 886 116 946 182 q 738 13 824 48 q 544 -21 653 -21 q 351 14 438 -21 q 202 116 263 49 q 108 281 141 183 q 76 504 76 379 q 108 726 76 628 q 203 893 141 824 q 351 995 263 960 q 544 1031 440 1031 q 739 995 653 1031 q 886 893 826 959 m 874 504 q 785 808 874 701 q 545 915 697 915 q 303 808 391 915 q 216 504 216 701 q 305 200 216 305 q 545 95 394 95 q 784 200 695 95 q 874 504 874 305 m 751 1138 l 616 1138 l 616 1270 l 751 1270 l 751 1138 m 471 1138 l 336 1138 l 336 1270 l 471 1270 l 471 1138 "},"z":{"x_min":63,"x_max":675,"ha":730,"o":"m 675 0 l 63 0 l 63 94 l 504 651 l 72 651 l 72 758 l 663 758 l 663 666 l 219 108 l 675 108 l 675 0 "},"™":{"x_min":115,"x_max":1205,"ha":1356,"o":"m 1205 532 l 1121 532 l 1121 951 l 1107 951 l 946 645 l 893 645 l 730 956 l 714 956 l 714 532 l 631 532 l 631 1010 l 792 1010 l 921 750 l 1051 1010 l 1205 1010 l 1205 532 m 512 931 l 356 931 l 356 532 l 270 532 l 270 931 l 115 931 l 115 1010 l 512 1010 l 512 931 "},"ặ":{"x_min":71,"x_max":715,"ha":835,"o":"m 715 0 l 588 0 l 588 81 q 542 48 571 69 q 486 15 513 28 q 413 -10 454 0 q 316 -21 371 -21 q 142 47 213 -21 q 71 221 71 115 q 108 361 71 307 q 213 445 145 414 q 379 487 282 476 q 588 498 477 498 l 588 518 q 572 591 588 562 q 528 637 557 620 q 463 658 501 652 q 384 664 425 664 q 272 650 334 664 q 144 612 210 637 l 138 612 l 138 742 q 245 764 175 752 q 385 777 316 777 q 524 763 465 777 q 627 718 583 750 q 692 637 670 687 q 715 514 715 588 l 715 0 m 588 186 l 588 396 q 450 388 529 396 q 325 368 371 381 q 236 319 270 352 q 202 229 202 286 q 241 130 202 163 q 362 98 281 98 q 484 124 429 98 q 588 186 540 150 m 669 1137 q 601 950 669 1023 q 417 878 533 878 q 233 950 301 878 q 166 1137 166 1023 l 276 1137 q 320 1006 284 1047 q 418 966 356 966 q 515 1006 478 966 q 560 1137 551 1047 l 669 1137 m 433 -259 l 289 -259 l 289 -127 l 433 -127 l 433 -259 "},"Θ":{"x_min":78,"x_max":1016,"ha":1093,"o":"m 888 893 q 983 727 950 826 q 1016 504 1016 629 q 982 281 1016 379 q 888 116 948 182 q 740 13 826 48 q 546 -21 655 -21 q 353 14 440 -21 q 204 116 265 49 q 110 281 143 183 q 78 504 78 379 q 110 726 78 628 q 205 893 143 824 q 353 995 265 960 q 546 1031 442 1031 q 741 995 655 1031 q 888 893 828 959 m 876 504 q 787 808 876 701 q 547 915 699 915 q 305 808 393 915 q 218 504 218 701 q 307 200 218 305 q 547 95 396 95 q 786 200 697 95 q 876 504 876 305 m 759 484 l 334 484 l 334 605 l 759 605 l 759 484 "},"Ř":{"x_min":136,"x_max":971.609375,"ha":966,"o":"m 971 0 l 797 0 l 459 402 l 270 402 l 270 0 l 136 0 l 136 1011 l 418 1011 q 571 999 510 1011 q 681 956 632 987 q 767 869 736 922 q 798 736 798 816 q 743 553 798 626 q 592 442 688 479 l 971 0 m 658 726 q 642 803 658 770 q 592 860 627 837 q 522 888 562 880 q 428 896 482 896 l 270 896 l 270 514 l 405 514 q 517 525 469 514 q 598 567 564 536 q 643 632 628 595 q 658 726 658 669 m 678 1391 l 523 1134 l 369 1134 l 214 1391 l 322 1391 l 448 1217 l 573 1391 l 678 1391 "},"Ň":{"x_min":136,"x_max":906,"ha":1039,"o":"m 906 0 l 740 0 l 261 903 l 261 0 l 136 0 l 136 1010 l 343 1010 l 781 185 l 781 1010 l 906 1010 l 906 0 m 781 1390 l 626 1133 l 472 1133 l 317 1390 l 425 1390 l 550 1216 l 675 1390 l 781 1390 "},"ừ":{"x_min":120,"x_max":980,"ha":916,"o":"m 754 0 l 626 0 l 626 83 q 502 5 561 32 q 372 -21 443 -21 q 186 51 252 -21 q 120 266 120 124 l 120 758 l 248 758 l 248 326 q 253 227 248 268 q 276 157 258 186 q 323 113 294 127 q 408 100 353 100 q 516 125 458 100 q 626 191 575 151 l 626 758 l 767 758 q 853 780 828 758 q 878 850 878 802 q 870 905 878 874 q 855 952 863 936 l 855 958 l 963 958 q 976 902 972 926 q 980 844 980 878 q 921 710 980 755 q 755 666 863 666 l 754 666 l 754 0 m 518 884 l 417 884 l 232 1136 l 397 1136 l 518 884 "},"Ợ":{"x_min":78,"x_max":1136,"ha":1120,"o":"m 977 744 q 1007 628 998 685 q 1016 505 1016 572 q 982 281 1016 380 q 888 116 948 182 q 740 13 826 48 q 546 -21 655 -21 q 353 14 440 -21 q 204 116 265 49 q 110 281 143 184 q 78 505 78 379 q 110 726 78 628 q 205 894 143 824 q 353 996 265 961 q 546 1032 442 1032 q 741 996 654 1032 q 888 894 827 960 q 912 865 904 876 q 935 833 921 854 q 1011 854 988 833 q 1034 923 1034 876 q 1026 979 1034 948 q 1011 1025 1019 1010 l 1011 1032 l 1119 1032 q 1132 976 1128 1000 q 1136 918 1136 952 q 1095 801 1136 845 q 977 744 1054 756 m 876 505 q 787 809 876 702 q 547 916 699 916 q 305 809 393 916 q 218 505 218 702 q 307 200 218 306 q 547 95 396 95 q 786 200 697 95 q 876 505 876 306 m 619 -259 l 475 -259 l 475 -127 l 619 -127 l 619 -259 "},"É":{"x_min":136,"x_max":801.015625,"ha":878,"o":"m 801 0 l 136 0 l 136 1010 l 801 1010 l 801 891 l 270 891 l 270 614 l 801 614 l 801 495 l 270 495 l 270 119 l 801 119 l 801 0 m 673 1390 l 488 1137 l 387 1137 l 508 1390 l 673 1390 "},"ұ":{"x_min":41.1875,"x_max":780.828125,"ha":822,"o":"m 780 757 l 471 38 l 713 38 l 713 -56 l 471 -56 l 471 -280 l 343 -280 l 343 -56 l 109 -56 l 109 38 l 343 38 l 41 757 l 179 757 l 412 196 l 647 757 l 780 757 "},"и":{"x_min":125,"x_max":763,"ha":888,"o":"m 763 0 l 637 0 l 637 569 l 240 0 l 125 0 l 125 758 l 251 758 l 251 196 l 643 758 l 763 758 l 763 0 "},"³":{"x_min":140.375,"x_max":648,"ha":752,"o":"m 648 554 q 625 465 648 504 q 565 404 603 427 q 476 369 526 380 q 366 358 426 358 q 246 368 302 358 q 140 397 190 378 l 140 519 l 149 519 q 243 474 177 494 q 372 454 309 454 q 485 478 440 454 q 531 553 531 502 q 490 631 531 611 q 374 652 450 652 l 278 652 l 278 748 l 364 748 q 476 774 440 748 q 513 846 513 800 q 479 911 513 887 q 375 936 445 936 q 257 914 323 936 q 161 869 190 893 l 151 869 l 151 990 q 260 1020 201 1008 q 380 1032 319 1032 q 564 985 499 1032 q 630 867 630 939 q 592 768 630 807 q 495 712 555 730 l 495 707 q 603 657 559 695 q 648 554 648 620 "},"[":{"x_min":162,"x_max":514.65625,"ha":631,"o":"m 514 -266 l 162 -266 l 162 1056 l 514 1056 l 514 959 l 280 959 l 280 -169 l 514 -169 l 514 -266 "},"Ҝ":{"x_min":139,"x_max":947.109375,"ha":962,"o":"m 947 0 l 774 0 l 439 378 l 439 204 l 348 204 l 348 461 l 273 461 l 273 0 l 139 0 l 139 1010 l 273 1010 l 273 557 q 348 565 318 557 l 348 812 l 439 812 l 439 620 q 496 702 472 653 q 541 807 508 726 q 650 963 587 919 q 835 1010 716 1010 l 888 1010 l 888 890 l 832 890 q 711 853 751 890 q 647 736 683 827 q 584 615 615 655 q 478 531 546 565 l 947 0 "},"ζ":{"x_min":73,"x_max":666,"ha":636,"o":"m 625 51 q 656 -6 647 24 q 666 -64 666 -37 q 635 -179 666 -122 q 559 -279 605 -237 l 438 -279 l 438 -270 q 525 -176 499 -216 q 551 -89 551 -136 q 530 -24 551 -50 q 477 1 509 1 l 378 1 q 148 79 223 1 q 73 313 73 158 q 104 495 73 408 q 188 662 135 582 q 305 808 239 738 q 446 941 372 878 l 446 948 l 134 948 l 134 1055 l 639 1055 l 639 963 q 481 840 559 910 q 342 689 404 770 q 243 515 282 610 q 205 323 205 420 q 207 275 205 299 q 217 223 209 251 q 240 172 224 198 q 283 129 257 145 q 349 114 308 114 q 428 114 390 114 l 486 114 q 569 96 535 114 q 625 51 604 78 "},"∏":{"x_min":98,"x_max":1039,"ha":1137,"o":"m 1039 892 l 904 892 l 904 -131 l 770 -131 l 770 892 l 368 892 l 368 -131 l 234 -131 l 234 892 l 98 892 l 98 1010 l 1039 1010 l 1039 892 "},"Έ":{"x_min":-0.421875,"x_max":965.015625,"ha":1042,"o":"m 965 0 l 300 0 l 300 1010 l 965 1010 l 965 891 l 434 891 l 434 614 l 965 614 l 965 495 l 434 495 l 434 119 l 965 119 l 965 0 m 164 1011 l 131 750 l 32 750 l 0 1011 l 164 1011 "},"Ρ":{"x_min":136,"x_max":797,"ha":838,"o":"m 797 705 q 773 580 797 638 q 708 481 750 523 q 584 403 655 429 q 404 377 513 377 l 270 377 l 270 0 l 136 0 l 136 1011 l 410 1011 q 564 995 501 1011 q 676 947 627 980 q 765 851 733 909 q 797 705 797 793 m 657 702 q 638 793 657 754 q 583 856 620 832 q 508 886 550 877 q 403 896 466 896 l 270 896 l 270 492 l 383 492 q 515 506 464 492 q 598 553 566 521 q 643 621 630 585 q 657 702 657 657 "},"ğ":{"x_min":73,"x_max":739,"ha":864,"o":"m 739 86 q 651 -196 739 -106 q 382 -287 564 -287 q 264 -278 322 -287 q 152 -254 207 -270 l 152 -124 l 158 -124 q 258 -154 190 -136 q 394 -172 326 -172 q 501 -156 459 -172 q 568 -113 544 -140 q 602 -49 592 -86 q 612 34 612 -11 l 612 103 q 502 34 554 57 q 368 12 449 12 q 152 109 232 12 q 73 386 73 207 q 100 554 73 483 q 175 676 127 625 q 282 752 219 725 q 408 779 345 779 q 518 765 473 779 q 612 725 562 752 l 620 758 l 739 758 l 739 86 m 612 208 l 612 621 q 517 654 561 644 q 430 664 473 664 q 264 593 325 664 q 204 388 204 523 q 249 195 204 261 q 397 130 294 130 q 509 151 453 130 q 612 208 565 172 m 691 1137 q 623 950 691 1023 q 439 878 555 878 q 255 950 323 878 q 188 1137 188 1023 l 297 1137 q 341 1006 305 1047 q 440 966 378 966 q 536 1006 500 966 q 582 1137 573 1047 l 691 1137 "},"Ở":{"x_min":78,"x_max":1136,"ha":1120,"o":"m 977 744 q 1007 628 998 685 q 1016 505 1016 572 q 982 281 1016 380 q 888 116 948 182 q 740 13 826 48 q 546 -21 655 -21 q 353 14 440 -21 q 204 116 265 49 q 110 281 143 183 q 78 504 78 379 q 110 726 78 628 q 205 893 143 824 q 353 995 265 960 q 546 1031 442 1031 q 741 995 654 1031 q 888 894 827 959 q 912 864 904 876 q 935 833 921 853 q 1011 854 988 833 q 1034 922 1034 876 q 1026 978 1034 947 q 1011 1024 1019 1009 l 1011 1031 l 1119 1031 q 1132 975 1128 999 q 1136 917 1136 951 q 1095 800 1136 844 q 977 744 1054 756 m 876 504 q 787 808 876 701 q 547 915 699 915 q 305 808 393 915 q 218 504 218 701 q 307 200 218 305 q 547 95 396 95 q 786 200 697 95 q 876 504 876 305 m 663 1289 q 640 1219 663 1246 q 573 1179 618 1193 l 573 1133 l 498 1133 l 498 1215 q 546 1236 530 1223 q 563 1276 563 1249 q 550 1305 563 1292 q 514 1319 537 1319 q 481 1316 493 1319 q 452 1307 468 1313 l 450 1307 l 450 1377 q 488 1385 463 1381 q 538 1390 512 1390 q 628 1360 593 1390 q 663 1289 663 1331 "},"ª":{"x_min":102,"x_max":640,"ha":757,"o":"m 640 376 l 525 376 l 525 439 q 489 413 506 426 q 442 388 472 401 q 384 367 412 374 q 307 360 357 360 q 161 418 220 360 q 102 566 102 476 q 133 684 102 638 q 217 755 165 730 q 351 790 270 779 q 525 801 432 801 l 525 813 q 512 871 525 849 q 478 907 500 893 q 425 922 455 919 q 363 926 396 926 q 249 909 306 926 q 166 884 192 893 l 156 884 l 156 1000 q 249 1020 187 1009 q 364 1031 311 1031 q 575 973 511 1031 q 640 808 640 916 l 640 376 m 525 540 l 525 705 q 416 699 478 705 q 317 683 354 694 q 247 645 273 671 q 221 572 221 619 q 251 494 221 520 q 346 469 282 469 q 446 491 402 469 q 525 540 491 514 "},"ї":{"x_min":3,"x_max":377,"ha":380,"o":"m 377 885 l 249 885 l 249 1017 l 377 1017 l 377 885 m 131 885 l 3 885 l 3 1017 l 131 1017 l 131 885 m 254 0 l 126 0 l 126 758 l 254 758 l 254 0 "},"₭":{"x_min":35,"x_max":947,"ha":962,"o":"m 947 0 l 772 0 l 273 450 l 273 0 l 139 0 l 139 450 l 35 450 l 35 559 l 139 559 l 139 1010 l 273 1010 l 273 559 l 763 1010 l 925 1010 l 426 559 l 947 559 l 947 450 l 428 450 l 947 0 "},"T":{"x_min":0,"x_max":856,"ha":856,"o":"m 856 891 l 495 891 l 495 0 l 361 0 l 361 891 l 0 891 l 0 1010 l 856 1010 l 856 891 "},"š":{"x_min":74.15625,"x_max":666,"ha":723,"o":"m 666 218 q 580 48 666 114 q 346 -18 494 -18 q 191 2 261 -18 q 74 45 121 22 l 74 189 l 80 189 q 214 116 140 143 q 356 90 288 90 q 488 117 440 90 q 536 202 536 144 q 510 270 536 247 q 410 309 484 293 q 339 323 383 315 q 260 341 296 332 q 118 419 160 368 q 77 545 77 470 q 96 633 77 592 q 154 707 115 675 q 251 758 192 739 q 382 777 310 777 q 520 760 450 777 q 635 719 589 743 l 635 583 l 628 583 q 510 644 580 619 q 373 669 440 669 q 255 642 303 669 q 207 562 207 615 q 236 491 207 515 q 328 452 264 467 q 407 436 364 444 q 480 421 451 428 q 617 351 569 401 q 666 218 666 301 m 614 1138 l 459 880 l 305 880 l 150 1138 l 258 1138 l 384 963 l 509 1138 l 614 1138 "},"є":{"x_min":72,"x_max":701,"ha":759,"o":"m 701 32 q 594 -3 648 10 q 457 -17 540 -17 q 301 7 372 -17 q 179 79 230 31 q 99 204 127 129 q 72 377 72 278 q 173 664 72 554 q 457 775 274 775 q 590 756 527 775 q 701 716 654 738 l 701 579 l 692 579 q 583 639 649 612 q 449 666 517 666 q 285 613 352 666 q 200 451 217 560 l 588 451 l 588 349 l 202 349 q 268 159 202 227 q 447 92 335 92 q 586 115 521 92 q 692 172 650 138 l 701 172 l 701 32 "},"Þ":{"x_min":136,"x_max":797,"ha":842,"o":"m 797 533 q 773 413 797 471 q 708 317 749 356 q 581 242 655 266 q 404 218 506 218 l 270 218 l 270 0 l 136 0 l 136 1010 l 270 1010 l 270 827 l 409 827 q 565 811 499 827 q 676 766 631 796 q 765 672 733 730 q 797 533 797 615 m 657 530 q 639 615 657 579 q 583 675 621 651 q 507 704 551 696 q 403 713 464 713 l 270 713 l 270 331 l 383 331 q 515 344 464 331 q 599 389 567 358 q 643 451 629 417 q 657 530 657 486 "},"₮":{"x_min":0,"x_max":856,"ha":856,"o":"m 856 891 l 495 891 l 495 661 l 663 793 l 663 684 l 495 552 l 495 444 l 663 576 l 663 466 l 495 335 l 495 0 l 361 0 l 361 230 l 190 96 l 190 205 l 361 339 l 361 447 l 190 313 l 190 422 l 361 556 l 361 891 l 0 891 l 0 1010 l 856 1010 l 856 891 "},"j":{"x_min":-42,"x_max":362,"ha":479,"o":"m 362 885 l 218 885 l 218 1017 l 362 1017 l 362 885 m 354 -18 q 286 -219 354 -151 q 104 -287 218 -287 q 32 -281 76 -287 q -42 -268 -12 -276 l -42 -147 l -35 -147 q 16 -163 -16 -154 q 78 -173 48 -173 q 157 -159 127 -173 q 202 -118 187 -145 q 221 -53 217 -91 q 226 40 226 -14 l 226 651 l 67 651 l 67 758 l 354 758 l 354 -18 "},"Σ":{"x_min":80,"x_max":868,"ha":934,"o":"m 868 0 l 80 0 l 80 124 l 500 531 l 94 888 l 94 1010 l 837 1010 l 837 891 l 272 891 l 670 547 l 670 529 l 243 119 l 868 119 l 868 0 "},"1":{"x_min":189,"x_max":736,"ha":884,"o":"m 736 0 l 189 0 l 189 103 l 399 103 l 399 781 l 189 781 l 189 873 q 280 880 231 873 q 355 900 329 887 q 404 943 386 917 q 422 1013 422 969 l 529 1013 l 529 103 l 736 103 l 736 0 "},"ℓ":{"x_min":9.96875,"x_max":438,"ha":449,"o":"m 9 286 l 130 446 l 130 755 q 171 960 130 908 q 288 1012 213 1012 q 395 967 353 1012 q 438 849 438 923 q 397 697 438 787 q 245 451 356 607 l 245 169 q 254 94 245 109 q 282 80 264 80 q 323 91 300 80 q 417 152 346 102 l 417 42 q 342 -1 380 13 q 265 -16 303 -16 q 166 22 202 -16 q 130 147 130 61 l 130 300 l 76 233 l 9 286 m 245 610 q 327 768 311 725 q 343 849 343 812 q 338 886 343 869 q 325 914 334 902 q 310 926 318 922 q 291 931 301 931 q 273 926 281 931 q 260 913 264 922 q 249 861 253 899 q 245 764 245 824 l 245 610 "},"Ү":{"x_min":4.28125,"x_max":850.359375,"ha":854,"o":"m 850 1010 l 495 442 l 495 0 l 361 0 l 361 428 l 4 1010 l 152 1010 l 428 558 l 707 1010 l 850 1010 "},"ĉ":{"x_min":71,"x_max":685,"ha":723,"o":"m 685 47 q 564 0 621 17 q 442 -17 506 -17 q 291 7 360 -17 q 174 80 223 31 q 98 203 125 128 q 71 378 71 278 q 173 670 71 564 q 442 776 275 776 q 570 757 507 776 q 685 712 632 739 l 685 571 l 678 571 q 557 640 619 616 q 436 665 495 665 q 265 592 328 665 q 203 378 203 519 q 264 167 203 241 q 436 94 325 94 q 515 104 475 94 q 587 130 555 114 q 639 160 615 144 q 678 188 663 176 l 685 188 l 685 47 m 664 880 l 556 880 l 431 1054 l 306 880 l 201 880 l 356 1137 l 510 1137 l 664 880 "},"ī":{"x_min":-3,"x_max":384,"ha":381,"o":"m 384 906 l -3 906 l -3 1011 l 384 1011 l 384 906 m 254 0 l 126 0 l 126 758 l 254 758 l 254 0 "},"О":{"x_min":78,"x_max":1016,"ha":1093,"o":"m 888 893 q 983 727 950 826 q 1016 504 1016 629 q 982 281 1016 379 q 888 116 948 182 q 740 13 826 48 q 546 -21 655 -21 q 353 14 440 -21 q 204 116 265 49 q 110 281 143 183 q 78 504 78 379 q 110 726 78 628 q 205 893 143 824 q 353 995 265 960 q 546 1031 442 1031 q 741 995 655 1031 q 888 893 828 959 m 876 504 q 787 808 876 701 q 547 915 699 915 q 305 808 393 915 q 218 504 218 701 q 307 200 218 305 q 547 95 396 95 q 786 200 697 95 q 876 504 876 305 "},"ξ":{"x_min":71,"x_max":706,"ha":699,"o":"m 706 -65 q 675 -180 706 -123 q 599 -279 644 -237 l 478 -279 l 478 -270 q 565 -176 540 -216 q 591 -89 591 -135 q 571 -25 591 -51 q 520 1 551 1 l 425 1 q 268 19 330 1 q 162 76 205 37 q 94 168 117 117 q 71 279 71 219 q 87 377 71 332 q 137 457 104 421 q 213 514 167 491 q 312 550 260 537 l 312 558 q 175 633 226 577 q 125 759 125 689 q 154 861 125 816 q 245 946 184 907 l 245 951 l 91 951 l 91 1056 l 650 1056 l 650 948 l 475 948 q 392 938 429 948 q 323 905 356 928 q 274 849 292 883 q 256 769 256 814 q 278 682 256 715 q 334 631 300 649 q 405 608 365 615 q 499 601 445 601 l 615 601 l 615 489 l 414 489 q 334 475 370 489 q 266 434 298 461 q 220 373 237 409 q 203 296 203 337 q 228 188 203 227 q 297 132 253 149 q 392 115 340 115 q 505 115 444 115 l 524 115 q 605 98 570 115 q 662 55 640 81 q 694 0 683 32 q 706 -65 706 -32 "},"Ď":{"x_min":136,"x_max":989,"ha":1070,"o":"m 989 504 q 928 254 989 366 q 769 80 868 142 q 615 19 700 38 q 390 0 529 0 l 136 0 l 136 1010 l 388 1010 q 623 988 536 1010 q 770 930 710 967 q 931 758 873 865 q 989 504 989 651 m 849 506 q 807 706 849 624 q 684 834 766 787 q 557 881 624 868 q 396 895 489 895 l 270 895 l 270 115 l 396 115 q 565 129 493 115 q 698 182 637 143 q 811 309 773 230 q 849 506 849 387 m 698 1390 l 543 1133 l 389 1133 l 234 1390 l 342 1390 l 468 1216 l 593 1390 l 698 1390 "},"&":{"x_min":78,"x_max":1054.75,"ha":1009,"o":"m 537 808 q 498 910 537 873 q 400 947 460 947 q 299 905 338 947 q 260 803 260 863 q 286 712 260 752 q 402 619 313 673 q 502 689 468 643 q 537 808 537 735 m 668 214 l 344 530 q 302 503 323 520 q 260 458 281 486 q 229 394 241 431 q 217 310 217 357 q 274 150 217 211 q 439 90 332 90 q 564 120 502 90 q 668 214 626 151 m 873 617 l 873 551 q 856 405 873 486 q 798 250 839 324 l 1054 0 l 887 0 l 732 152 q 573 17 654 55 q 405 -21 491 -21 q 171 61 264 -21 q 78 277 78 143 q 95 385 78 340 q 137 464 113 431 q 196 524 160 496 q 267 573 231 552 q 159 672 192 622 q 127 797 127 721 q 144 883 127 842 q 198 958 162 924 q 287 1011 232 991 q 407 1032 341 1032 q 597 972 524 1032 q 670 822 670 913 q 661 754 670 792 q 634 686 653 716 q 572 623 612 653 q 468 570 532 592 l 720 325 q 735 385 730 352 q 740 452 740 417 q 740 537 740 490 q 740 617 740 584 l 873 617 "},"G":{"x_min":78,"x_max":978,"ha":1077,"o":"m 978 74 q 797 8 895 36 q 607 -20 699 -20 q 391 12 489 -20 q 223 110 293 45 q 115 275 153 176 q 78 506 78 373 q 219 888 78 748 q 607 1029 360 1029 q 783 1008 693 1029 q 977 937 873 987 l 977 778 l 964 778 q 903 820 943 794 q 825 865 863 847 q 719 900 778 886 q 584 914 659 914 q 316 805 415 914 q 218 510 218 696 q 321 204 218 313 q 601 96 424 96 q 731 108 666 96 q 845 142 796 121 l 845 390 l 574 390 l 574 508 l 978 508 l 978 74 "},"ΰ":{"x_min":120,"x_max":757,"ha":877,"o":"m 757 276 q 674 54 757 128 q 438 -20 591 -20 q 203 52 286 -20 q 120 276 120 125 l 120 758 l 248 758 l 248 323 q 254 219 248 259 q 283 147 261 178 q 340 103 304 118 q 438 89 376 89 q 536 103 497 89 q 595 148 575 118 q 621 220 614 178 q 629 323 629 262 l 629 758 l 757 758 l 757 276 m 515 1138 l 482 877 l 395 877 l 362 1138 l 515 1138 m 708 885 l 578 885 l 578 1017 l 708 1017 l 708 885 m 300 885 l 170 885 l 170 1017 l 300 1017 l 300 885 "},"`":{"x_min":230.578125,"x_max":516.765625,"ha":883,"o":"m 516 884 l 415 884 l 230 1138 l 395 1138 l 516 884 "},"ỗ":{"x_min":72,"x_max":771,"ha":843,"o":"m 771 378 q 676 86 771 193 q 421 -21 581 -21 q 166 86 261 -21 q 72 378 72 193 q 166 671 72 563 q 421 779 261 779 q 676 671 581 779 q 771 378 771 563 m 639 378 q 581 597 639 525 q 421 669 524 669 q 260 597 318 669 q 203 378 203 525 q 261 162 203 236 q 421 88 318 88 q 581 161 523 88 q 639 378 639 234 m 652 880 l 545 880 l 419 1053 l 295 880 l 190 880 l 344 1137 l 498 1137 l 652 880 m 663 1367 q 617 1224 663 1273 q 506 1176 571 1176 q 445 1189 470 1176 q 401 1220 420 1203 q 365 1250 385 1235 q 328 1266 345 1266 q 286 1245 298 1266 q 275 1176 275 1224 l 180 1176 q 226 1316 180 1267 q 337 1366 272 1366 q 399 1351 374 1366 q 443 1320 424 1337 q 478 1291 457 1307 q 515 1276 498 1276 q 556 1296 544 1276 q 569 1367 569 1317 l 663 1367 "},"Ễ":{"x_min":136,"x_max":801.015625,"ha":878,"o":"m 801 0 l 136 0 l 136 1010 l 801 1010 l 801 891 l 270 891 l 270 614 l 801 614 l 801 495 l 270 495 l 270 119 l 801 119 l 801 0 m 699 1099 l 584 1099 l 466 1159 l 347 1099 l 236 1099 l 404 1216 l 531 1216 l 699 1099 m 691 1390 q 645 1298 683 1334 q 553 1262 607 1262 q 503 1270 528 1262 q 459 1287 478 1278 q 420 1305 441 1296 q 385 1314 399 1314 q 352 1303 366 1314 q 335 1262 339 1292 l 244 1262 q 288 1352 251 1314 q 381 1390 326 1390 q 431 1382 408 1390 q 476 1363 453 1374 q 515 1345 499 1352 q 549 1338 531 1338 q 582 1349 567 1338 q 600 1390 596 1361 l 691 1390 "},"ằ":{"x_min":71,"x_max":715,"ha":835,"o":"m 715 0 l 588 0 l 588 81 q 541 48 570 69 q 485 15 513 28 q 412 -10 454 0 q 315 -21 371 -21 q 142 47 213 -21 q 71 221 71 115 q 107 361 71 307 q 213 445 144 414 q 379 487 282 476 q 588 498 476 498 l 588 517 q 572 590 588 561 q 528 636 557 619 q 463 657 501 652 q 384 663 425 663 q 272 649 334 663 q 144 612 210 636 l 138 612 l 138 741 q 245 763 175 751 q 385 776 316 776 q 524 762 465 776 q 627 717 583 749 q 692 637 670 686 q 715 514 715 587 l 715 0 m 588 186 l 588 396 q 450 388 529 396 q 325 368 371 381 q 236 319 270 352 q 202 229 202 286 q 241 130 202 163 q 362 98 281 98 q 484 124 429 98 q 588 186 540 150 m 644 1090 q 583 915 644 979 q 420 852 523 852 q 257 915 317 852 q 197 1090 197 979 l 307 1090 q 335 971 307 1005 q 420 938 364 938 q 505 971 476 938 q 534 1090 534 1005 l 644 1090 m 478 1032 l 391 1032 l 243 1212 l 394 1212 l 478 1032 "},"ŏ":{"x_min":72,"x_max":771,"ha":843,"o":"m 771 378 q 676 86 771 193 q 421 -21 581 -21 q 166 86 261 -21 q 72 378 72 193 q 166 671 72 563 q 421 779 261 779 q 676 671 581 779 q 771 378 771 563 m 639 378 q 581 597 639 525 q 421 669 524 669 q 260 597 318 669 q 203 378 203 525 q 261 162 203 236 q 421 88 318 88 q 581 161 523 88 q 639 378 639 234 m 673 1137 q 605 950 673 1023 q 421 878 537 878 q 237 950 305 878 q 170 1137 170 1023 l 280 1137 q 324 1006 288 1047 q 422 966 360 966 q 519 1006 482 966 q 564 1137 555 1047 l 673 1137 "},"Ả":{"x_min":17.84375,"x_max":932.328125,"ha":950,"o":"m 932 0 l 789 0 l 690 282 l 253 282 l 154 0 l 17 0 l 385 1010 l 564 1010 l 932 0 m 648 397 l 471 893 l 293 397 l 648 397 m 598 1290 q 575 1220 598 1247 q 509 1180 553 1194 l 509 1134 l 434 1134 l 434 1215 q 481 1237 465 1223 q 498 1277 498 1250 q 485 1306 498 1293 q 449 1320 472 1320 q 416 1316 428 1320 q 387 1307 403 1313 l 385 1307 l 385 1378 q 423 1386 398 1382 q 473 1391 447 1391 q 563 1361 528 1391 q 598 1290 598 1332 "},"ý":{"x_min":41.375,"x_max":780.578125,"ha":822,"o":"m 780 758 l 338 -280 l 202 -280 l 343 36 l 41 758 l 179 758 l 412 195 l 646 758 l 780 758 m 629 1137 l 444 883 l 343 883 l 464 1137 l 629 1137 "},"º":{"x_min":82,"x_max":675,"ha":757,"o":"m 675 695 q 592 447 675 535 q 378 360 509 360 q 162 449 242 360 q 82 695 82 539 q 162 940 82 850 q 378 1031 242 1031 q 592 942 509 1031 q 675 695 675 854 m 552 695 q 506 870 552 812 q 378 929 460 929 q 250 869 296 929 q 205 695 205 810 q 250 520 205 579 q 378 462 296 462 q 506 520 460 462 q 552 695 552 578 "},"∞":{"x_min":109,"x_max":1280,"ha":1389,"o":"m 1280 450 q 1196 197 1280 288 q 973 107 1113 107 q 807 159 883 107 q 685 309 732 211 q 560 157 632 207 q 391 107 488 107 q 185 199 262 107 q 109 436 109 291 q 193 689 109 598 q 415 780 278 780 q 581 727 506 780 q 703 576 657 675 q 829 728 756 678 q 997 779 901 779 q 1203 687 1126 779 q 1280 450 1280 595 m 655 494 q 550 614 613 574 q 423 654 488 654 q 276 597 329 654 q 224 436 224 540 q 267 289 224 345 q 390 233 310 233 q 507 265 465 233 q 588 362 549 298 q 623 425 611 401 q 655 494 636 449 m 1165 450 q 1121 597 1165 541 q 998 653 1078 653 q 894 628 938 653 q 800 523 851 604 q 763 455 780 490 q 733 391 746 420 q 837 273 773 313 q 965 233 900 233 q 1112 289 1059 233 q 1165 450 1165 345 "},"ź":{"x_min":63,"x_max":675,"ha":730,"o":"m 675 0 l 63 0 l 63 94 l 504 651 l 72 651 l 72 758 l 663 758 l 663 666 l 219 108 l 675 108 l 675 0 m 549 1137 l 364 884 l 263 884 l 384 1137 l 549 1137 "},"я":{"x_min":45.21875,"x_max":707,"ha":832,"o":"m 707 0 l 579 0 l 579 301 l 429 301 l 195 0 l 45 0 l 300 313 q 156 396 201 340 q 111 542 111 452 q 138 645 111 603 q 206 713 165 687 q 300 748 247 739 q 415 758 353 758 l 707 758 l 707 0 m 579 401 l 579 656 l 418 656 q 343 652 366 656 q 293 634 320 649 q 254 593 267 619 q 242 538 242 568 q 249 478 242 501 q 281 434 257 455 q 342 408 306 415 q 422 401 378 401 l 579 401 "},"Ё":{"x_min":136,"x_max":801.015625,"ha":878,"o":"m 801 0 l 136 0 l 136 1010 l 801 1010 l 801 891 l 270 891 l 270 614 l 801 614 l 801 495 l 270 495 l 270 119 l 801 119 l 801 0 m 704 1138 l 569 1138 l 569 1270 l 704 1270 l 704 1138 m 424 1138 l 289 1138 l 289 1270 l 424 1270 l 424 1138 "},"Ư":{"x_min":121,"x_max":1121,"ha":1051,"o":"m 896 405 q 871 213 896 295 q 792 78 847 132 q 670 2 740 26 q 508 -21 601 -21 q 342 4 413 -21 q 224 78 272 29 q 145 212 169 133 q 121 405 121 291 l 121 1010 l 255 1010 l 255 398 q 266 269 255 316 q 303 182 277 221 q 384 116 333 138 q 508 94 436 94 q 631 116 580 94 q 713 182 682 138 q 750 271 739 221 q 762 395 762 321 l 762 1011 l 908 1011 q 994 1033 969 1011 q 1019 1103 1019 1055 q 1011 1158 1019 1127 q 997 1205 1004 1189 l 997 1211 l 1104 1211 q 1117 1155 1113 1179 q 1121 1097 1121 1131 q 1062 963 1121 1008 q 896 919 1004 919 l 896 405 "},"ń":{"x_min":125,"x_max":759,"ha":879,"o":"m 759 0 l 631 0 l 631 431 q 624 529 631 484 q 602 601 618 575 q 553 644 585 630 q 470 658 521 658 q 361 632 418 658 q 252 566 304 606 l 252 0 l 125 0 l 125 758 l 252 758 l 252 674 q 375 751 311 723 q 506 779 439 779 q 694 705 629 779 q 759 491 759 631 l 759 0 m 652 1137 l 467 884 l 366 884 l 487 1137 l 652 1137 "},"Г":{"x_min":136,"x_max":788.125,"ha":787,"o":"m 788 891 l 270 891 l 270 0 l 136 0 l 136 1010 l 788 1010 l 788 891 "},"‴":{"x_min":0,"x_max":771.75,"ha":774,"o":"m 771 1010 l 569 590 l 477 590 l 609 1010 l 771 1010 m 533 1010 l 331 590 l 239 590 l 370 1010 l 533 1010 m 294 1010 l 92 590 l 0 590 l 131 1010 l 294 1010 "},"Ь":{"x_min":136,"x_max":891,"ha":945,"o":"m 751 310 q 734 399 751 361 q 681 462 717 438 q 594 492 643 487 q 457 498 546 498 l 270 498 l 270 115 l 453 115 q 592 123 544 115 q 677 157 641 132 q 733 219 715 184 q 751 310 751 255 m 891 312 q 862 179 891 239 q 785 82 833 120 q 663 19 728 38 q 495 0 598 0 l 136 0 l 136 1010 l 270 1010 l 270 614 l 499 614 q 667 602 602 614 q 790 545 732 590 q 866 446 841 505 q 891 312 891 387 "},"ѝ":{"x_min":125,"x_max":763,"ha":888,"o":"m 763 0 l 637 0 l 637 569 l 240 0 l 125 0 l 125 758 l 251 758 l 251 196 l 643 758 l 763 758 l 763 0 m 536 884 l 435 884 l 250 1137 l 415 1137 l 536 884 "},"¤":{"x_min":93.859375,"x_max":792.828125,"ha":884,"o":"m 792 174 l 718 99 l 558 258 q 503 233 528 240 q 442 226 477 226 q 381 234 411 226 q 327 258 351 242 l 167 98 l 93 175 l 251 333 q 228 389 236 358 q 220 448 220 419 q 227 508 220 483 q 252 562 234 533 l 93 723 l 169 797 l 328 638 q 382 662 352 654 q 442 671 411 671 q 502 662 472 671 q 557 639 532 654 l 716 797 l 792 723 l 633 563 q 657 509 649 537 q 666 448 666 481 q 657 388 666 417 q 633 333 649 358 l 792 174 m 565 448 q 529 536 565 498 q 442 574 493 574 q 356 536 392 574 q 320 448 320 499 q 355 360 320 398 q 442 323 391 323 q 528 359 492 323 q 565 448 565 396 "},"Ĝ":{"x_min":78,"x_max":978,"ha":1077,"o":"m 978 74 q 797 8 895 36 q 607 -20 699 -20 q 391 12 489 -20 q 223 110 293 45 q 115 275 153 176 q 78 506 78 373 q 219 888 78 748 q 607 1029 360 1029 q 783 1008 693 1029 q 977 937 873 987 l 977 778 l 964 778 q 903 820 943 794 q 825 865 863 847 q 719 900 778 886 q 584 914 659 914 q 316 805 415 914 q 218 510 218 696 q 321 204 218 313 q 601 96 424 96 q 731 108 666 96 q 845 142 796 121 l 845 390 l 574 390 l 574 508 l 978 508 l 978 74 m 814 1133 l 706 1133 l 581 1307 l 456 1133 l 351 1133 l 505 1390 l 659 1390 l 814 1133 "},"p":{"x_min":125,"x_max":791.5625,"ha":865,"o":"m 791 387 q 765 218 791 294 q 690 89 738 142 q 584 11 645 38 q 456 -16 524 -16 q 349 -3 397 -16 q 252 37 301 9 l 252 -280 l 125 -280 l 125 758 l 252 758 l 252 678 q 366 749 302 721 q 501 778 429 778 q 715 674 638 778 q 791 387 791 571 m 660 384 q 613 589 660 521 q 469 657 566 657 q 358 633 414 657 q 252 570 302 609 l 252 141 q 345 107 306 116 q 433 99 384 99 q 600 170 540 99 q 660 384 660 242 "},"│":{"x_min":433,"x_max":552,"ha":985,"o":"m 433 -421 l 433 1265 l 552 1265 l 552 -421 l 433 -421 "},"Ю":{"x_min":136,"x_max":1359,"ha":1437,"o":"m 1219 504 q 1131 810 1219 705 q 896 915 1044 915 q 658 810 746 915 q 571 504 571 706 q 658 200 571 305 q 896 95 746 95 q 1131 200 1044 95 q 1219 504 1219 305 m 435 489 l 270 489 l 270 0 l 136 0 l 136 1010 l 270 1010 l 270 606 l 439 606 q 586 920 463 809 q 895 1031 709 1031 q 1235 890 1112 1031 q 1359 504 1359 750 q 1233 118 1359 257 q 894 -21 1108 -21 q 559 112 684 -21 q 435 489 435 245 "},"ր":{"x_min":0,"x_max":759,"ha":879,"o":"m 759 0 l 631 0 l 631 431 q 602 600 631 553 q 471 657 568 657 q 253 565 372 657 l 253 -177 l 378 -177 l 378 -280 l 0 -280 l 0 -177 l 126 -177 l 126 757 l 253 757 l 253 673 q 507 778 379 778 q 759 491 759 778 l 759 0 "},"ο":{"x_min":72,"x_max":771,"ha":843,"o":"m 771 378 q 676 86 771 193 q 421 -21 581 -21 q 166 86 261 -21 q 72 378 72 193 q 166 671 72 563 q 421 779 261 779 q 676 671 581 779 q 771 378 771 563 m 639 378 q 581 597 639 525 q 421 669 524 669 q 260 597 318 669 q 203 378 203 525 q 261 162 203 236 q 421 88 318 88 q 581 161 523 88 q 639 378 639 234 "},"S":{"x_min":91,"x_max":870,"ha":950,"o":"m 870 288 q 842 172 870 229 q 765 74 815 114 q 638 6 711 30 q 464 -18 566 -18 q 268 2 355 -18 q 91 62 181 22 l 91 231 l 100 231 q 277 132 177 167 q 466 98 377 98 q 660 144 590 98 q 730 269 730 191 q 697 368 730 336 q 597 418 664 400 q 486 440 546 431 q 361 463 427 449 q 161 560 226 491 q 97 740 97 629 q 204 947 97 866 q 476 1029 311 1029 q 671 1008 582 1029 q 829 958 760 988 l 829 800 l 819 800 q 667 880 761 848 q 475 913 574 913 q 302 868 367 913 q 237 752 237 823 q 269 653 237 689 q 384 599 302 618 q 507 575 427 589 q 643 548 587 562 q 812 457 755 518 q 870 288 870 397 "},"ễ":{"x_min":72,"x_max":760,"ha":828,"o":"m 760 365 l 202 365 q 222 243 202 295 q 279 158 243 191 q 363 109 315 125 q 470 93 412 93 q 626 124 548 93 q 738 185 704 155 l 745 185 l 745 45 q 613 0 680 18 q 472 -18 546 -18 q 177 84 283 -18 q 72 374 72 186 q 173 669 72 560 q 440 779 274 779 q 676 689 593 779 q 760 434 760 599 l 760 365 m 635 463 q 585 618 635 563 q 433 674 535 674 q 270 613 331 674 q 202 463 210 552 l 635 463 m 668 880 l 561 880 l 435 1053 l 310 880 l 206 880 l 360 1137 l 514 1137 l 668 880 m 679 1367 q 633 1224 679 1273 q 522 1176 587 1176 q 461 1189 486 1176 q 417 1220 436 1203 q 380 1250 400 1235 q 343 1266 360 1266 q 301 1245 313 1266 q 290 1176 290 1224 l 195 1176 q 241 1316 195 1267 q 352 1366 287 1366 q 414 1351 389 1366 q 458 1320 439 1337 q 493 1291 473 1307 q 531 1276 514 1276 q 572 1296 560 1276 q 585 1367 585 1317 l 679 1367 "},"/":{"x_min":-20.34375,"x_max":583.21875,"ha":631,"o":"m 583 1056 l 96 -206 l -20 -206 l 463 1056 l 583 1056 "},"Ọ":{"x_min":78,"x_max":1016,"ha":1093,"o":"m 888 894 q 983 728 950 826 q 1016 505 1016 630 q 982 281 1016 380 q 888 116 948 182 q 740 13 826 48 q 546 -21 655 -21 q 353 14 440 -21 q 204 116 265 49 q 110 281 143 184 q 78 505 78 379 q 110 726 78 628 q 205 894 143 824 q 353 996 265 961 q 546 1032 442 1032 q 741 996 655 1032 q 888 894 828 960 m 876 505 q 787 809 876 702 q 547 916 699 916 q 305 809 393 916 q 218 505 218 702 q 307 200 218 306 q 547 95 396 95 q 786 200 697 95 q 876 505 876 306 m 619 -259 l 475 -259 l 475 -127 l 619 -127 l 619 -259 "},"Ŧ":{"x_min":0,"x_max":856,"ha":856,"o":"m 361 502 l 135 502 l 135 599 l 361 599 l 361 891 l 0 891 l 0 1010 l 856 1010 l 856 891 l 495 891 l 495 599 l 720 599 l 720 502 l 495 502 l 495 0 l 361 0 l 361 502 "},"ђ":{"x_min":13,"x_max":759,"ha":879,"o":"m 629 335 q 629 377 629 351 q 629 431 629 402 q 622 529 629 486 q 599 600 616 573 q 551 644 581 630 q 474 658 521 658 q 362 631 420 658 q 253 566 304 605 l 253 0 l 126 0 l 126 860 l 13 860 l 13 951 l 126 951 l 126 1056 l 253 1056 l 253 951 l 471 951 l 471 860 l 253 860 l 253 674 q 378 751 312 723 q 511 779 444 779 q 695 703 631 779 q 759 492 759 628 q 759 424 759 460 q 759 336 759 387 q 759 259 759 297 q 759 182 759 221 q 730 -24 759 62 q 653 -165 701 -111 q 542 -246 605 -220 q 407 -273 479 -273 q 383 -273 391 -273 q 347 -273 375 -273 l 347 -165 l 393 -165 q 574 -81 519 -165 q 629 230 629 2 q 629 278 629 253 q 629 335 629 304 "},"y":{"x_min":41.375,"x_max":780.578125,"ha":822,"o":"m 780 758 l 338 -280 l 202 -280 l 343 36 l 41 758 l 179 758 l 412 195 l 646 758 l 780 758 "},"Π":{"x_min":136,"x_max":908,"ha":1044,"o":"m 908 0 l 774 0 l 774 891 l 270 891 l 270 0 l 136 0 l 136 1010 l 908 1010 l 908 0 "},"‗":{"x_min":-3,"x_max":885,"ha":882,"o":"m 885 -137 l -3 -137 l -3 -56 l 885 -56 l 885 -137 m 885 -287 l -3 -287 l -3 -206 l 885 -206 l 885 -287 "},"–":{"x_min":104,"x_max":779,"ha":883,"o":"m 779 388 l 104 388 l 104 497 l 779 497 l 779 388 "},"ë":{"x_min":72,"x_max":760,"ha":828,"o":"m 760 365 l 202 365 q 222 243 202 295 q 280 158 243 191 q 363 109 315 125 q 470 93 412 93 q 626 124 548 93 q 738 185 704 155 l 745 185 l 745 45 q 613 0 680 18 q 472 -18 546 -18 q 177 84 283 -18 q 72 374 72 186 q 173 669 72 560 q 440 779 274 779 q 676 689 593 779 q 760 434 760 599 l 760 365 m 635 463 q 585 618 635 563 q 433 674 535 674 q 270 613 331 674 q 202 463 210 552 l 635 463 m 645 885 l 510 885 l 510 1017 l 645 1017 l 645 885 m 365 885 l 230 885 l 230 1017 l 365 1017 l 365 885 "},"б":{"x_min":79,"x_max":779,"ha":854,"o":"m 682 646 q 754 531 730 598 q 779 372 779 463 q 677 91 779 203 q 426 -21 575 -21 q 291 3 353 -21 q 186 80 230 28 q 105 242 132 144 q 79 482 79 340 q 83 585 79 532 q 105 711 88 638 q 145 832 118 774 q 207 926 171 891 q 335 1006 255 976 q 546 1048 415 1036 q 646 1057 600 1057 q 729 1057 692 1057 l 729 940 q 640 940 684 940 q 553 931 596 940 q 396 903 466 924 q 293 849 326 882 q 239 755 257 813 q 216 645 221 697 q 328 707 267 682 q 457 732 388 732 q 580 710 521 732 q 682 646 639 689 m 649 365 q 588 552 649 490 q 428 615 527 615 q 314 596 369 615 q 211 546 260 577 q 211 506 211 529 q 211 465 211 484 q 230 273 211 347 q 286 157 250 200 q 353 105 317 120 q 432 90 390 90 q 591 163 534 90 q 649 365 649 237 "},"ƒ":{"x_min":-24,"x_max":869,"ha":884,"o":"m 869 897 l 862 897 q 803 912 842 903 q 737 921 765 921 q 612 880 655 921 q 545 731 569 840 l 517 600 l 735 600 l 735 506 l 498 506 l 428 173 q 377 23 408 83 q 303 -71 346 -36 q 207 -121 258 -107 q 93 -136 155 -136 q 38 -133 65 -136 q -24 -125 11 -131 l -24 -3 l -17 -3 q 37 -19 5 -12 q 98 -26 68 -26 q 228 17 184 -26 q 296 173 272 60 l 366 506 l 219 506 l 219 600 l 385 600 l 413 734 q 462 875 431 818 q 535 966 493 932 q 629 1016 577 1001 q 740 1031 681 1031 q 806 1027 780 1031 q 869 1018 833 1024 l 869 897 "},"у":{"x_min":41.375,"x_max":780.578125,"ha":822,"o":"m 780 758 l 338 -280 l 202 -280 l 343 36 l 41 758 l 179 758 l 412 195 l 646 758 l 780 758 "},"J":{"x_min":30,"x_max":506,"ha":631,"o":"m 506 262 q 424 57 506 129 q 207 -14 343 -14 q 120 -8 175 -14 q 30 5 66 -2 l 30 131 l 37 131 q 106 111 65 121 q 189 101 146 101 q 288 115 251 101 q 343 156 325 129 q 366 222 361 183 q 372 313 372 262 l 372 904 l 158 904 l 158 1011 l 506 1011 l 506 262 "},"ŷ":{"x_min":41.375,"x_max":780.578125,"ha":822,"o":"m 780 758 l 338 -280 l 202 -280 l 343 36 l 41 758 l 179 758 l 412 195 l 646 758 l 780 758 m 649 880 l 541 880 l 416 1053 l 291 880 l 186 880 l 341 1137 l 495 1137 l 649 880 "},"ŕ":{"x_min":125,"x_max":597.1875,"ha":592,"o":"m 597 619 l 590 619 q 535 628 561 625 q 471 632 508 632 q 357 605 412 632 q 252 538 302 579 l 252 0 l 125 0 l 125 758 l 252 758 l 252 646 q 385 732 327 707 q 504 758 443 758 q 552 756 537 758 q 597 749 567 754 l 597 619 m 516 1137 l 331 884 l 230 884 l 351 1137 l 516 1137 "},"ώ":{"x_min":77,"x_max":1053,"ha":1130,"o":"m 1053 341 q 1037 210 1053 276 q 986 94 1021 145 q 896 10 949 40 q 764 -20 842 -20 q 644 13 699 -20 q 565 93 590 47 l 560 93 q 484 13 534 46 q 365 -20 434 -20 q 233 11 288 -20 q 143 94 178 43 q 92 210 108 146 q 77 341 77 275 q 115 550 77 456 q 251 758 154 644 l 407 758 l 407 746 q 261 568 315 673 q 207 340 207 464 q 212 256 207 295 q 238 175 217 218 q 287 113 255 138 q 367 89 318 89 q 425 97 401 89 q 463 117 449 106 q 488 144 478 129 q 502 170 497 160 l 502 566 l 628 566 l 628 170 q 643 143 634 158 q 667 117 653 128 q 703 96 683 104 q 761 89 722 89 q 841 113 809 89 q 891 176 872 137 q 915 254 908 213 q 923 340 923 296 q 869 568 923 463 q 724 746 816 672 l 724 758 l 878 758 q 1014 550 975 644 q 1053 341 1053 456 m 647 1138 l 614 877 l 516 877 l 483 1138 l 647 1138 "},"˘":{"x_min":189,"x_max":692,"ha":883,"o":"m 692 1137 q 624 950 692 1023 q 440 878 556 878 q 256 950 324 878 q 189 1137 189 1023 l 298 1137 q 343 1006 306 1047 q 441 966 379 966 q 537 1006 501 966 q 583 1137 574 1047 l 692 1137 "},"D":{"x_min":136,"x_max":989,"ha":1070,"o":"m 989 504 q 928 254 989 366 q 769 80 868 142 q 615 19 700 38 q 390 0 529 0 l 136 0 l 136 1010 l 388 1010 q 623 988 536 1010 q 770 930 710 967 q 931 758 873 865 q 989 504 989 651 m 849 506 q 807 706 849 624 q 684 834 766 787 q 557 881 624 868 q 396 895 489 895 l 270 895 l 270 115 l 396 115 q 565 129 493 115 q 698 182 637 143 q 811 309 773 230 q 849 506 849 387 "},"₰":{"x_min":3.0625,"x_max":685,"ha":724,"o":"m 684 -119 q 623 -244 684 -199 q 473 -287 567 -287 q 343 -274 407 -287 l 343 -153 l 349 -153 q 456 -172 412 -172 q 552 -93 552 -172 q 547 -62 552 -77 l 458 257 q 297 -16 380 117 l 207 133 l 135 0 l 3 0 l 199 355 l 287 190 q 412 420 319 247 l 298 832 q 294 882 294 850 q 354 1018 294 970 q 500 1063 410 1063 q 685 881 685 1063 q 636 646 685 791 q 544 421 597 528 l 675 -63 q 684 -119 684 -96 m 563 860 q 500 948 563 948 q 423 867 423 948 q 426 831 423 843 l 492 601 q 563 860 563 767 "},"ł":{"x_min":16.6875,"x_max":384.75,"ha":396,"o":"m 384 604 l 262 505 l 262 0 l 134 0 l 134 412 l 16 316 l 16 424 l 134 518 l 134 1056 l 262 1056 l 262 611 l 384 711 l 384 604 "},"ĺ":{"x_min":116.15625,"x_max":402.84375,"ha":382,"o":"m 255 0 l 127 0 l 127 1056 l 255 1056 l 255 0 m 402 1390 l 217 1137 l 116 1137 l 237 1390 l 402 1390 "},"ц":{"x_min":125,"x_max":845,"ha":895,"o":"m 726 0 l 125 0 l 125 757 l 252 757 l 252 109 l 625 109 l 625 757 l 753 757 l 753 110 l 845 110 l 845 -182 l 726 -182 l 726 0 "},"Л":{"x_min":12.140625,"x_max":884,"ha":1020,"o":"m 884 1 l 750 1 l 750 892 l 377 892 q 377 741 377 815 q 377 610 377 667 q 364 371 377 464 q 330 217 351 277 q 285 120 310 156 q 227 54 259 83 q 158 11 193 24 q 75 -1 123 -1 q 40 -1 61 -1 q 12 -1 20 -1 l 12 130 l 21 130 q 38 129 28 129 q 58 129 48 129 q 105 136 83 129 q 141 158 126 143 q 218 317 189 207 q 247 633 247 428 q 247 809 247 699 q 247 1011 247 919 l 884 1011 l 884 1 "},"$":{"x_min":105.5,"x_max":787,"ha":883,"o":"m 787 257 q 705 82 787 152 q 490 0 623 13 l 490 -245 l 410 -245 l 410 -3 q 241 13 320 -3 q 105 57 163 30 l 105 192 l 116 192 q 162 164 128 182 q 226 134 195 146 q 309 109 261 121 q 410 98 356 98 l 410 391 q 359 401 382 396 q 316 412 336 407 q 158 497 206 440 q 110 637 110 554 q 188 808 110 738 q 410 879 267 879 l 410 1069 l 490 1069 l 490 885 q 630 870 558 885 q 751 835 702 855 l 751 702 l 741 702 q 635 758 690 733 q 490 784 580 784 l 490 495 q 534 486 510 491 q 575 476 557 480 q 731 402 676 455 q 787 257 787 349 m 410 506 l 410 785 q 287 750 337 785 q 238 653 238 715 q 274 559 238 591 q 410 506 311 528 m 659 239 q 619 333 659 303 q 490 379 579 362 l 490 98 q 615 140 571 106 q 659 239 659 173 "},"w":{"x_min":58.328125,"x_max":1078.296875,"ha":1137,"o":"m 1078 758 l 880 0 l 762 0 l 568 584 l 375 0 l 257 0 l 58 758 l 191 758 l 330 171 l 519 758 l 624 758 l 818 171 l 950 758 l 1078 758 "},"о":{"x_min":72,"x_max":771,"ha":843,"o":"m 771 378 q 676 86 771 193 q 421 -21 581 -21 q 166 86 261 -21 q 72 378 72 193 q 166 671 72 563 q 421 779 261 779 q 676 671 581 779 q 771 378 771 563 m 639 378 q 581 597 639 525 q 421 669 524 669 q 260 597 318 669 q 203 378 203 525 q 261 162 203 236 q 421 88 318 88 q 581 161 523 88 q 639 378 639 234 "},"Д":{"x_min":7,"x_max":975,"ha":1035,"o":"m 975 -229 l 848 -229 l 848 2 l 135 2 l 135 -229 l 7 -229 l 7 119 l 88 119 q 229 497 176 264 q 282 1010 282 731 l 880 1010 l 880 119 l 975 119 l 975 -229 m 746 119 l 746 893 l 403 893 q 350 449 403 650 q 218 119 298 248 l 746 119 "},"Ç":{"x_min":78,"x_max":916,"ha":970,"o":"m 916 73 q 848 43 878 57 q 769 13 818 29 q 753 8 761 11 q 731 3 744 5 q 734 -26 734 -9 q 734 -59 734 -44 q 670 -228 734 -170 q 508 -287 607 -287 q 442 -282 482 -287 q 371 -269 402 -277 l 371 -159 l 378 -159 q 426 -175 395 -165 q 491 -185 457 -185 q 595 -157 562 -185 q 629 -72 629 -130 q 629 -43 629 -59 q 626 -14 629 -28 q 599 -17 614 -17 q 572 -17 584 -17 q 372 13 462 -17 q 216 110 282 44 q 114 274 151 174 q 78 505 78 373 q 113 728 78 629 q 215 894 148 826 q 370 994 279 959 q 573 1029 462 1029 q 735 1009 654 1029 q 916 939 816 989 l 916 780 l 905 780 q 740 882 822 850 q 564 914 658 914 q 426 889 487 914 q 317 812 365 864 q 244 683 270 761 q 218 504 218 606 q 246 321 218 397 q 321 196 275 244 q 431 122 368 146 q 565 98 495 98 q 747 131 662 98 q 906 231 832 164 l 916 231 l 916 73 "},"Ŝ":{"x_min":91,"x_max":870,"ha":950,"o":"m 870 288 q 842 172 870 229 q 765 74 815 114 q 638 6 711 30 q 464 -18 566 -18 q 268 2 355 -18 q 91 62 181 22 l 91 231 l 100 231 q 277 132 177 167 q 466 98 377 98 q 660 144 590 98 q 730 269 730 191 q 697 368 730 336 q 597 418 664 400 q 486 440 546 431 q 361 463 427 449 q 161 560 226 491 q 97 740 97 629 q 204 947 97 866 q 476 1029 311 1029 q 671 1008 582 1029 q 829 958 760 988 l 829 800 l 819 800 q 667 880 761 848 q 475 913 574 913 q 302 868 367 913 q 237 752 237 823 q 269 653 237 689 q 384 599 302 618 q 507 575 427 589 q 643 548 587 562 q 812 457 755 518 q 870 288 870 397 m 723 1134 l 616 1134 l 490 1307 l 365 1134 l 260 1134 l 415 1390 l 569 1390 l 723 1134 "},"C":{"x_min":78,"x_max":916,"ha":970,"o":"m 916 73 q 848 43 878 57 q 769 13 818 28 q 679 -8 728 0 q 572 -18 631 -18 q 372 12 462 -18 q 216 109 282 43 q 114 273 151 174 q 78 504 78 372 q 113 727 78 629 q 215 893 148 826 q 370 994 279 959 q 573 1029 462 1029 q 735 1009 654 1029 q 916 939 816 989 l 916 781 l 905 781 q 740 882 822 850 q 564 914 658 914 q 426 889 487 914 q 317 812 365 864 q 244 683 270 761 q 218 504 218 606 q 246 321 218 397 q 321 196 275 244 q 432 122 368 146 q 565 98 495 98 q 747 131 663 98 q 906 231 832 164 l 916 231 l 916 73 "},"̉":{"x_min":-474.578125,"x_max":-262,"ha":0,"o":"m -262 1036 q -284 966 -262 993 q -351 926 -306 940 l -351 880 l -426 880 l -426 962 q -378 983 -394 970 q -362 1023 -362 996 q -374 1052 -362 1039 q -410 1066 -387 1066 q -443 1063 -431 1066 q -472 1054 -456 1060 l -474 1054 l -474 1124 q -436 1132 -461 1128 q -386 1137 -412 1137 q -296 1107 -331 1137 q -262 1036 -262 1078 "},"Ĵ":{"x_min":30,"x_max":573.125,"ha":631,"o":"m 506 262 q 424 57 506 129 q 207 -14 343 -14 q 120 -8 175 -14 q 30 5 66 -2 l 30 131 l 37 131 q 106 111 65 121 q 189 101 146 101 q 288 115 251 101 q 343 156 325 129 q 366 222 361 183 q 372 313 372 262 l 372 904 l 158 904 l 158 1011 l 506 1011 l 506 262 m 573 1133 l 465 1133 l 340 1307 l 215 1133 l 110 1133 l 264 1391 l 418 1391 l 573 1133 "},"Ẻ":{"x_min":136,"x_max":801.015625,"ha":878,"o":"m 801 0 l 136 0 l 136 1010 l 801 1010 l 801 891 l 270 891 l 270 614 l 801 614 l 801 495 l 270 495 l 270 119 l 801 119 l 801 0 m 592 1289 q 569 1219 592 1246 q 502 1179 547 1193 l 502 1133 l 427 1133 l 427 1215 q 475 1236 459 1223 q 492 1276 492 1249 q 479 1305 492 1292 q 443 1319 466 1319 q 410 1316 422 1319 q 381 1307 397 1313 l 379 1307 l 379 1377 q 417 1385 392 1381 q 467 1390 441 1390 q 557 1360 522 1390 q 592 1289 592 1331 "},"È":{"x_min":136,"x_max":801.015625,"ha":878,"o":"m 801 0 l 136 0 l 136 1010 l 801 1010 l 801 891 l 270 891 l 270 614 l 801 614 l 801 495 l 270 495 l 270 119 l 801 119 l 801 0 m 557 1137 l 456 1137 l 271 1390 l 436 1390 l 557 1137 "},"ﬁ":{"x_min":46.40625,"x_max":751,"ha":868,"o":"m 751 885 l 610 885 l 610 1017 l 751 1017 l 751 885 m 740 0 l 612 0 l 612 653 l 260 653 l 260 0 l 133 0 l 133 651 l 46 651 l 46 758 l 133 758 l 133 791 q 200 992 133 922 q 392 1062 268 1062 q 468 1058 434 1062 q 531 1049 503 1054 l 531 934 l 524 934 q 469 946 505 939 q 410 953 433 953 q 291 916 327 953 q 256 785 256 880 l 256 758 l 740 758 l 740 0 "},"X":{"x_min":46.109375,"x_max":906.03125,"ha":951,"o":"m 906 1010 l 557 510 l 905 0 l 750 0 l 474 415 l 192 0 l 46 0 l 398 504 l 54 1010 l 208 1010 l 480 599 l 758 1010 l 906 1010 "},"ô":{"x_min":72,"x_max":771,"ha":843,"o":"m 771 378 q 676 86 771 193 q 421 -21 581 -21 q 166 86 261 -21 q 72 378 72 193 q 166 671 72 563 q 421 779 261 779 q 676 671 581 779 q 771 378 771 563 m 639 378 q 581 597 639 525 q 421 669 524 669 q 260 597 318 669 q 203 378 203 525 q 261 162 203 236 q 421 88 318 88 q 581 161 523 88 q 639 378 639 234 m 653 880 l 545 880 l 419 1053 l 295 880 l 190 880 l 344 1137 l 498 1137 l 653 880 "},"‟":{"x_min":-12.890625,"x_max":538.46875,"ha":637,"o":"m 538 1055 l 426 676 l 261 676 l 444 1055 l 538 1055 m 264 1055 l 152 676 l -12 676 l 170 1055 l 264 1055 "},"ҝ":{"x_min":131,"x_max":809.234375,"ha":822,"o":"m 809 0 l 642 0 l 422 243 l 422 95 l 331 95 l 331 348 l 258 348 l 258 0 l 131 0 l 131 758 l 258 758 l 258 431 q 331 441 298 431 l 331 676 l 422 676 l 422 519 q 462 605 428 530 q 555 723 500 688 q 702 758 611 758 l 761 758 l 761 648 l 704 648 q 617 622 649 648 q 566 545 589 599 q 445 402 521 439 l 809 0 "},"Ė":{"x_min":136,"x_max":801.015625,"ha":878,"o":"m 801 0 l 136 0 l 136 1010 l 801 1010 l 801 891 l 270 891 l 270 614 l 801 614 l 801 495 l 270 495 l 270 119 l 801 119 l 801 0 m 567 1138 l 423 1138 l 423 1270 l 567 1270 l 567 1138 "},"г":{"x_min":125,"x_max":646.703125,"ha":653,"o":"m 646 646 l 252 646 l 252 0 l 125 0 l 125 758 l 646 758 l 646 646 "},"℠":{"x_min":74.15625,"x_max":1441,"ha":1566,"o":"m 1441 252 l 1315 252 l 1315 850 l 1126 461 l 1031 461 l 844 850 l 844 252 l 725 252 l 725 1010 l 878 1010 l 1084 585 l 1284 1010 l 1441 1010 l 1441 252 m 666 470 q 560 286 666 350 q 346 234 474 234 q 74 297 201 234 l 74 441 l 80 441 q 356 342 211 342 q 536 454 536 342 q 497 531 536 505 q 410 561 472 547 q 260 593 360 570 q 77 797 77 642 q 154 959 77 894 q 382 1029 237 1029 q 635 971 525 1029 l 635 835 l 628 835 q 373 921 513 921 q 264 899 308 921 q 207 814 207 872 q 328 704 207 733 q 480 673 379 695 q 666 470 666 630 "},"ấ":{"x_min":71,"x_max":860.8125,"ha":835,"o":"m 715 0 l 588 0 l 588 80 q 542 48 571 69 q 486 15 513 27 q 412 -10 454 0 q 315 -21 371 -21 q 142 47 213 -21 q 71 221 71 115 q 107 361 71 307 q 213 445 144 414 q 379 487 282 476 q 588 498 476 498 l 588 517 q 572 590 588 561 q 528 636 557 619 q 463 657 501 652 q 384 663 425 663 q 272 649 334 663 q 144 612 210 636 l 138 612 l 138 741 q 245 763 175 751 q 385 776 316 776 q 524 762 465 776 q 627 717 583 749 q 692 636 670 686 q 715 514 715 587 l 715 0 m 588 186 l 588 396 q 450 388 529 396 q 325 368 371 381 q 236 319 270 352 q 202 229 202 286 q 241 130 202 163 q 362 98 281 98 q 484 124 429 98 q 588 186 540 150 m 652 880 l 544 880 l 419 1053 l 294 880 l 188 880 l 343 1137 l 497 1137 l 652 880 m 860 1137 l 712 957 l 625 957 l 709 1137 l 860 1137 "},"Ŀ":{"x_min":136,"x_max":774.5625,"ha":773,"o":"m 774 0 l 136 0 l 136 1009 l 270 1009 l 270 119 l 774 119 l 774 0 m 669 352 l 511 352 l 511 533 l 669 533 l 669 352 "},"х":{"x_min":40.6875,"x_max":781.25,"ha":822,"o":"m 781 0 l 620 0 l 405 291 l 189 0 l 40 0 l 336 377 l 43 758 l 204 758 l 417 471 l 632 758 l 781 758 l 483 384 l 781 0 "},"ŋ":{"x_min":125,"x_max":759,"ha":879,"o":"m 626 -60 q 631 33 631 -24 l 631 431 q 624 530 631 484 q 602 601 618 575 q 553 644 585 630 q 470 658 521 658 q 361 632 418 658 q 252 566 304 606 l 252 0 l 125 0 l 125 758 l 252 758 l 252 674 q 375 751 311 723 q 506 779 439 779 q 694 705 629 779 q 759 491 759 631 l 759 -18 q 689 -217 759 -148 q 498 -287 620 -287 q 445 -284 471 -287 q 393 -278 418 -282 l 393 -164 l 400 -164 q 435 -170 415 -167 q 473 -174 456 -174 q 558 -161 525 -174 q 606 -122 590 -148 q 626 -60 621 -96 "},"Ỵ":{"x_min":4.03125,"x_max":850.609375,"ha":855,"o":"m 850 1011 l 495 443 l 495 0 l 361 0 l 361 429 l 4 1011 l 152 1011 l 428 558 l 707 1011 l 850 1011 m 500 -259 l 356 -259 l 356 -127 l 500 -127 l 500 -259 "},"Ч":{"x_min":96,"x_max":853,"ha":989,"o":"m 853 0 l 719 0 l 719 427 q 556 386 631 400 q 413 372 481 372 q 288 388 346 372 q 186 441 229 405 q 120 532 144 477 q 96 665 96 588 l 96 1010 l 230 1010 l 230 733 q 236 633 230 674 q 267 559 243 592 q 329 511 291 527 q 441 496 368 496 q 590 509 517 496 q 719 543 663 523 l 719 1010 l 853 1010 l 853 0 "},"ü":{"x_min":120,"x_max":754,"ha":879,"o":"m 754 0 l 626 0 l 626 83 q 502 6 561 33 q 372 -21 443 -21 q 186 51 252 -21 q 120 266 120 124 l 120 758 l 248 758 l 248 326 q 253 227 248 268 q 276 157 258 186 q 323 113 294 127 q 408 100 353 100 q 516 125 458 100 q 626 191 575 151 l 626 758 l 754 758 l 754 0 m 648 885 l 513 885 l 513 1017 l 648 1017 l 648 885 m 368 885 l 233 885 l 233 1017 l 368 1017 l 368 885 "},"ь":{"x_min":125,"x_max":730,"ha":792,"o":"m 598 233 q 586 293 598 267 q 547 336 574 319 q 482 356 518 353 q 378 360 446 360 l 252 360 l 252 102 l 375 102 q 480 107 443 102 q 545 129 518 113 q 585 171 573 147 q 598 233 598 195 m 730 234 q 707 135 730 179 q 647 62 685 90 q 552 14 603 28 q 421 0 501 0 l 125 0 l 125 758 l 252 758 l 252 463 l 424 463 q 557 454 510 463 q 651 410 604 445 q 710 336 690 381 q 730 234 730 290 "},"Җ":{"x_min":22.09375,"x_max":1332,"ha":1352,"o":"m 1332 -229 l 1204 -229 l 1204 0 l 1165 0 l 810 462 l 739 462 l 739 0 l 606 0 l 606 462 l 533 462 l 178 0 l 22 0 l 424 519 q 272 736 317 590 q 239 824 252 799 q 169 881 213 868 q 100 890 140 890 l 59 890 l 59 1010 l 107 1010 q 285 963 224 1010 q 382 806 342 919 q 420 702 394 771 q 606 556 477 568 l 606 1010 l 739 1010 l 739 559 q 930 701 873 559 q 953 761 944 734 l 968 806 q 1067 963 1008 917 q 1244 1010 1128 1010 l 1292 1010 l 1292 890 l 1251 890 q 1135 855 1172 890 q 1077 736 1107 829 q 922 527 1033 597 l 1238 118 l 1332 118 l 1332 -229 "},"Ÿ":{"x_min":4.296875,"x_max":850.625,"ha":855,"o":"m 850 1010 l 495 442 l 495 0 l 361 0 l 361 428 l 4 1010 l 152 1010 l 428 558 l 707 1010 l 850 1010 m 637 1138 l 502 1138 l 502 1270 l 637 1270 l 637 1138 m 357 1138 l 222 1138 l 222 1270 l 357 1270 l 357 1138 "},"€":{"x_min":0.328125,"x_max":832,"ha":884,"o":"m 832 42 q 695 -5 758 7 q 547 -18 633 -18 q 253 84 382 -18 q 91 363 124 186 l 0 363 l 30 443 l 81 443 q 79 473 79 457 q 79 504 79 489 q 79 539 79 522 q 81 574 79 557 l 0 574 l 30 654 l 93 654 q 258 928 132 828 q 549 1029 385 1029 q 710 1015 645 1029 q 832 970 775 1001 l 832 829 l 821 829 q 699 893 766 872 q 548 914 632 914 q 355 843 442 914 q 235 654 268 773 l 558 654 l 528 574 l 221 574 q 219 539 219 557 q 219 504 219 522 q 219 473 219 488 q 221 443 219 457 l 478 443 l 448 363 l 234 363 q 357 168 267 239 q 548 98 446 98 q 715 119 655 98 q 821 182 775 140 l 832 182 l 832 42 "},"в":{"x_min":125,"x_max":750,"ha":825,"o":"m 750 229 q 727 131 750 174 q 667 60 705 88 q 572 14 623 28 q 438 0 521 0 l 125 0 l 125 758 l 417 758 q 545 752 502 758 q 626 726 588 746 q 689 668 669 704 q 710 583 710 632 q 677 486 710 527 q 595 421 645 444 l 595 415 q 706 352 662 398 q 750 229 750 305 m 579 564 q 568 609 579 589 q 536 639 557 628 q 472 654 507 654 q 384 654 436 654 l 251 654 l 251 449 l 410 449 q 484 452 460 449 q 533 471 509 456 q 569 509 559 487 q 579 564 579 531 m 618 229 q 606 291 618 267 q 552 334 594 314 q 497 347 526 347 q 414 347 467 347 l 251 347 l 251 102 l 371 102 q 488 107 447 102 q 559 129 529 112 q 603 171 589 146 q 618 229 618 195 "},"Η":{"x_min":136,"x_max":908,"ha":1044,"o":"m 908 0 l 774 0 l 774 495 l 270 495 l 270 0 l 136 0 l 136 1010 l 270 1010 l 270 614 l 774 614 l 774 1010 l 908 1010 l 908 0 "},"С":{"x_min":78,"x_max":916,"ha":970,"o":"m 916 73 q 848 43 878 57 q 769 13 818 28 q 679 -8 728 0 q 572 -18 631 -18 q 372 12 462 -18 q 216 109 282 43 q 114 273 151 174 q 78 504 78 372 q 113 727 78 629 q 215 893 148 826 q 370 994 279 959 q 573 1029 462 1029 q 735 1009 654 1029 q 916 939 816 989 l 916 781 l 905 781 q 740 882 822 850 q 564 914 658 914 q 426 889 487 914 q 317 812 365 864 q 244 683 270 761 q 218 504 218 606 q 246 321 218 397 q 321 196 275 244 q 432 122 368 146 q 565 98 495 98 q 747 131 663 98 q 906 231 832 164 l 916 231 l 916 73 "},"ß":{"x_min":125,"x_max":789,"ha":860,"o":"m 789 326 q 697 82 789 181 q 457 -16 605 -16 q 388 -10 427 -16 q 325 2 349 -5 l 325 115 l 331 115 q 393 92 360 98 q 465 86 427 86 q 552 105 515 86 q 612 158 589 125 q 646 237 636 193 q 657 331 657 280 q 585 501 657 444 q 380 559 514 559 l 380 661 q 538 701 486 661 q 591 829 591 741 q 583 875 591 853 q 555 919 576 898 q 507 951 537 939 q 436 963 477 963 q 366 953 397 963 q 307 916 334 943 q 267 847 282 892 q 252 737 252 802 l 252 0 l 125 0 l 125 733 q 149 879 125 817 q 217 983 173 941 q 318 1042 257 1022 q 443 1063 379 1063 q 644 1003 567 1063 q 722 842 722 944 q 674 705 722 766 q 550 623 626 645 l 550 617 q 724 516 660 592 q 789 326 789 441 "},"└":{"x_min":433,"x_max":1000.265625,"ha":985,"o":"m 433 362 l 433 1264 l 552 1264 l 552 481 l 1000 481 l 1000 362 l 433 362 "},"њ":{"x_min":125,"x_max":1206.5625,"ha":1269,"o":"m 1075 233 q 1063 293 1075 267 q 1024 336 1051 319 q 959 356 995 353 q 855 360 923 360 l 736 360 l 736 102 l 852 102 q 957 107 920 102 q 1022 129 994 113 q 1062 171 1049 147 q 1075 233 1075 195 m 1206 234 q 1184 135 1206 179 q 1124 62 1162 90 q 1029 14 1079 28 q 898 0 978 0 l 609 0 l 609 358 l 252 358 l 252 0 l 125 0 l 125 758 l 252 758 l 252 463 l 609 463 l 609 758 l 736 758 l 736 463 l 901 463 q 1033 454 986 463 q 1127 410 1081 445 q 1186 336 1167 381 q 1206 234 1206 290 "},"Ể":{"x_min":136,"x_max":905,"ha":879,"o":"m 801 0 l 136 0 l 136 1010 l 801 1010 l 801 891 l 270 891 l 270 614 l 801 614 l 801 495 l 270 495 l 270 119 l 801 119 l 801 0 m 699 1113 l 591 1113 l 465 1252 l 341 1113 l 236 1113 l 390 1335 l 544 1335 l 699 1113 m 905 1289 q 882 1219 905 1246 q 816 1179 860 1193 l 816 1133 l 741 1133 l 741 1215 q 788 1236 772 1223 q 805 1276 805 1249 q 792 1305 805 1292 q 756 1319 779 1319 q 723 1316 735 1319 q 694 1307 710 1313 l 692 1307 l 692 1377 q 730 1385 705 1381 q 780 1390 754 1390 q 870 1360 835 1390 q 905 1289 905 1331 "},"ẳ":{"x_min":71,"x_max":715,"ha":835,"o":"m 715 0 l 588 0 l 588 81 q 542 48 570 69 q 485 15 513 28 q 412 -10 453 0 q 315 -21 371 -21 q 142 47 213 -21 q 71 221 71 115 q 107 361 71 307 q 213 445 144 414 q 379 487 282 476 q 588 498 476 498 l 588 517 q 572 590 588 561 q 528 636 557 619 q 463 657 501 652 q 384 663 425 663 q 272 649 334 663 q 144 612 210 636 l 138 612 l 138 741 q 245 763 175 751 q 385 776 316 776 q 524 762 465 776 q 627 717 583 749 q 692 637 670 686 q 715 514 715 587 l 715 0 m 588 186 l 588 396 q 450 388 529 396 q 325 368 371 381 q 236 319 270 352 q 202 229 202 286 q 241 130 202 163 q 362 98 281 98 q 484 124 429 98 q 588 186 540 150 m 644 1090 q 583 915 644 979 q 420 852 523 852 q 257 915 317 852 q 197 1090 197 979 l 307 1090 q 335 971 307 1005 q 420 938 364 938 q 505 971 476 938 q 534 1090 534 1005 l 644 1090 m 522 1152 q 503 1093 522 1116 q 447 1058 484 1071 l 447 1020 l 385 1020 l 385 1089 q 425 1107 411 1096 q 439 1140 439 1118 q 427 1167 439 1157 q 398 1177 415 1177 q 369 1174 379 1177 q 346 1167 359 1171 l 344 1167 l 344 1226 q 375 1233 355 1230 q 418 1237 396 1237 q 492 1213 463 1237 q 522 1152 522 1190 "},"Ű":{"x_min":121,"x_max":896,"ha":1017,"o":"m 896 405 q 871 214 896 295 q 792 78 847 132 q 670 2 740 26 q 508 -21 601 -21 q 342 4 413 -21 q 224 78 272 29 q 145 212 169 133 q 121 405 121 291 l 121 1010 l 255 1010 l 255 398 q 266 269 255 316 q 303 182 277 221 q 384 116 333 138 q 508 94 436 94 q 631 116 580 94 q 713 182 682 138 q 750 271 739 221 q 762 395 762 321 l 762 1010 l 896 1010 l 896 405 m 856 1390 l 681 1137 l 587 1137 l 702 1390 l 856 1390 m 582 1390 l 407 1137 l 313 1137 l 428 1390 l 582 1390 "},"c":{"x_min":71,"x_max":685,"ha":723,"o":"m 685 47 q 564 0 621 17 q 442 -17 506 -17 q 291 7 360 -17 q 174 80 223 31 q 98 203 125 128 q 71 378 71 278 q 173 670 71 564 q 442 776 275 776 q 570 757 507 776 q 685 712 632 739 l 685 571 l 678 571 q 557 640 619 616 q 436 665 495 665 q 265 592 328 665 q 203 378 203 519 q 264 167 203 241 q 436 94 325 94 q 515 104 475 94 q 587 130 555 114 q 639 160 615 144 q 678 188 663 176 l 685 188 l 685 47 "},"¶":{"x_min":93.390625,"x_max":750,"ha":883,"o":"m 750 -246 l 650 -246 l 650 922 l 505 922 l 505 -246 l 404 -246 l 404 403 q 178 487 264 403 q 93 711 93 572 q 181 931 93 852 q 434 1010 269 1010 l 750 1010 l 750 -246 "},"Ή":{"x_min":-0.421875,"x_max":1072,"ha":1208,"o":"m 1072 0 l 938 0 l 938 495 l 434 495 l 434 0 l 300 0 l 300 1010 l 434 1010 l 434 614 l 938 614 l 938 1010 l 1072 1010 l 1072 0 m 164 1011 l 131 750 l 32 750 l 0 1011 l 164 1011 "},"Ụ":{"x_min":121,"x_max":896,"ha":1017,"o":"m 896 406 q 871 214 896 296 q 792 78 847 132 q 670 2 740 26 q 508 -21 601 -21 q 342 4 413 -21 q 224 78 272 29 q 145 212 169 133 q 121 406 121 291 l 121 1011 l 255 1011 l 255 398 q 266 269 255 316 q 303 182 277 221 q 384 116 333 138 q 508 94 436 94 q 631 116 580 94 q 713 182 682 138 q 750 271 739 221 q 762 395 762 321 l 762 1011 l 896 1011 l 896 406 m 573 -259 l 429 -259 l 429 -127 l 573 -127 l 573 -259 "},"γ":{"x_min":41.21875,"x_max":780.921875,"ha":822,"o":"m 780 758 l 471 37 l 471 -280 l 343 -280 l 343 37 l 41 758 l 179 758 l 412 195 l 647 758 l 780 758 "},"­":{"x_min":104,"x_max":527,"ha":631,"o":"m 527 381 l 104 381 l 104 504 l 527 504 l 527 381 "},":":{"x_min":235,"x_max":397,"ha":631,"o":"m 397 565 l 235 565 l 235 758 l 397 758 l 397 565 m 397 0 l 235 0 l 235 193 l 397 193 l 397 0 "},"Ѝ":{"x_min":136,"x_max":907,"ha":1043,"o":"m 907 0 l 773 0 l 773 809 l 272 0 l 136 0 l 136 1010 l 270 1010 l 270 212 l 764 1010 l 907 1010 l 907 0 m 618 1137 l 517 1137 l 332 1390 l 497 1390 l 618 1137 "},"₫":{"x_min":73,"x_max":864,"ha":865,"o":"m 864 861 l 739 861 l 739 0 l 612 0 l 612 79 q 501 6 560 34 q 368 -21 442 -21 q 153 81 233 -21 q 73 369 73 184 q 100 540 73 465 q 174 666 128 614 q 282 745 220 718 q 409 772 344 772 q 515 759 469 772 q 612 721 560 747 l 612 861 l 366 861 l 366 952 l 612 952 l 612 1056 l 739 1056 l 739 952 l 864 952 l 864 861 m 612 186 l 612 616 q 519 647 558 639 q 431 656 480 656 q 264 583 325 656 q 204 371 204 510 q 250 169 204 239 q 398 100 296 100 q 508 124 452 100 q 612 186 564 148 m 722 -219 l 150 -219 l 150 -128 l 722 -128 l 722 -219 "},"ś":{"x_min":74.15625,"x_max":666,"ha":723,"o":"m 666 218 q 580 48 666 114 q 346 -18 494 -18 q 191 2 261 -18 q 74 45 121 22 l 74 189 l 80 189 q 214 116 140 143 q 356 90 288 90 q 488 117 440 90 q 536 202 536 144 q 510 270 536 247 q 410 309 484 293 q 339 323 383 315 q 260 341 296 332 q 118 419 160 368 q 77 545 77 470 q 96 633 77 592 q 154 707 115 675 q 251 758 192 739 q 382 777 310 777 q 520 760 450 777 q 635 719 589 743 l 635 583 l 628 583 q 510 644 580 619 q 373 669 440 669 q 255 642 303 669 q 207 562 207 615 q 236 491 207 515 q 328 452 264 467 q 407 436 364 444 q 480 421 451 428 q 617 351 569 401 q 666 218 666 301 m 579 1138 l 393 884 l 292 884 l 414 1138 l 579 1138 "}," ":{"x_min":0,"x_max":0,"ha":488},"У":{"x_min":4.078125,"x_max":850.4375,"ha":855,"o":"m 850 1010 l 466 160 q 412 75 443 108 q 343 23 380 42 q 275 3 308 8 q 212 -2 242 -2 q 146 -2 185 -2 q 97 -2 107 -2 l 97 126 l 106 126 q 140 122 116 125 q 194 119 164 119 q 232 121 208 119 q 276 130 257 123 q 319 156 297 138 q 355 207 340 173 l 379 261 l 4 1009 l 152 1009 l 447 414 l 712 1010 l 850 1010 "},"ү":{"x_min":41.21875,"x_max":780.921875,"ha":822,"o":"m 780 758 l 471 37 l 471 -280 l 343 -280 l 343 37 l 41 758 l 179 758 l 412 195 l 647 758 l 780 758 "},"¾":{"x_min":94.796875,"x_max":1298,"ha":1390,"o":"m 538 560 q 517 474 538 512 q 464 413 497 436 q 386 377 428 388 q 291 367 345 367 q 187 377 235 367 q 94 406 138 387 l 94 525 l 106 525 q 183 481 131 501 q 289 461 236 461 q 383 485 346 461 q 421 559 421 510 q 387 635 421 615 q 292 656 354 656 l 197 656 l 197 750 l 281 750 q 373 775 341 750 q 405 846 405 801 q 377 910 405 886 q 290 935 349 935 q 193 913 245 935 q 116 869 141 892 l 105 869 l 105 987 q 199 1017 148 1005 q 303 1029 250 1029 q 464 981 406 1029 q 522 867 522 934 q 489 770 522 808 q 405 714 456 732 l 405 709 q 498 661 458 698 q 538 560 538 624 m 1017 1009 l 488 0 l 377 0 l 905 1009 l 1017 1009 m 1298 149 l 1187 149 l 1187 0 l 1085 0 l 1085 149 l 769 149 l 769 274 l 1085 641 l 1187 641 l 1187 239 l 1298 239 l 1298 149 m 1088 239 l 1088 511 l 848 239 l 1088 239 "},"Ί":{"x_min":0.296875,"x_max":657,"ha":750,"o":"m 657 0 l 258 0 l 258 103 l 390 103 l 390 907 l 258 907 l 258 1010 l 657 1010 l 657 907 l 524 907 l 524 103 l 657 103 l 657 0 m 165 1011 l 131 750 l 33 750 l 0 1011 l 165 1011 "},"ŉ":{"x_min":-0.09375,"x_max":894,"ha":1014,"o":"m 894 0 l 767 0 l 767 431 q 760 529 767 484 q 738 601 754 575 q 689 644 721 630 q 607 658 657 658 q 498 632 554 658 q 389 566 441 606 l 389 0 l 261 0 l 261 758 l 389 758 l 389 674 q 512 751 448 723 q 642 779 575 779 q 829 705 765 779 q 894 491 894 631 l 894 0 m 277 1055 l 93 677 l 0 677 l 111 1055 l 277 1055 "},"₳":{"x_min":18,"x_max":932,"ha":950,"o":"m 932 0 l 788 0 l 689 282 l 253 282 l 154 0 l 18 0 l 120 282 l 18 282 l 18 397 l 162 397 l 204 513 l 18 513 l 18 628 l 246 628 l 385 1010 l 564 1010 l 703 628 l 932 628 l 932 513 l 745 513 l 787 397 l 932 397 l 932 282 l 829 282 l 932 0 m 566 628 l 471 893 l 376 628 l 566 628 m 648 397 l 607 513 l 335 513 l 293 397 l 648 397 "},"Ģ":{"x_min":78,"x_max":978,"ha":1077,"o":"m 608 -72 q 608 -43 608 -58 q 605 -19 608 -29 q 390 13 488 -19 q 223 110 293 45 q 115 275 153 176 q 78 506 78 374 q 219 888 78 748 q 607 1029 360 1029 q 783 1008 693 1029 q 977 937 873 987 l 977 778 l 964 778 q 903 820 943 794 q 825 865 863 847 q 719 900 778 886 q 584 914 659 914 q 316 805 415 914 q 218 510 218 696 q 321 204 218 313 q 601 96 424 96 q 731 108 666 96 q 845 142 796 121 l 845 390 l 574 390 l 574 508 l 978 508 l 978 74 q 845 22 916 46 q 711 -10 773 0 q 711 -32 711 -20 q 711 -60 711 -45 q 649 -228 711 -170 q 488 -287 587 -287 q 424 -282 463 -287 q 355 -269 385 -277 l 355 -161 l 361 -161 q 408 -176 378 -167 q 471 -185 438 -185 q 574 -158 541 -185 q 608 -72 608 -132 "},"m":{"x_min":125,"x_max":1231,"ha":1351,"o":"m 1231 0 l 1103 0 l 1103 431 q 1098 526 1103 480 q 1079 598 1094 571 q 1035 643 1064 628 q 951 658 1005 658 q 843 631 897 658 q 736 562 790 604 q 740 526 740 547 q 740 485 740 505 l 740 0 l 614 0 l 614 431 q 609 527 614 482 q 590 599 605 572 q 546 643 575 628 q 461 658 516 658 q 356 632 409 658 q 252 566 304 606 l 252 0 l 125 0 l 125 758 l 252 758 l 252 674 q 371 751 311 723 q 497 779 430 779 q 629 746 575 779 q 709 656 683 714 q 850 750 786 721 q 987 779 914 779 q 1171 703 1112 779 q 1231 492 1231 627 l 1231 0 "},"Ị":{"x_min":93,"x_max":492,"ha":585,"o":"m 492 0 l 93 0 l 93 103 l 225 103 l 225 908 l 93 908 l 93 1011 l 492 1011 l 492 908 l 359 908 l 359 103 l 492 103 l 492 0 m 364 -259 l 220 -259 l 220 -127 l 364 -127 l 364 -259 "},"Е":{"x_min":136,"x_max":801.015625,"ha":878,"o":"m 801 0 l 136 0 l 136 1010 l 801 1010 l 801 891 l 270 891 l 270 614 l 801 614 l 801 495 l 270 495 l 270 119 l 801 119 l 801 0 "},"ž":{"x_min":63,"x_max":675,"ha":730,"o":"m 675 0 l 63 0 l 63 94 l 504 651 l 72 651 l 72 758 l 663 758 l 663 666 l 219 108 l 675 108 l 675 0 m 597 1137 l 442 880 l 288 880 l 133 1137 l 241 1137 l 367 963 l 492 1137 l 597 1137 "},"⁵":{"x_min":156,"x_max":600,"ha":753,"o":"m 600 587 q 583 499 600 540 q 534 429 566 458 q 455 383 501 400 q 350 366 409 366 q 247 375 297 366 q 156 402 196 384 l 156 511 l 166 511 q 241 478 191 497 q 343 460 290 460 q 401 467 373 460 q 447 494 428 475 q 475 537 467 514 q 483 586 483 559 q 472 634 483 614 q 442 667 462 653 q 391 687 422 681 q 325 693 361 693 q 249 688 285 693 q 187 679 212 683 l 187 1016 l 591 1016 l 591 922 l 293 922 l 293 780 q 323 783 306 783 q 349 783 339 783 q 446 775 406 783 q 521 744 486 767 q 579 682 559 720 q 600 587 600 644 "},"ớ":{"x_min":72,"x_max":827,"ha":843,"o":"m 771 378 q 676 86 771 193 q 421 -21 581 -21 q 166 86 261 -21 q 72 378 72 193 q 166 671 72 563 q 421 779 261 779 q 488 773 456 779 q 550 758 521 768 l 613 758 q 699 780 674 758 q 725 850 725 802 q 717 905 725 874 q 702 951 710 936 l 702 958 l 810 958 q 823 902 819 926 q 827 844 827 878 q 787 729 827 772 q 675 672 748 686 q 746 546 722 620 q 771 378 771 472 m 639 378 q 581 597 639 525 q 421 669 524 669 q 260 597 318 669 q 203 378 203 525 q 261 162 203 236 q 421 88 318 88 q 581 161 523 88 q 639 378 639 234 m 632 1137 l 447 884 l 346 884 l 467 1137 l 632 1137 "},"á":{"x_min":71,"x_max":715,"ha":835,"o":"m 715 0 l 588 0 l 588 81 q 542 48 571 69 q 486 15 513 28 q 412 -10 454 0 q 315 -21 371 -21 q 142 47 213 -21 q 71 221 71 115 q 107 361 71 307 q 213 445 144 414 q 379 487 282 476 q 588 498 476 498 l 588 517 q 572 590 588 561 q 528 636 557 619 q 463 657 501 652 q 384 663 425 663 q 272 649 334 663 q 144 612 210 636 l 138 612 l 138 741 q 245 763 175 751 q 385 776 316 776 q 524 762 465 776 q 627 717 583 749 q 692 637 670 686 q 715 514 715 587 l 715 0 m 588 186 l 588 396 q 450 388 529 396 q 325 368 371 381 q 236 319 270 352 q 202 229 202 286 q 241 130 202 163 q 362 98 281 98 q 484 124 429 98 q 588 186 540 150 m 634 1137 l 448 884 l 347 884 l 469 1137 l 634 1137 "},"×":{"x_min":197.34375,"x_max":939.265625,"ha":1137,"o":"m 939 146 l 863 71 l 568 369 l 272 71 l 197 146 l 495 442 l 197 738 l 272 813 l 568 515 l 863 813 l 939 738 l 640 442 l 939 146 "},"п":{"x_min":125,"x_max":759,"ha":884,"o":"m 759 0 l 631 0 l 631 648 l 252 648 l 252 0 l 125 0 l 125 757 l 759 757 l 759 0 "},"Ǻ":{"x_min":18.078125,"x_max":932.578125,"ha":950,"o":"m 932 0 l 789 0 l 689 282 l 254 282 l 154 0 l 18 0 l 360 927 q 307 983 326 948 q 288 1060 288 1017 q 342 1184 288 1135 q 475 1233 397 1233 q 607 1184 553 1233 q 662 1060 662 1135 q 642 983 662 1017 q 590 927 623 948 l 932 0 m 562 1061 q 537 1123 562 1097 q 475 1149 513 1149 q 412 1123 436 1149 q 388 1061 388 1098 q 412 996 388 1022 q 475 971 437 971 q 537 996 513 971 q 562 1061 562 1022 m 647 397 l 471 882 l 296 397 l 647 397 m 663 1390 l 498 1251 l 397 1251 l 498 1390 l 663 1390 "},"K":{"x_min":139,"x_max":947.109375,"ha":962,"o":"m 947 0 l 772 0 l 373 449 l 273 342 l 273 0 l 139 0 l 139 1010 l 273 1010 l 273 482 l 763 1010 l 926 1010 l 475 535 l 947 0 "},"7":{"x_min":104,"x_max":795,"ha":882,"o":"m 795 859 l 337 0 l 192 0 l 679 892 l 104 892 l 104 1011 l 795 1011 l 795 859 "},"¨":{"x_min":235,"x_max":650,"ha":883,"o":"m 650 885 l 515 885 l 515 1017 l 650 1017 l 650 885 m 370 885 l 235 885 l 235 1017 l 370 1017 l 370 885 "},"Y":{"x_min":4.28125,"x_max":850.359375,"ha":854,"o":"m 850 1010 l 495 442 l 495 0 l 361 0 l 361 428 l 4 1010 l 152 1010 l 428 558 l 707 1010 l 850 1010 "},"E":{"x_min":136,"x_max":801.015625,"ha":878,"o":"m 801 0 l 136 0 l 136 1010 l 801 1010 l 801 891 l 270 891 l 270 614 l 801 614 l 801 495 l 270 495 l 270 119 l 801 119 l 801 0 "},"Ô":{"x_min":78,"x_max":1016,"ha":1093,"o":"m 888 893 q 983 727 950 826 q 1016 504 1016 629 q 982 281 1016 379 q 888 116 948 182 q 740 13 826 48 q 546 -21 655 -21 q 353 14 440 -21 q 204 116 265 49 q 110 281 143 183 q 78 504 78 379 q 110 726 78 628 q 205 893 143 824 q 353 995 265 960 q 546 1031 442 1031 q 741 995 655 1031 q 888 893 828 959 m 876 504 q 787 808 876 701 q 547 915 699 915 q 305 808 393 915 q 218 504 218 701 q 307 200 218 305 q 547 95 396 95 q 786 200 697 95 q 876 504 876 305 m 770 1133 l 662 1133 l 537 1306 l 412 1133 l 307 1133 l 461 1389 l 615 1389 l 770 1133 "},"ổ":{"x_min":72,"x_max":805,"ha":844,"o":"m 771 378 q 676 86 771 193 q 421 -21 581 -21 q 166 86 261 -21 q 72 378 72 193 q 166 671 72 563 q 421 779 261 779 q 676 671 581 779 q 771 378 771 563 m 639 378 q 581 597 639 525 q 421 669 524 669 q 260 597 318 669 q 203 378 203 525 q 261 162 203 236 q 421 88 318 88 q 581 161 523 88 q 639 378 639 234 m 653 880 l 545 880 l 420 1054 l 295 880 l 190 880 l 344 1137 l 498 1137 l 653 880 m 805 1171 q 782 1101 805 1128 q 715 1060 759 1075 l 715 1015 l 640 1015 l 640 1096 q 688 1118 672 1104 q 705 1158 705 1131 q 692 1187 705 1174 q 656 1201 679 1201 q 623 1197 635 1201 q 594 1188 610 1194 l 592 1188 l 592 1259 q 630 1267 605 1263 q 680 1272 654 1272 q 770 1242 735 1272 q 805 1171 805 1213 "},"Є":{"x_min":78,"x_max":907,"ha":973,"o":"m 907 44 q 759 0 839 17 q 581 -18 679 -18 q 373 17 466 -18 q 215 119 280 52 q 113 284 149 186 q 78 506 78 382 q 113 722 78 625 q 215 889 149 820 q 373 992 280 955 q 580 1029 466 1029 q 759 1011 675 1029 q 907 967 842 993 l 907 816 l 896 816 q 758 887 843 859 q 578 915 674 915 q 445 895 504 915 q 338 835 386 875 q 260 736 290 795 q 220 601 230 678 l 776 601 l 776 484 l 214 484 q 243 315 214 389 q 321 194 273 242 q 438 120 372 145 q 580 96 504 96 q 758 121 674 96 q 896 192 841 146 l 907 192 l 907 44 "},"Ï":{"x_min":85,"x_max":500,"ha":584,"o":"m 491 0 l 92 0 l 92 103 l 225 103 l 225 907 l 92 907 l 92 1010 l 491 1010 l 491 907 l 359 907 l 359 103 l 491 103 l 491 0 m 500 1138 l 365 1138 l 365 1270 l 500 1270 l 500 1138 m 220 1138 l 85 1138 l 85 1270 l 220 1270 l 220 1138 "},"ġ":{"x_min":73,"x_max":739,"ha":864,"o":"m 739 86 q 651 -196 739 -106 q 382 -287 564 -287 q 264 -278 322 -287 q 152 -254 207 -270 l 152 -124 l 158 -124 q 258 -154 190 -136 q 393 -172 326 -172 q 501 -156 459 -172 q 568 -113 544 -140 q 602 -49 592 -86 q 612 34 612 -11 l 612 103 q 502 34 554 57 q 368 12 449 12 q 152 109 232 12 q 73 386 73 207 q 100 554 73 483 q 175 676 127 625 q 282 752 219 725 q 408 779 345 779 q 518 765 474 779 q 612 725 562 752 l 620 758 l 739 758 l 739 86 m 612 208 l 612 621 q 517 654 561 644 q 430 664 473 664 q 264 593 325 664 q 204 388 204 523 q 249 195 204 261 q 397 130 294 130 q 509 151 453 130 q 612 208 565 172 m 506 885 l 362 885 l 362 1017 l 506 1017 l 506 885 "},"Ẳ":{"x_min":17.375,"x_max":931.640625,"ha":949,"o":"m 931 0 l 788 0 l 689 282 l 252 282 l 153 0 l 17 0 l 385 1010 l 564 1010 l 931 0 m 648 397 l 471 893 l 293 397 l 648 397 m 697 1254 q 639 1142 697 1194 q 473 1091 581 1091 q 308 1142 366 1091 q 250 1254 250 1194 l 360 1254 q 385 1191 360 1221 q 473 1162 410 1162 q 560 1192 534 1162 q 587 1254 587 1222 l 697 1254 m 556 1320 q 540 1271 556 1290 q 493 1242 524 1252 l 493 1210 l 441 1210 l 441 1267 q 475 1283 464 1273 q 486 1310 486 1294 q 476 1333 486 1326 q 452 1341 467 1341 q 426 1338 435 1341 q 408 1332 418 1335 l 407 1332 l 407 1382 q 433 1388 416 1385 q 469 1391 450 1391 q 530 1371 505 1391 q 556 1320 556 1352 "},"ứ":{"x_min":120,"x_max":980,"ha":916,"o":"m 754 0 l 626 0 l 626 83 q 502 5 561 32 q 372 -21 443 -21 q 186 51 252 -21 q 120 266 120 124 l 120 758 l 248 758 l 248 326 q 253 227 248 268 q 276 157 258 186 q 323 113 294 127 q 408 100 353 100 q 516 125 458 100 q 626 191 575 151 l 626 758 l 767 758 q 853 780 828 758 q 878 850 878 802 q 870 905 878 874 q 855 952 863 936 l 855 958 l 963 958 q 976 902 972 926 q 980 844 980 878 q 921 710 980 755 q 755 666 863 666 l 754 666 l 754 0 m 640 1137 l 455 884 l 355 884 l 476 1137 l 640 1137 "},"έ":{"x_min":74,"x_max":682.109375,"ha":712,"o":"m 682 43 q 539 -3 609 10 q 391 -18 469 -18 q 282 -7 338 -18 q 179 30 227 3 q 103 100 132 57 q 74 207 74 143 q 112 320 74 272 q 233 395 150 369 l 233 400 q 134 461 170 416 q 98 568 98 506 q 130 669 98 629 q 206 732 162 708 q 304 765 249 754 q 413 776 359 776 q 535 764 479 776 q 651 734 590 753 l 651 594 l 643 594 q 532 647 598 628 q 398 667 466 667 q 341 663 367 667 q 286 645 315 659 q 245 612 262 635 q 228 559 228 589 q 247 494 228 517 q 298 460 266 470 q 364 451 329 451 q 435 451 399 451 l 511 451 l 511 338 l 403 338 q 327 334 361 338 q 265 320 293 331 q 220 283 237 308 q 204 218 204 258 q 221 157 204 182 q 267 118 239 132 q 326 98 292 105 q 398 91 360 91 q 546 116 468 91 q 673 183 625 140 l 682 183 l 682 43 m 489 1137 l 456 876 l 357 876 l 324 1137 l 489 1137 "},"Ấ":{"x_min":17.625,"x_max":931.796875,"ha":949,"o":"m 931 0 l 788 0 l 689 282 l 252 282 l 153 0 l 17 0 l 385 1010 l 564 1010 l 931 0 m 648 397 l 471 893 l 293 397 l 648 397 m 705 1120 l 597 1120 l 472 1293 l 347 1120 l 242 1120 l 396 1376 l 550 1376 l 705 1120 m 913 1377 l 765 1196 l 678 1196 l 762 1377 l 913 1377 "},"ể":{"x_min":72,"x_max":820,"ha":827,"o":"m 760 365 l 202 365 q 222 243 202 295 q 280 158 243 191 q 364 109 315 125 q 470 93 412 93 q 626 124 548 93 q 738 185 704 155 l 745 185 l 745 45 q 613 0 680 18 q 472 -18 546 -18 q 177 84 283 -18 q 72 374 72 186 q 173 669 72 560 q 440 779 274 779 q 676 689 593 779 q 760 434 760 599 l 760 365 m 635 463 q 585 618 635 563 q 433 674 535 674 q 270 613 331 674 q 202 463 210 552 l 635 463 m 668 880 l 560 880 l 435 1053 l 310 880 l 206 880 l 360 1137 l 514 1137 l 668 880 m 820 1170 q 797 1101 820 1127 q 731 1060 775 1074 l 731 1014 l 656 1014 l 656 1096 q 703 1117 687 1104 q 720 1157 720 1131 q 707 1186 720 1173 q 672 1200 694 1200 q 638 1197 651 1200 q 609 1188 626 1194 l 607 1188 l 607 1258 q 645 1266 620 1262 q 695 1271 669 1271 q 785 1241 750 1271 q 820 1170 820 1212 "},"ϋ":{"x_min":120,"x_max":757,"ha":877,"o":"m 757 276 q 674 54 757 128 q 438 -20 591 -20 q 203 52 286 -20 q 120 276 120 125 l 120 758 l 248 758 l 248 323 q 254 219 248 259 q 283 147 261 178 q 340 103 304 118 q 438 89 376 89 q 535 103 496 89 q 595 148 574 118 q 621 220 614 178 q 629 323 629 262 l 629 758 l 757 758 l 757 276 m 646 885 l 511 885 l 511 1017 l 646 1017 l 646 885 m 366 885 l 231 885 l 231 1017 l 366 1017 l 366 885 "},"җ":{"x_min":35.265625,"x_max":1084,"ha":1108,"o":"m 1084 -182 l 965 -182 l 965 0 l 921 0 l 678 346 l 617 346 l 617 0 l 491 0 l 491 346 l 436 346 l 182 0 l 35 0 l 327 396 q 222 545 257 433 q 180 623 204 602 q 96 648 153 648 l 61 648 l 61 757 l 107 757 q 244 722 194 757 q 324 605 295 686 q 355 525 337 566 q 491 432 394 432 l 491 758 l 617 758 l 617 432 q 754 525 714 432 q 785 605 771 566 q 863 722 813 686 q 1000 757 914 757 l 1046 757 l 1046 648 l 1011 648 q 927 623 955 648 q 885 545 903 601 q 783 400 852 438 l 995 110 l 1084 110 l 1084 -182 "},"й":{"x_min":125,"x_max":763,"ha":888,"o":"m 763 0 l 637 0 l 637 569 l 240 0 l 125 0 l 125 758 l 251 758 l 251 196 l 643 758 l 763 758 l 763 0 m 689 1056 q 628 899 689 955 q 452 843 568 843 q 276 899 336 843 q 216 1056 216 955 l 331 1056 q 361 953 331 985 q 452 921 392 921 q 543 952 512 921 q 574 1056 574 983 l 689 1056 "},"b":{"x_min":125,"x_max":791.5625,"ha":865,"o":"m 791 384 q 764 214 791 289 q 692 86 737 138 q 586 5 644 32 q 459 -21 528 -21 q 347 -5 395 -21 q 252 35 298 9 l 243 0 l 125 0 l 125 1056 l 252 1056 l 252 678 q 366 750 305 722 q 501 779 426 779 q 713 675 636 779 q 791 384 791 572 m 660 381 q 615 587 660 517 q 470 658 570 658 q 357 633 414 658 q 252 571 300 609 l 252 137 q 345 103 306 113 q 433 94 384 94 q 599 163 539 94 q 660 381 660 233 "},"̃":{"x_min":-684,"x_max":-127,"ha":1,"o":"m -127 1099 q -172 943 -127 995 q -294 891 -217 891 q -363 904 -331 891 q -422 942 -394 917 q -476 986 -454 971 q -525 1001 -498 1001 q -579 970 -561 1001 q -597 888 -597 940 l -684 888 q -635 1042 -684 990 q -516 1095 -586 1095 q -450 1081 -482 1095 q -389 1044 -418 1068 q -333 1002 -357 1016 q -285 989 -308 989 q -231 1020 -250 989 q -212 1099 -212 1051 l -127 1099 "},"ύ":{"x_min":120,"x_max":757,"ha":877,"o":"m 757 276 q 674 54 757 128 q 438 -20 591 -20 q 203 52 286 -20 q 120 276 120 125 l 120 758 l 248 758 l 248 323 q 254 219 248 259 q 283 147 261 178 q 340 103 304 118 q 438 89 376 89 q 535 103 497 89 q 595 148 574 118 q 621 220 614 178 q 629 323 629 262 l 629 758 l 757 758 l 757 276 m 520 1138 l 487 877 l 389 877 l 356 1138 l 520 1138 "},"ﬂ":{"x_min":46,"x_max":743,"ha":870,"o":"m 743 0 l 615 0 l 615 942 q 538 951 585 947 q 455 956 491 956 q 300 919 345 956 q 255 787 255 882 l 255 758 l 479 758 l 479 651 l 259 651 l 259 0 l 132 0 l 132 651 l 46 651 l 46 758 l 132 758 l 132 791 q 211 991 132 920 q 440 1063 290 1063 q 536 1058 487 1063 q 615 1053 585 1053 l 743 1053 l 743 0 "},"ф":{"x_min":75,"x_max":1092,"ha":1167,"o":"m 1092 398 q 1066 220 1092 297 q 997 92 1040 142 q 900 15 955 41 q 785 -11 846 -11 q 706 4 740 -11 q 647 33 673 20 l 647 -280 l 521 -280 l 521 33 q 452 0 479 12 q 368 -11 425 -11 q 156 91 237 -11 q 75 376 75 193 q 101 547 75 472 q 170 673 127 622 q 268 748 212 722 q 379 774 324 774 q 454 762 420 774 q 521 729 487 749 l 521 1055 l 647 1055 l 647 729 q 720 761 678 747 q 804 774 762 774 q 1015 673 938 774 q 1092 398 1092 572 m 961 384 q 914 589 961 514 q 776 665 868 665 q 714 658 739 665 q 647 635 689 652 l 647 129 q 700 106 678 114 q 760 98 721 98 q 908 171 856 98 q 961 384 961 245 m 521 129 l 521 635 q 467 656 494 648 q 406 665 440 665 q 260 595 315 665 q 206 382 206 525 q 254 174 206 250 q 394 98 303 98 q 461 107 430 98 q 521 129 492 117 "},"Ŋ":{"x_min":136,"x_max":906,"ha":1039,"o":"m 744 -137 q 781 -6 781 -100 l 261 903 l 261 0 l 136 0 l 136 1010 l 343 1010 l 781 250 l 781 1010 l 906 1010 l 906 -15 q 836 -216 906 -145 q 644 -287 766 -287 q 590 -284 617 -287 q 538 -277 563 -281 l 538 -163 l 545 -163 q 580 -170 560 -166 q 620 -174 599 -174 q 744 -137 706 -174 "},"Ũ":{"x_min":121,"x_max":896,"ha":1017,"o":"m 896 405 q 871 214 896 295 q 792 78 847 132 q 670 2 740 26 q 508 -21 601 -21 q 342 4 413 -21 q 224 78 272 29 q 145 212 169 133 q 121 405 121 291 l 121 1010 l 255 1010 l 255 398 q 266 269 255 316 q 303 182 277 221 q 384 116 333 138 q 508 94 436 94 q 631 116 580 94 q 713 182 682 138 q 750 271 739 221 q 762 395 762 321 l 762 1010 l 896 1010 l 896 405 m 786 1352 q 740 1196 786 1248 q 619 1144 695 1144 q 550 1157 582 1144 q 491 1195 518 1170 q 437 1239 459 1224 q 388 1254 414 1254 q 334 1223 352 1254 q 317 1141 317 1193 l 230 1141 q 278 1295 230 1243 q 397 1348 326 1348 q 463 1334 431 1348 q 523 1297 494 1321 q 580 1255 555 1269 q 627 1242 605 1242 q 681 1273 662 1242 q 701 1352 701 1304 l 786 1352 "},"Щ":{"x_min":136,"x_max":1392,"ha":1452,"o":"m 1264 0 l 136 0 l 136 1010 l 270 1010 l 270 117 l 649 117 l 649 1010 l 783 1010 l 783 116 l 1162 116 l 1162 1010 l 1296 1010 l 1296 116 l 1392 116 l 1392 -229 l 1264 -229 l 1264 0 "},"L":{"x_min":136,"x_max":774.5625,"ha":773,"o":"m 774 0 l 136 0 l 136 1009 l 270 1009 l 270 119 l 774 119 l 774 0 "},";":{"x_min":156.34375,"x_max":446.5,"ha":631,"o":"m 397 565 l 235 565 l 235 758 l 397 758 l 397 565 m 446 194 l 255 -250 l 156 -250 l 274 194 l 446 194 "},"ď":{"x_min":73,"x_max":1067.234375,"ha":898,"o":"m 1067 1056 l 897 713 l 811 713 l 914 1056 l 1067 1056 m 739 0 l 612 0 l 612 79 q 497 5 557 31 q 368 -21 438 -21 q 152 83 232 -21 q 73 373 73 187 q 100 544 73 469 q 174 672 127 619 q 282 751 220 724 q 409 779 343 779 q 515 766 469 779 q 612 727 561 753 l 612 1056 l 739 1056 l 739 0 m 612 186 l 612 621 q 520 653 560 644 q 431 662 479 662 q 264 587 324 662 q 204 375 204 512 q 250 170 204 240 q 398 100 296 100 q 508 124 452 100 q 612 186 564 148 "},"Ο":{"x_min":78,"x_max":1016,"ha":1093,"o":"m 888 893 q 983 727 950 826 q 1016 504 1016 629 q 982 281 1016 379 q 888 116 948 182 q 740 13 826 48 q 546 -21 655 -21 q 353 14 440 -21 q 204 116 265 49 q 110 281 143 183 q 78 504 78 379 q 110 726 78 628 q 205 893 143 824 q 353 995 265 960 q 546 1031 442 1031 q 741 995 655 1031 q 888 893 828 959 m 876 504 q 787 808 876 701 q 547 915 699 915 q 305 808 393 915 q 218 504 218 701 q 307 200 218 305 q 547 95 396 95 q 786 200 697 95 q 876 504 876 305 "},"Ĭ":{"x_min":87,"x_max":499,"ha":585,"o":"m 492 0 l 93 0 l 93 103 l 225 103 l 225 907 l 93 907 l 93 1010 l 492 1010 l 492 907 l 359 907 l 359 103 l 492 103 l 492 0 m 499 1359 q 449 1175 499 1245 q 293 1105 399 1105 q 138 1175 189 1105 q 87 1358 87 1245 l 194 1358 q 217 1229 194 1268 q 293 1191 240 1191 q 367 1228 343 1191 q 392 1359 392 1265 l 499 1359 "},"♪":{"x_min":25.5,"x_max":670,"ha":695,"o":"m 330 925 l 355 925 q 509 915 472 925 q 604 863 563 901 q 652 782 634 834 q 670 661 670 731 l 670 592 l 603 592 l 603 621 q 583 699 603 667 q 526 748 564 731 q 416 770 476 770 l 397 770 l 397 203 q 375 75 397 121 q 300 2 353 30 q 185 -25 247 -25 q 68 16 111 -25 q 25 126 25 58 q 77 246 25 197 q 212 295 128 295 q 330 263 264 295 l 330 925 "},"ŧ":{"x_min":42,"x_max":519,"ha":547,"o":"m 519 6 q 440 -8 483 -2 q 364 -15 398 -15 q 188 47 248 -15 q 128 247 128 109 l 128 362 l 42 362 l 42 453 l 128 453 l 128 651 l 42 651 l 42 758 l 128 758 l 128 975 l 256 975 l 256 758 l 519 758 l 519 651 l 256 651 l 256 453 l 460 453 l 460 362 l 258 362 l 258 305 q 258 212 258 245 q 274 149 258 178 q 316 109 289 122 q 396 97 342 97 q 462 106 428 97 q 512 121 497 115 l 519 121 l 519 6 "},"À":{"x_min":17.625,"x_max":931.796875,"ha":949,"o":"m 931 0 l 788 0 l 689 282 l 252 282 l 153 0 l 17 0 l 385 1010 l 564 1010 l 931 0 m 648 397 l 471 893 l 293 397 l 648 397 m 584 1137 l 483 1137 l 298 1390 l 463 1390 l 584 1137 "},"Ϊ":{"x_min":85,"x_max":500,"ha":584,"o":"m 491 0 l 92 0 l 92 103 l 225 103 l 225 907 l 92 907 l 92 1010 l 491 1010 l 491 907 l 359 907 l 359 103 l 491 103 l 491 0 m 500 1138 l 365 1138 l 365 1270 l 500 1270 l 500 1138 m 220 1138 l 85 1138 l 85 1270 l 220 1270 l 220 1138 "},"½":{"x_min":116.265625,"x_max":1326,"ha":1389,"o":"m 370 383 l 258 383 l 258 846 l 116 846 l 116 925 q 228 940 185 925 q 277 1013 270 955 l 370 1013 l 370 383 m 956 1011 l 427 0 l 315 0 l 844 1011 l 956 1011 m 1326 0 l 859 0 l 859 100 q 966 182 921 146 q 1038 242 1012 217 q 1134 349 1112 312 q 1156 442 1156 386 q 1126 514 1156 489 q 1044 540 1096 540 q 948 519 997 540 q 872 478 900 499 l 862 478 l 862 598 q 957 628 906 617 q 1061 640 1008 640 q 1224 586 1167 640 q 1282 450 1282 532 q 1254 336 1282 387 q 1154 222 1226 286 q 1073 157 1121 193 q 988 94 1025 121 l 1326 94 l 1326 0 "},"'":{"x_min":125,"x_max":246,"ha":372,"o":"m 246 1056 l 246 663 l 125 663 l 125 1056 l 246 1056 "},"ĳ":{"x_min":119,"x_max":736,"ha":853,"o":"m 263 885 l 119 885 l 119 1017 l 263 1017 l 263 885 m 255 0 l 127 0 l 127 758 l 255 758 l 255 0 m 736 885 l 592 885 l 592 1017 l 736 1017 l 736 885 m 728 -18 q 660 -219 728 -151 q 478 -287 592 -287 q 407 -281 451 -287 q 333 -268 362 -276 l 333 -147 l 339 -147 q 391 -163 358 -154 q 453 -173 423 -173 q 532 -159 502 -173 q 577 -118 562 -145 q 596 -53 592 -91 q 601 40 601 -14 l 601 651 l 442 651 l 442 758 l 728 758 l 728 -18 "},"Р":{"x_min":136,"x_max":797,"ha":838,"o":"m 797 705 q 773 580 797 638 q 708 481 750 523 q 584 403 655 429 q 404 377 513 377 l 270 377 l 270 0 l 136 0 l 136 1011 l 410 1011 q 564 995 501 1011 q 676 947 627 980 q 765 851 733 909 q 797 705 797 793 m 657 702 q 638 793 657 754 q 583 856 620 832 q 508 886 550 877 q 403 896 466 896 l 270 896 l 270 492 l 383 492 q 515 506 464 492 q 598 553 566 521 q 643 621 630 585 q 657 702 657 657 "},"˛":{"x_min":281,"x_max":604.625,"ha":883,"o":"m 604 -265 q 543 -278 569 -274 q 489 -283 518 -283 q 338 -229 395 -283 q 281 -78 281 -175 q 285 -31 281 -52 q 293 7 289 -10 l 399 7 q 393 -31 395 -11 q 391 -72 391 -52 q 419 -154 391 -128 q 508 -181 447 -181 q 560 -171 532 -181 q 599 -157 587 -162 l 604 -157 l 604 -265 "},"⁷":{"x_min":165,"x_max":633,"ha":753,"o":"m 633 921 l 314 383 l 188 383 l 525 922 l 165 922 l 165 1016 l 633 1016 l 633 921 "},"Ć":{"x_min":78,"x_max":916,"ha":970,"o":"m 916 73 q 848 43 878 57 q 769 13 818 28 q 679 -8 728 0 q 572 -18 631 -18 q 372 12 462 -18 q 216 109 282 43 q 114 273 151 174 q 78 504 78 372 q 113 727 78 629 q 215 893 148 826 q 370 994 279 959 q 573 1029 462 1029 q 735 1009 654 1029 q 916 939 816 989 l 916 781 l 905 781 q 740 882 822 850 q 564 914 658 914 q 426 889 487 914 q 317 812 365 864 q 244 683 270 761 q 218 504 218 606 q 246 321 218 397 q 321 196 275 244 q 432 122 368 146 q 565 98 495 98 q 747 131 663 98 q 906 231 832 164 l 916 231 l 916 73 m 728 1390 l 542 1137 l 441 1137 l 563 1390 l 728 1390 "},"Т":{"x_min":0,"x_max":856,"ha":856,"o":"m 856 891 l 495 891 l 495 0 l 361 0 l 361 891 l 0 891 l 0 1010 l 856 1010 l 856 891 "},"£":{"x_min":93,"x_max":788.625,"ha":883,"o":"m 788 0 l 93 0 l 93 140 q 207 226 172 162 q 243 416 243 290 l 123 416 l 123 510 l 243 510 l 243 720 q 328 943 243 856 q 553 1030 414 1030 q 676 1018 624 1030 q 771 995 727 1007 l 771 856 l 764 856 q 670 900 722 884 q 560 917 619 917 q 419 861 466 917 q 372 707 372 805 l 372 510 l 653 510 l 653 416 l 372 416 l 372 374 q 329 225 372 289 q 221 123 287 162 l 221 116 l 788 116 l 788 0 "},"ẹ":{"x_min":72,"x_max":760,"ha":828,"o":"m 760 366 l 202 366 q 222 243 202 295 q 280 158 243 191 q 364 110 315 126 q 470 94 412 94 q 626 124 548 94 q 738 185 704 155 l 745 185 l 745 46 q 613 1 680 19 q 472 -17 546 -17 q 177 85 283 -17 q 72 374 72 187 q 173 669 72 560 q 440 779 274 779 q 676 689 593 779 q 760 435 760 599 l 760 366 m 635 464 q 585 619 635 564 q 433 674 535 674 q 270 613 331 674 q 202 464 210 553 l 635 464 m 525 -259 l 381 -259 l 381 -127 l 525 -127 l 525 -259 "},"ů":{"x_min":120,"x_max":754,"ha":879,"o":"m 754 0 l 626 0 l 626 83 q 502 6 561 33 q 372 -21 443 -21 q 186 51 253 -21 q 120 266 120 124 l 120 758 l 248 758 l 248 326 q 253 227 248 268 q 276 157 258 186 q 323 113 294 127 q 408 100 353 100 q 516 125 458 100 q 626 191 575 151 l 626 758 l 754 758 l 754 0 m 679 1106 q 609 942 679 1009 q 441 875 540 875 q 273 941 343 875 q 204 1106 204 1008 q 273 1269 204 1203 q 441 1336 342 1336 q 610 1269 541 1336 q 679 1106 679 1203 m 581 1106 q 541 1204 581 1164 q 441 1245 501 1245 q 341 1205 381 1245 q 302 1106 302 1165 q 342 1007 302 1047 q 441 967 382 967 q 541 1007 501 967 q 581 1106 581 1047 "},"Ō":{"x_min":78,"x_max":1016,"ha":1093,"o":"m 888 893 q 983 727 950 826 q 1016 504 1016 629 q 982 281 1016 379 q 888 116 948 182 q 740 13 826 48 q 546 -21 655 -21 q 353 14 440 -21 q 204 116 265 49 q 110 281 143 183 q 78 504 78 379 q 110 726 78 628 q 205 893 143 824 q 353 995 265 960 q 546 1031 442 1031 q 741 995 655 1031 q 888 893 828 959 m 876 504 q 787 808 876 701 q 547 915 699 915 q 305 808 393 915 q 218 504 218 701 q 307 200 218 305 q 547 95 396 95 q 786 200 697 95 q 876 504 876 305 m 798 1159 l 295 1159 l 295 1264 l 798 1264 l 798 1159 "},"а":{"x_min":71,"x_max":715,"ha":835,"o":"m 715 0 l 588 0 l 588 80 q 542 48 571 69 q 486 15 513 27 q 412 -10 454 0 q 315 -21 371 -21 q 142 47 213 -21 q 71 221 71 115 q 107 361 71 307 q 213 445 144 414 q 379 487 282 476 q 588 498 476 498 l 588 517 q 572 590 588 561 q 528 636 557 619 q 463 657 501 652 q 384 663 425 663 q 272 649 334 663 q 144 612 210 636 l 138 612 l 138 741 q 245 763 175 751 q 385 776 316 776 q 524 762 465 776 q 627 717 583 749 q 692 636 670 686 q 715 514 715 587 l 715 0 m 588 186 l 588 396 q 450 388 529 396 q 325 368 371 381 q 236 319 270 352 q 202 229 202 286 q 241 130 202 163 q 362 98 281 98 q 484 124 429 98 q 588 186 540 150 "},"Ğ":{"x_min":78,"x_max":978,"ha":1077,"o":"m 978 74 q 797 8 895 36 q 607 -20 699 -20 q 391 12 489 -20 q 223 110 293 45 q 115 275 153 176 q 78 506 78 373 q 219 888 78 748 q 607 1029 360 1029 q 783 1008 693 1029 q 977 937 873 987 l 977 778 l 964 778 q 903 820 943 794 q 825 865 863 847 q 719 900 778 886 q 584 914 659 914 q 316 805 415 914 q 218 510 218 696 q 321 204 218 313 q 601 96 424 96 q 731 108 666 96 q 845 142 796 121 l 845 390 l 574 390 l 574 508 l 978 508 l 978 74 m 833 1390 q 765 1203 833 1276 q 581 1131 697 1131 q 397 1203 465 1131 q 330 1390 330 1276 l 439 1390 q 484 1259 447 1300 q 582 1219 520 1219 q 678 1259 642 1219 q 724 1390 714 1300 l 833 1390 "},"ә":{"x_min":72,"x_max":760,"ha":828,"o":"m 760 386 q 665 98 760 208 q 391 -18 565 -18 q 150 76 234 -18 q 72 325 72 165 l 72 395 l 630 395 q 551 602 630 530 q 360 668 480 668 q 219 642 297 668 q 93 576 137 615 l 87 576 l 87 715 q 359 779 238 779 q 654 677 549 779 q 760 386 760 575 m 630 297 l 197 297 q 397 87 197 87 q 558 143 494 87 q 630 297 621 200 "},"v":{"x_min":41.375,"x_max":780.578125,"ha":822,"o":"m 780 758 l 474 0 l 345 0 l 41 758 l 179 758 l 414 154 l 646 758 l 780 758 "},"Ї":{"x_min":85,"x_max":500,"ha":584,"o":"m 491 0 l 92 0 l 92 103 l 225 103 l 225 907 l 92 907 l 92 1010 l 491 1010 l 491 907 l 359 907 l 359 103 l 491 103 l 491 0 m 500 1138 l 365 1138 l 365 1270 l 500 1270 l 500 1138 m 220 1138 l 85 1138 l 85 1270 l 220 1270 l 220 1138 "},"û":{"x_min":120,"x_max":754,"ha":879,"o":"m 754 0 l 626 0 l 626 83 q 502 6 561 33 q 372 -21 443 -21 q 186 51 252 -21 q 120 266 120 124 l 120 758 l 248 758 l 248 326 q 253 227 248 268 q 276 157 258 186 q 323 113 294 127 q 408 100 353 100 q 516 125 458 100 q 626 191 575 151 l 626 758 l 754 758 l 754 0 m 668 880 l 560 880 l 434 1053 l 310 880 l 205 880 l 359 1136 l 513 1136 l 668 880 "},"Ź":{"x_min":85,"x_max":873,"ha":951,"o":"m 873 0 l 85 0 l 85 124 l 704 891 l 108 891 l 108 1010 l 858 1010 l 858 888 l 232 119 l 873 119 l 873 0 m 657 1390 l 472 1137 l 371 1137 l 492 1390 l 657 1390 "},"ˉ":{"x_min":190,"x_max":693,"ha":883,"o":"m 693 906 l 190 906 l 190 1011 l 693 1011 l 693 906 "},"Ĺ":{"x_min":136,"x_max":774.5625,"ha":773,"o":"m 774 0 l 136 0 l 136 1009 l 270 1009 l 270 119 l 774 119 l 774 0 m 436 1389 l 251 1137 l 150 1137 l 271 1389 l 436 1389 "},"ỵ":{"x_min":41.359375,"x_max":780.78125,"ha":822,"o":"m 780 758 l 338 -279 l 202 -279 l 343 36 l 41 758 l 179 758 l 412 196 l 647 758 l 780 758 m 656 -259 l 512 -259 l 512 -127 l 656 -127 l 656 -259 "},"₤":{"x_min":93,"x_max":788.625,"ha":883,"o":"m 788 0 l 93 0 l 93 140 q 195 202 162 158 q 238 330 229 246 l 132 330 l 132 421 l 244 421 l 244 516 l 132 516 l 132 607 l 243 607 l 243 720 q 328 943 243 856 q 553 1030 414 1030 q 676 1018 624 1030 q 771 995 727 1007 l 771 856 l 764 856 q 670 900 722 884 q 560 917 619 917 q 419 861 466 917 q 372 707 372 805 l 372 607 l 618 607 l 618 516 l 371 516 l 371 421 l 618 421 l 618 330 l 368 330 q 320 207 358 261 q 221 123 282 153 l 221 116 l 788 116 l 788 0 "},"‒":{"x_min":104,"x_max":779,"ha":883,"o":"m 779 388 l 104 388 l 104 497 l 779 497 l 779 388 "},"┐":{"x_min":-15.59375,"x_max":551,"ha":984,"o":"m 432 362 l -15 362 l -15 481 l 551 481 l 551 -421 l 432 -421 l 432 362 "},"Č":{"x_min":78,"x_max":916,"ha":970,"o":"m 916 73 q 848 43 878 57 q 769 13 818 28 q 679 -8 728 0 q 572 -18 631 -18 q 372 12 462 -18 q 216 109 282 43 q 114 273 151 174 q 78 504 78 372 q 113 727 78 629 q 215 893 148 826 q 370 994 279 959 q 573 1029 462 1029 q 735 1009 654 1029 q 916 939 816 989 l 916 781 l 905 781 q 740 882 822 850 q 564 914 658 914 q 426 889 487 914 q 317 812 365 864 q 244 683 270 761 q 218 504 218 606 q 246 321 218 397 q 321 196 275 244 q 432 122 368 146 q 565 98 495 98 q 747 131 663 98 q 906 231 832 164 l 916 231 l 916 73 m 785 1391 l 630 1134 l 476 1134 l 321 1391 l 429 1391 l 555 1217 l 679 1391 l 785 1391 "},"x":{"x_min":40.6875,"x_max":781.25,"ha":822,"o":"m 781 0 l 620 0 l 405 291 l 189 0 l 40 0 l 336 377 l 43 758 l 204 758 l 417 471 l 632 758 l 781 758 l 483 384 l 781 0 "},"è":{"x_min":72,"x_max":760,"ha":828,"o":"m 760 365 l 202 365 q 223 243 202 295 q 280 158 244 191 q 364 109 315 125 q 471 93 412 93 q 626 124 548 93 q 738 185 704 155 l 745 185 l 745 45 q 613 0 680 18 q 472 -18 546 -18 q 177 84 283 -18 q 72 374 72 186 q 173 669 72 560 q 440 779 274 779 q 676 689 593 779 q 760 434 760 599 l 760 365 m 635 463 q 585 618 635 563 q 433 674 535 674 q 270 613 331 674 q 202 463 210 552 l 635 463 m 515 883 l 414 883 l 229 1137 l 393 1137 l 515 883 "},"Ń":{"x_min":136,"x_max":906,"ha":1039,"o":"m 906 0 l 740 0 l 261 903 l 261 0 l 136 0 l 136 1010 l 343 1010 l 781 185 l 781 1010 l 906 1010 l 906 0 m 734 1390 l 549 1137 l 448 1137 l 569 1390 l 734 1390 "},"μ":{"x_min":125,"x_max":763,"ha":888,"o":"m 763 0 l 636 0 l 636 79 q 540 6 586 27 q 441 -14 494 -14 q 349 4 390 -14 q 252 76 309 22 l 252 -280 l 125 -280 l 125 758 l 252 758 l 252 189 q 327 134 273 162 q 442 107 381 107 q 552 129 505 107 q 635 193 598 152 l 635 758 l 763 758 l 763 0 "},".":{"x_min":172,"x_max":334,"ha":506,"o":"m 334 0 l 172 0 l 172 193 l 334 193 l 334 0 "},"‘":{"x_min":-12.890625,"x_max":264.484375,"ha":373,"o":"m 264 677 l 170 677 l -12 1056 l 152 1056 l 264 677 "},"π":{"x_min":125,"x_max":759,"ha":884,"o":"m 759 0 l 631 0 l 631 648 l 252 648 l 252 0 l 125 0 l 125 757 l 759 757 l 759 0 "},"Ỏ":{"x_min":78,"x_max":1016,"ha":1093,"o":"m 888 893 q 983 727 950 826 q 1016 504 1016 629 q 982 281 1016 379 q 888 116 948 182 q 740 13 826 48 q 546 -21 655 -21 q 353 14 440 -21 q 204 116 265 49 q 110 281 143 183 q 78 504 78 379 q 110 726 78 628 q 205 893 143 824 q 353 995 265 960 q 546 1031 442 1031 q 741 995 655 1031 q 888 893 828 959 m 876 504 q 787 808 876 701 q 547 915 699 915 q 305 808 393 915 q 218 504 218 701 q 307 200 218 305 q 547 95 396 95 q 786 200 697 95 q 876 504 876 305 m 667 1289 q 644 1219 667 1246 q 578 1179 622 1193 l 578 1133 l 503 1133 l 503 1215 q 550 1236 534 1223 q 567 1276 567 1249 q 554 1305 567 1292 q 518 1319 541 1319 q 485 1316 497 1319 q 456 1307 472 1313 l 454 1307 l 454 1377 q 492 1385 467 1381 q 542 1390 516 1390 q 632 1360 597 1390 q 667 1289 667 1331 "},"Ớ":{"x_min":78,"x_max":1136,"ha":1120,"o":"m 977 744 q 1007 628 998 685 q 1016 505 1016 572 q 982 281 1016 380 q 888 116 948 182 q 740 13 826 48 q 546 -21 655 -21 q 353 14 440 -21 q 204 116 265 49 q 110 281 143 183 q 78 504 78 379 q 110 726 78 628 q 205 893 143 824 q 353 995 265 960 q 546 1031 442 1031 q 741 995 654 1031 q 888 894 827 959 q 912 864 904 876 q 935 833 921 853 q 1011 854 988 833 q 1034 922 1034 876 q 1026 978 1034 947 q 1011 1024 1019 1009 l 1011 1031 l 1119 1031 q 1132 975 1128 999 q 1136 917 1136 951 q 1095 800 1136 844 q 977 744 1054 756 m 876 504 q 787 808 876 701 q 547 915 699 915 q 305 808 393 915 q 218 504 218 701 q 307 200 218 305 q 547 95 396 95 q 786 200 697 95 q 876 504 876 305 m 734 1389 l 549 1137 l 448 1137 l 569 1389 l 734 1389 "},"9":{"x_min":77,"x_max":792,"ha":884,"o":"m 792 565 q 761 325 792 433 q 670 141 731 217 q 515 22 608 64 q 297 -20 422 -20 q 230 -16 261 -20 q 175 -4 199 -12 l 175 125 l 181 125 q 237 106 201 115 q 317 97 273 97 q 553 186 468 97 q 651 434 638 276 q 533 380 588 396 q 411 364 477 364 q 298 376 349 364 q 197 423 248 388 q 107 529 137 465 q 77 681 77 592 q 178 933 77 836 q 427 1031 280 1031 q 562 1008 500 1031 q 671 940 625 985 q 760 795 729 883 q 792 565 792 706 m 654 594 q 632 763 654 699 q 572 862 610 827 q 504 906 541 893 q 425 920 467 920 q 271 858 327 920 q 215 686 215 797 q 233 581 215 622 q 295 510 251 540 q 362 482 325 489 q 444 475 399 475 q 551 489 497 475 q 654 530 606 503 q 654 558 654 544 q 654 594 654 572 "},"l":{"x_min":127,"x_max":255,"ha":382,"o":"m 255 0 l 127 0 l 127 1056 l 255 1056 l 255 0 "},"Ẫ":{"x_min":17.625,"x_max":931.796875,"ha":949,"o":"m 931 0 l 788 0 l 689 282 l 252 282 l 153 0 l 17 0 l 385 1010 l 564 1010 l 931 0 m 648 397 l 471 893 l 293 397 l 648 397 m 705 1100 l 590 1100 l 472 1160 l 354 1100 l 242 1100 l 410 1216 l 537 1216 l 705 1100 m 697 1391 q 651 1299 689 1335 q 559 1263 613 1263 q 509 1271 534 1263 q 465 1288 484 1279 q 426 1306 447 1297 q 391 1315 405 1315 q 358 1304 372 1315 q 341 1263 345 1293 l 250 1263 q 294 1353 257 1315 q 387 1391 332 1391 q 437 1383 414 1391 q 482 1364 459 1375 q 521 1346 505 1353 q 555 1339 537 1339 q 588 1350 573 1339 q 606 1391 602 1362 l 697 1391 "},"Ъ":{"x_min":-0.046875,"x_max":1033,"ha":1087,"o":"m 893 310 q 876 399 893 361 q 823 462 859 438 q 736 492 785 487 q 599 498 688 498 l 412 498 l 412 115 l 595 115 q 734 123 686 115 q 819 157 783 132 q 875 219 857 184 q 893 310 893 255 m 1033 312 q 1004 179 1033 239 q 927 82 975 120 q 805 19 870 38 q 637 0 740 0 l 278 0 l 278 891 l 0 891 l 0 1010 l 412 1010 l 412 614 l 641 614 q 809 602 744 614 q 932 545 874 590 q 1008 446 983 505 q 1033 312 1033 387 "},"Ś":{"x_min":91,"x_max":870,"ha":950,"o":"m 870 288 q 842 172 870 229 q 765 74 815 114 q 638 6 711 30 q 464 -18 566 -18 q 268 2 355 -18 q 91 62 181 22 l 91 231 l 100 231 q 277 132 177 167 q 466 98 377 98 q 660 144 590 98 q 730 269 730 191 q 697 368 730 336 q 597 418 664 400 q 486 440 546 431 q 361 463 427 449 q 161 560 226 491 q 97 740 97 629 q 204 947 97 866 q 476 1029 311 1029 q 671 1008 582 1029 q 829 958 760 988 l 829 800 l 819 800 q 667 880 761 848 q 475 913 574 913 q 302 868 367 913 q 237 752 237 823 q 269 653 237 689 q 384 599 302 618 q 507 575 427 589 q 643 548 587 562 q 812 457 755 518 q 870 288 870 397 m 666 1390 l 481 1137 l 380 1137 l 502 1390 l 666 1390 "},"Ü":{"x_min":121,"x_max":896,"ha":1017,"o":"m 896 405 q 871 214 896 295 q 792 78 847 132 q 670 2 740 26 q 508 -21 601 -21 q 342 4 413 -21 q 224 78 272 29 q 145 212 169 133 q 121 405 121 291 l 121 1010 l 255 1010 l 255 398 q 266 269 255 316 q 303 182 277 221 q 384 116 333 138 q 508 94 436 94 q 631 116 580 94 q 713 182 682 138 q 750 271 739 221 q 762 395 762 321 l 762 1010 l 896 1010 l 896 405 m 716 1138 l 581 1138 l 581 1270 l 716 1270 l 716 1138 m 436 1138 l 301 1138 l 301 1270 l 436 1270 l 436 1138 "},"à":{"x_min":71,"x_max":715,"ha":835,"o":"m 715 0 l 588 0 l 588 80 q 542 48 571 69 q 486 15 513 27 q 412 -10 454 0 q 315 -21 371 -21 q 142 47 213 -21 q 71 221 71 115 q 107 361 71 307 q 213 445 144 414 q 379 487 282 476 q 588 498 476 498 l 588 517 q 572 590 588 561 q 528 636 557 619 q 463 657 501 652 q 384 663 425 663 q 272 649 334 663 q 144 612 210 636 l 138 612 l 138 741 q 245 763 175 751 q 385 776 316 776 q 524 762 465 776 q 627 717 583 749 q 692 636 670 686 q 715 514 715 587 l 715 0 m 588 186 l 588 396 q 450 388 529 396 q 325 368 371 381 q 236 319 270 352 q 202 229 202 286 q 241 130 202 163 q 362 98 281 98 q 484 124 429 98 q 588 186 540 150 m 501 884 l 400 884 l 214 1137 l 379 1137 l 501 884 "},"η":{"x_min":125,"x_max":759,"ha":879,"o":"m 759 -280 l 631 -280 l 631 431 q 624 529 631 484 q 602 601 618 575 q 553 644 585 630 q 470 658 521 658 q 361 632 418 658 q 252 566 304 606 l 252 0 l 125 0 l 125 758 l 252 758 l 252 674 q 375 751 311 723 q 506 779 439 779 q 694 705 629 779 q 759 491 759 631 l 759 -280 "},"ó":{"x_min":72,"x_max":771,"ha":843,"o":"m 771 378 q 676 86 771 193 q 421 -21 581 -21 q 166 86 261 -21 q 72 378 72 193 q 166 671 72 563 q 421 779 261 779 q 676 671 581 779 q 771 378 771 563 m 639 378 q 581 597 639 525 q 421 669 524 669 q 260 597 318 669 q 203 378 203 525 q 261 162 203 236 q 421 88 318 88 q 581 161 523 88 q 639 378 639 234 m 632 1137 l 447 884 l 346 884 l 467 1137 l 632 1137 "},"₴":{"x_min":31,"x_max":918,"ha":949,"o":"m 918 309 l 223 309 q 220 269 220 290 q 311 132 220 177 q 483 98 381 98 q 677 134 577 98 q 848 231 776 170 l 858 231 l 858 62 q 485 -18 677 -18 q 184 74 299 -18 q 80 288 80 158 q 80 309 80 296 l 31 309 l 31 424 l 112 424 q 306 548 162 509 q 565 599 393 563 q 618 615 595 606 l 31 615 l 31 730 l 711 730 q 713 753 713 742 q 630 878 713 835 q 474 913 565 913 q 292 884 383 913 q 130 800 194 854 l 120 800 l 120 958 q 472 1029 282 1029 q 744 948 637 1029 q 853 740 853 866 l 853 730 l 918 730 l 918 615 l 825 615 q 788 561 810 584 q 588 462 722 490 q 377 424 517 451 l 918 424 l 918 309 "},"¦":{"x_min":256,"x_max":374,"ha":630,"o":"m 374 514 l 256 514 l 256 1056 l 374 1056 l 374 514 m 374 -266 l 256 -266 l 256 276 l 374 276 l 374 -266 "},"₢":{"x_min":78,"x_max":916.1875,"ha":970,"o":"m 916 73 q 769 13 868 51 q 572 -18 670 -18 q 216 109 345 -18 q 78 504 78 246 q 215 893 78 754 q 573 1029 347 1029 q 916 939 738 1029 l 916 781 l 905 781 q 564 914 746 914 q 316 812 410 914 q 218 504 218 704 q 321 196 218 305 q 443 118 371 143 l 443 582 l 571 582 l 571 470 q 823 582 709 582 q 916 573 865 582 l 916 443 l 909 443 q 790 456 855 456 q 571 362 686 456 l 571 99 q 906 231 760 99 l 916 231 l 916 73 "},"Ỷ":{"x_min":3.71875,"x_max":850.390625,"ha":854,"o":"m 850 1010 l 495 442 l 495 0 l 361 0 l 361 428 l 3 1010 l 152 1010 l 428 558 l 707 1010 l 850 1010 m 552 1289 q 529 1219 552 1246 q 463 1179 507 1193 l 463 1133 l 388 1133 l 388 1215 q 435 1236 419 1223 q 452 1276 452 1249 q 439 1305 452 1292 q 404 1319 426 1319 q 370 1316 383 1319 q 341 1307 358 1313 l 339 1307 l 339 1377 q 377 1385 352 1381 q 427 1390 401 1390 q 517 1360 482 1390 q 552 1289 552 1331 "},"Ő":{"x_min":78,"x_max":1016,"ha":1093,"o":"m 888 893 q 983 727 950 826 q 1016 504 1016 629 q 982 281 1016 379 q 888 116 948 182 q 740 13 826 48 q 546 -21 655 -21 q 353 14 440 -21 q 204 116 265 49 q 110 281 143 183 q 78 504 78 379 q 110 726 78 628 q 205 893 143 824 q 353 995 265 960 q 546 1031 442 1031 q 741 995 655 1031 q 888 893 828 959 m 876 504 q 787 808 876 701 q 547 915 699 915 q 305 808 393 915 q 218 504 218 701 q 307 200 218 305 q 547 95 396 95 q 786 200 697 95 q 876 504 876 305 m 869 1390 l 695 1137 l 600 1137 l 715 1390 l 869 1390 m 596 1390 l 421 1137 l 327 1137 l 441 1390 l 596 1390 "},"Ž":{"x_min":85,"x_max":873,"ha":951,"o":"m 873 0 l 85 0 l 85 124 l 704 891 l 108 891 l 108 1010 l 858 1010 l 858 888 l 232 119 l 873 119 l 873 0 m 704 1390 l 549 1133 l 395 1133 l 240 1390 l 348 1390 l 474 1216 l 598 1390 l 704 1390 "},"е":{"x_min":72,"x_max":760,"ha":828,"o":"m 760 365 l 202 365 q 223 243 202 295 q 280 158 244 191 q 364 109 315 125 q 471 93 412 93 q 626 124 548 93 q 738 185 704 155 l 745 185 l 745 45 q 613 0 680 18 q 472 -18 546 -18 q 177 84 283 -18 q 72 374 72 186 q 173 669 72 560 q 440 779 274 779 q 676 689 593 779 q 760 434 760 599 l 760 365 m 635 463 q 585 618 635 563 q 433 674 535 674 q 270 613 331 674 q 202 463 210 552 l 635 463 "},"Î":{"x_min":63.15625,"x_max":526.59375,"ha":585,"o":"m 492 0 l 93 0 l 93 103 l 225 103 l 225 907 l 93 907 l 93 1010 l 492 1010 l 492 907 l 359 907 l 359 103 l 492 103 l 492 0 m 526 1133 l 418 1133 l 292 1306 l 168 1133 l 63 1133 l 217 1390 l 371 1390 l 526 1133 "},"e":{"x_min":72,"x_max":760,"ha":828,"o":"m 760 365 l 202 365 q 223 243 202 295 q 280 158 244 191 q 364 109 315 125 q 471 93 412 93 q 626 124 548 93 q 738 185 704 155 l 745 185 l 745 45 q 613 0 680 18 q 472 -18 546 -18 q 177 84 283 -18 q 72 374 72 186 q 173 669 72 560 q 440 779 274 779 q 676 689 593 779 q 760 434 760 599 l 760 365 m 635 463 q 585 618 635 563 q 433 674 535 674 q 270 613 331 674 q 202 463 210 552 l 635 463 "},"ό":{"x_min":72,"x_max":771,"ha":843,"o":"m 771 378 q 676 86 771 193 q 421 -21 581 -21 q 166 86 261 -21 q 72 378 72 193 q 166 671 72 563 q 421 779 261 779 q 676 671 581 779 q 771 378 771 563 m 639 378 q 581 597 639 525 q 421 669 524 669 q 260 597 318 669 q 203 378 203 525 q 261 162 203 236 q 421 88 318 88 q 581 161 523 88 q 639 378 639 234 m 503 1138 l 470 877 l 372 877 l 339 1138 l 503 1138 "},"₨":{"x_min":136,"x_max":1563,"ha":1620,"o":"m 971 0 l 797 0 l 459 402 l 270 402 l 270 0 l 136 0 l 136 1011 l 418 1011 q 571 999 510 1011 q 681 956 632 987 q 767 869 736 922 q 798 736 798 816 q 743 553 798 626 q 592 442 688 479 l 971 0 m 658 726 q 642 803 658 770 q 592 860 627 837 q 522 888 562 880 q 428 896 482 896 l 270 896 l 270 514 l 405 514 q 517 525 469 514 q 598 567 564 536 q 643 632 628 595 q 658 726 658 669 m 1563 218 q 1477 48 1563 114 q 1243 -18 1391 -18 q 1088 2 1158 -18 q 971 46 1018 22 l 971 189 l 978 189 q 1112 116 1038 143 q 1254 90 1186 90 q 1385 117 1338 90 q 1433 202 1433 144 q 1407 270 1433 247 q 1308 309 1381 293 q 1237 323 1281 315 q 1157 341 1193 332 q 1016 419 1058 368 q 975 545 975 470 q 994 633 975 592 q 1052 707 1013 675 q 1149 758 1090 739 q 1280 777 1208 777 q 1418 760 1348 777 q 1533 719 1487 743 l 1533 583 l 1526 583 q 1408 644 1477 619 q 1271 669 1338 669 q 1153 642 1201 669 q 1105 562 1105 615 q 1134 491 1105 515 q 1226 452 1162 467 q 1305 436 1261 444 q 1378 421 1348 428 q 1514 351 1466 401 q 1563 218 1563 301 "},"Ề":{"x_min":28.171875,"x_max":801.015625,"ha":878,"o":"m 801 0 l 136 0 l 136 1010 l 801 1010 l 801 891 l 270 891 l 270 614 l 801 614 l 801 495 l 270 495 l 270 119 l 801 119 l 801 0 m 699 1133 l 591 1133 l 466 1306 l 341 1133 l 236 1133 l 390 1390 l 544 1390 l 699 1133 m 263 1210 l 175 1210 l 28 1390 l 179 1390 l 263 1210 "},"₪":{"x_min":102,"x_max":1059,"ha":1159,"o":"m 1059 303 q 981 67 1059 139 q 754 0 909 0 l 382 0 l 382 519 l 499 519 l 499 133 l 752 133 q 902 178 859 133 q 942 307 942 220 l 942 859 l 1059 859 l 1059 303 m 779 339 l 662 339 l 662 551 q 622 680 662 639 q 472 726 579 726 l 219 726 l 219 0 l 102 0 l 102 859 l 474 859 q 701 791 629 859 q 779 555 779 719 l 779 339 "},"Ĕ":{"x_min":136,"x_max":801.015625,"ha":878,"o":"m 801 0 l 136 0 l 136 1010 l 801 1010 l 801 891 l 270 891 l 270 614 l 801 614 l 801 495 l 270 495 l 270 119 l 801 119 l 801 0 m 736 1390 q 668 1203 736 1276 q 484 1131 600 1131 q 300 1203 368 1131 q 233 1390 233 1276 l 342 1390 q 387 1259 350 1300 q 485 1219 423 1219 q 581 1259 545 1219 q 627 1390 617 1300 l 736 1390 "},"ļ":{"x_min":3.59375,"x_max":332,"ha":382,"o":"m 224 0 l 127 0 l 127 1056 l 255 1056 l 255 14 l 328 14 q 330 -17 328 1 q 332 -60 332 -35 q 272 -228 332 -170 q 123 -287 213 -287 q 64 -282 98 -287 q 3 -270 30 -278 l 3 -162 l 9 -162 q 52 -177 25 -169 q 105 -185 78 -185 q 196 -158 168 -185 q 224 -72 224 -131 q 224 -41 224 -58 q 224 0 224 -23 "},"ị":{"x_min":119,"x_max":263,"ha":382,"o":"m 263 885 l 119 885 l 119 1017 l 263 1017 l 263 885 m 255 0 l 127 0 l 127 758 l 255 758 l 255 0 m 263 -259 l 119 -259 l 119 -127 l 263 -127 l 263 -259 "},"Ѓ":{"x_min":136,"x_max":788.125,"ha":787,"o":"m 788 891 l 270 891 l 270 0 l 136 0 l 136 1010 l 788 1010 l 788 891 m 689 1376 l 503 1123 l 402 1123 l 524 1376 l 689 1376 "},"ò":{"x_min":72,"x_max":771,"ha":843,"o":"m 771 378 q 676 86 771 193 q 421 -21 581 -21 q 166 86 261 -21 q 72 378 72 193 q 166 671 72 563 q 421 779 261 779 q 676 671 581 779 q 771 378 771 563 m 639 378 q 581 597 639 525 q 421 669 524 669 q 260 597 318 669 q 203 378 203 525 q 261 162 203 236 q 421 88 318 88 q 581 161 523 88 q 639 378 639 234 m 496 884 l 395 884 l 210 1137 l 375 1137 l 496 884 "},"^":{"x_min":126.140625,"x_max":1010.46875,"ha":1137,"o":"m 1010 464 l 876 464 l 567 890 l 259 463 l 126 463 l 525 1011 l 611 1011 l 1010 464 "},"∙":{"x_min":172,"x_max":334,"ha":506,"o":"m 334 347 l 172 347 l 172 539 l 334 539 l 334 347 "},"ⁿ":{"x_min":104,"x_max":655,"ha":757,"o":"m 655 376 l 538 376 l 538 737 q 533 821 538 785 q 514 881 528 857 q 473 918 499 906 q 403 930 447 930 q 311 907 359 930 q 220 850 264 884 l 220 376 l 104 376 l 104 1013 l 220 1013 l 220 942 q 325 1008 270 984 q 437 1032 380 1032 q 598 969 542 1032 q 655 790 655 906 l 655 376 "},"к":{"x_min":131,"x_max":808.6875,"ha":822,"o":"m 808 0 l 641 0 l 327 348 l 258 348 l 258 0 l 131 0 l 131 758 l 258 758 l 258 431 q 359 453 321 431 q 425 526 398 476 q 444 565 435 544 q 462 605 453 586 q 550 720 497 682 q 702 758 603 758 l 760 758 l 760 648 l 704 648 q 620 625 650 648 q 565 545 590 602 q 508 450 538 481 q 444 402 478 418 l 808 0 "},"ū":{"x_min":120,"x_max":754,"ha":879,"o":"m 754 0 l 626 0 l 626 83 q 502 6 561 33 q 372 -21 443 -21 q 186 51 252 -21 q 120 266 120 124 l 120 758 l 248 758 l 248 326 q 253 227 248 268 q 276 157 258 186 q 323 113 294 127 q 408 100 353 100 q 516 125 458 100 q 626 191 575 151 l 626 758 l 754 758 l 754 0 m 694 906 l 191 906 l 191 1011 l 694 1011 l 694 906 "},"ˆ":{"x_min":210.234375,"x_max":673.421875,"ha":883,"o":"m 673 880 l 565 880 l 440 1053 l 315 880 l 210 880 l 364 1137 l 518 1137 l 673 880 "},"Ẅ":{"x_min":61.890625,"x_max":1310.359375,"ha":1373,"o":"m 1310 1010 l 1047 0 l 896 0 l 684 838 l 476 0 l 329 0 l 61 1010 l 199 1010 l 411 170 l 620 1010 l 756 1010 l 967 162 l 1178 1010 l 1310 1010 m 896 1138 l 761 1138 l 761 1270 l 896 1270 l 896 1138 m 616 1138 l 481 1138 l 481 1270 l 616 1270 l 616 1138 "},"￦":{"x_min":62,"x_max":1310.359375,"ha":1373,"o":"m 1310 1010 l 1233 713 l 1309 713 l 1309 604 l 1204 604 l 1159 428 l 1309 428 l 1309 319 l 1130 319 l 1047 0 l 896 0 l 816 319 l 555 319 l 476 0 l 329 0 l 245 319 l 62 319 l 62 428 l 215 428 l 169 604 l 62 604 l 62 713 l 140 713 l 62 1010 l 199 1010 l 274 713 l 546 713 l 620 1010 l 757 1010 l 830 713 l 1104 713 l 1178 1010 l 1310 1010 m 1077 604 l 858 604 l 902 428 l 1033 428 l 1077 604 m 716 713 l 684 839 l 653 713 l 716 713 m 1006 319 l 929 319 l 967 162 l 1006 319 m 788 428 l 744 604 l 626 604 l 582 428 l 788 428 m 519 604 l 302 604 l 346 428 l 475 428 l 519 604 m 448 319 l 374 319 l 411 170 l 448 319 "},"č":{"x_min":71,"x_max":685,"ha":723,"o":"m 685 47 q 564 0 621 17 q 442 -17 506 -17 q 291 7 360 -17 q 174 80 223 31 q 98 203 125 128 q 71 378 71 278 q 173 670 71 564 q 442 776 275 776 q 570 757 507 776 q 685 712 632 739 l 685 571 l 678 571 q 557 640 619 616 q 436 665 495 665 q 265 592 328 665 q 203 378 203 519 q 264 167 203 241 q 436 94 325 94 q 515 104 475 94 q 587 130 555 114 q 639 160 615 144 q 678 188 663 176 l 685 188 l 685 47 m 663 1137 l 508 880 l 354 880 l 200 1137 l 308 1137 l 433 963 l 558 1137 l 663 1137 "},"’":{"x_min":108.5,"x_max":385.875,"ha":373,"o":"m 385 1056 l 202 677 l 108 677 l 220 1056 l 385 1056 "},"Ν":{"x_min":136,"x_max":906,"ha":1039,"o":"m 906 0 l 740 0 l 261 903 l 261 0 l 136 0 l 136 1010 l 343 1010 l 781 185 l 781 1010 l 906 1010 l 906 0 "},"-":{"x_min":104,"x_max":527,"ha":631,"o":"m 527 381 l 104 381 l 104 504 l 527 504 l 527 381 "},"Q":{"x_min":78,"x_max":1035.71875,"ha":1093,"o":"m 1035 -247 q 954 -262 994 -258 q 873 -267 914 -267 q 682 -202 754 -267 q 610 -15 610 -137 q 575 -20 591 -20 q 546 -20 560 -20 q 352 15 439 -20 q 204 117 265 50 q 110 282 143 184 q 78 505 78 379 q 110 726 78 628 q 205 894 143 824 q 353 995 265 960 q 546 1031 442 1031 q 741 995 655 1031 q 888 894 828 959 q 983 727 950 826 q 1016 504 1016 629 q 940 192 1016 319 q 738 15 864 65 q 772 -105 738 -62 q 896 -148 806 -148 q 963 -139 924 -148 q 1017 -124 1001 -130 l 1035 -124 l 1035 -247 m 876 504 q 787 808 876 701 q 547 915 699 915 q 305 808 393 915 q 218 504 218 701 q 307 200 218 305 q 547 95 396 95 q 786 200 697 95 q 876 504 876 305 "},"ј":{"x_min":-42,"x_max":362,"ha":479,"o":"m 362 885 l 218 885 l 218 1017 l 362 1017 l 362 885 m 354 -18 q 286 -219 354 -151 q 104 -287 218 -287 q 32 -281 76 -287 q -42 -268 -12 -276 l -42 -147 l -35 -147 q 16 -163 -16 -154 q 78 -173 48 -173 q 157 -159 127 -173 q 202 -118 187 -145 q 221 -53 217 -91 q 226 40 226 -14 l 226 651 l 67 651 l 67 758 l 354 758 l 354 -18 "},"ě":{"x_min":72,"x_max":760,"ha":828,"o":"m 760 365 l 202 365 q 223 243 202 295 q 280 158 244 191 q 364 109 315 125 q 471 93 412 93 q 626 124 548 93 q 738 185 704 155 l 745 185 l 745 45 q 613 0 680 18 q 472 -18 546 -18 q 177 84 283 -18 q 72 374 72 186 q 173 669 72 560 q 440 779 274 779 q 676 689 593 779 q 760 434 760 599 l 760 365 m 635 463 q 585 618 635 563 q 433 674 535 674 q 270 613 331 674 q 202 463 210 552 l 635 463 m 668 1136 l 514 880 l 360 880 l 206 1136 l 313 1136 l 439 963 l 563 1136 l 668 1136 "},"œ":{"x_min":72,"x_max":1295,"ha":1363,"o":"m 1295 366 l 750 366 q 770 243 750 295 q 825 159 790 192 q 909 109 861 125 q 1012 94 956 94 q 1155 120 1086 94 q 1272 185 1225 147 l 1281 185 l 1281 46 q 1149 0 1214 18 q 1013 -17 1085 -17 q 821 24 899 -17 q 692 135 742 65 q 575 19 645 60 q 415 -21 504 -21 q 164 86 257 -21 q 72 378 72 193 q 166 672 72 566 q 415 779 261 779 q 578 738 510 779 q 691 619 645 697 q 812 735 739 691 q 982 779 885 779 q 1215 688 1135 779 q 1295 435 1295 597 l 1295 366 m 1170 464 q 1120 621 1170 569 q 975 674 1071 674 q 821 618 881 674 q 751 464 762 562 l 1170 464 m 627 378 q 571 596 627 524 q 415 669 515 669 q 257 593 312 669 q 203 378 203 517 q 260 161 203 234 q 415 88 316 88 q 571 161 515 88 q 627 378 627 233 "},"Ộ":{"x_min":78,"x_max":1016,"ha":1093,"o":"m 888 894 q 983 728 950 826 q 1016 505 1016 630 q 982 281 1016 380 q 888 116 948 182 q 740 13 826 48 q 546 -21 655 -21 q 353 14 440 -21 q 204 116 265 49 q 110 281 143 184 q 78 505 78 379 q 110 726 78 628 q 205 894 143 824 q 353 996 265 961 q 546 1032 442 1032 q 741 996 655 1032 q 888 894 828 960 m 876 505 q 787 809 876 702 q 547 916 699 916 q 305 809 393 916 q 218 505 218 702 q 307 200 218 306 q 547 95 396 95 q 786 200 697 95 q 876 505 876 306 m 775 1133 l 667 1133 l 542 1307 l 417 1133 l 312 1133 l 466 1390 l 621 1390 l 775 1133 m 619 -259 l 475 -259 l 475 -127 l 619 -127 l 619 -259 "},"Ậ":{"x_min":17.1875,"x_max":931.578125,"ha":949,"o":"m 931 0 l 788 0 l 689 282 l 252 282 l 153 0 l 17 0 l 384 1010 l 564 1010 l 931 0 m 648 397 l 471 893 l 293 397 l 648 397 m 705 1120 l 597 1120 l 471 1293 l 346 1120 l 241 1120 l 396 1376 l 550 1376 l 705 1120 m 543 -259 l 399 -259 l 399 -127 l 543 -127 l 543 -259 "},"#":{"x_min":132,"x_max":1004,"ha":1136,"o":"m 1004 633 l 778 633 l 715 378 l 925 378 l 925 286 l 692 286 l 621 0 l 534 0 l 604 286 l 421 286 l 350 0 l 263 0 l 333 286 l 132 286 l 132 378 l 357 378 l 420 633 l 211 633 l 211 725 l 443 725 l 515 1010 l 602 1010 l 531 724 l 714 724 l 785 1011 l 873 1011 l 802 725 l 1004 725 l 1004 633 m 692 634 l 506 634 l 443 376 l 629 376 l 692 634 "},"Џ":{"x_min":136,"x_max":908,"ha":1044,"o":"m 459 0 l 136 0 l 136 1010 l 270 1010 l 270 117 l 774 117 l 774 1010 l 908 1010 l 908 0 l 586 0 l 586 -228 l 459 -228 l 459 0 "},"Å":{"x_min":17.9375,"x_max":932.390625,"ha":950,"o":"m 932 0 l 789 0 l 688 282 l 254 282 l 154 0 l 17 0 l 370 954 q 273 1038 309 984 q 237 1162 237 1092 q 306 1325 237 1259 q 474 1391 375 1391 q 643 1325 574 1391 q 712 1161 712 1259 q 676 1038 712 1094 q 580 954 640 983 l 932 0 m 610 1160 q 571 1257 610 1218 q 474 1297 532 1297 q 377 1257 416 1297 q 339 1160 339 1218 q 377 1063 339 1102 q 474 1024 416 1024 q 571 1063 532 1024 q 610 1160 610 1102 m 646 397 l 471 882 l 296 397 l 646 397 "},"ș":{"x_min":74.15625,"x_max":666,"ha":723,"o":"m 666 218 q 580 48 666 114 q 346 -18 494 -18 q 191 2 261 -18 q 74 45 121 22 l 74 189 l 80 189 q 214 116 140 143 q 356 90 288 90 q 488 117 440 90 q 536 202 536 144 q 510 270 536 247 q 410 309 484 293 q 339 323 383 315 q 260 341 296 332 q 118 419 160 368 q 77 544 77 470 q 96 632 77 591 q 154 706 115 674 q 251 757 192 738 q 382 776 310 776 q 520 759 450 776 q 635 718 589 742 l 635 583 l 628 583 q 510 643 580 618 q 373 668 440 668 q 255 641 303 668 q 207 561 207 614 q 236 491 207 515 q 328 452 264 467 q 407 436 364 444 q 480 421 451 428 q 617 351 569 401 q 666 218 666 301 m 452 -78 l 333 -287 l 234 -287 l 302 -78 l 452 -78 "},"Ә":{"x_min":78,"x_max":971,"ha":1048,"o":"m 971 505 q 864 135 971 274 q 524 -21 746 -21 q 198 116 317 -21 q 94 348 120 207 q 78 605 78 436 l 824 605 q 730 818 808 734 q 510 912 643 912 q 195 817 318 912 l 184 817 l 184 966 q 509 1029 332 1029 q 859 881 739 1029 q 971 505 971 743 m 829 484 l 220 484 q 288 217 220 319 q 524 95 369 95 q 761 217 681 95 q 829 484 829 319 "},"¸":{"x_min":239.71875,"x_max":597,"ha":883,"o":"m 597 -60 q 534 -228 597 -170 q 373 -287 472 -287 q 309 -282 348 -287 q 239 -269 270 -277 l 239 -161 l 245 -161 q 293 -176 263 -167 q 356 -185 322 -185 q 459 -158 426 -185 q 492 -72 492 -132 q 492 -27 492 -52 q 487 14 492 -3 l 591 14 q 594 -16 592 1 q 597 -60 597 -34 "},"=":{"x_min":166,"x_max":970,"ha":1136,"o":"m 970 531 l 166 531 l 166 640 l 970 640 l 970 531 m 970 246 l 166 246 l 166 355 l 970 355 l 970 246 "},"ạ":{"x_min":71,"x_max":715,"ha":835,"o":"m 715 0 l 588 0 l 588 80 q 542 48 571 69 q 486 15 513 27 q 413 -10 454 0 q 316 -21 371 -21 q 142 47 213 -21 q 71 221 71 115 q 108 361 71 307 q 213 445 145 414 q 379 487 282 476 q 588 498 477 498 l 588 518 q 572 591 588 562 q 528 637 557 620 q 463 658 501 652 q 384 664 425 664 q 272 650 334 664 q 144 612 210 637 l 138 612 l 138 742 q 245 764 175 752 q 385 777 316 777 q 524 763 465 777 q 627 718 583 750 q 692 637 670 687 q 715 514 715 588 l 715 0 m 588 186 l 588 396 q 450 388 529 396 q 325 368 371 381 q 236 319 270 352 q 202 229 202 286 q 241 130 202 163 q 362 98 281 98 q 484 124 429 98 q 588 186 540 150 m 433 -259 l 289 -259 l 289 -127 l 433 -127 l 433 -259 "},"ρ":{"x_min":125,"x_max":794.5625,"ha":868,"o":"m 794 391 q 700 100 794 216 q 455 -15 606 -15 q 356 -2 411 -15 q 252 38 300 9 l 252 -280 l 125 -280 l 125 438 q 149 584 125 521 q 217 692 173 647 q 323 756 260 734 q 456 779 386 779 q 707 679 620 779 q 794 391 794 579 m 663 383 q 608 600 663 531 q 455 670 554 670 q 299 604 347 670 q 252 416 252 539 l 252 142 q 342 109 301 119 q 433 100 382 100 q 603 175 543 100 q 663 383 663 250 "},"Ћ":{"x_min":-1,"x_max":1039,"ha":1135,"o":"m 425 1 l 291 1 l 291 892 l -1 892 l -1 1011 l 764 1011 l 764 892 l 425 892 l 425 574 q 572 612 489 595 q 726 630 656 630 q 852 613 794 630 q 951 560 909 596 q 1015 469 992 524 q 1039 336 1039 414 l 1039 1 l 905 1 l 905 269 q 897 367 905 319 q 869 443 890 414 q 807 491 848 474 q 698 508 766 508 q 560 495 626 508 q 425 459 494 482 l 425 1 "},"ú":{"x_min":120,"x_max":754,"ha":879,"o":"m 754 0 l 626 0 l 626 83 q 502 6 561 33 q 372 -21 443 -21 q 186 51 252 -21 q 120 266 120 124 l 120 758 l 248 758 l 248 326 q 253 227 248 268 q 276 157 258 186 q 323 113 294 127 q 408 100 353 100 q 516 125 458 100 q 626 191 575 151 l 626 758 l 754 758 l 754 0 m 640 1137 l 455 884 l 355 884 l 476 1137 l 640 1137 "},"˚":{"x_min":204,"x_max":679,"ha":883,"o":"m 679 1106 q 609 942 679 1009 q 441 875 540 875 q 273 941 343 875 q 204 1106 204 1008 q 273 1269 204 1203 q 441 1336 342 1336 q 610 1269 541 1336 q 679 1106 679 1203 m 581 1106 q 541 1204 581 1164 q 441 1245 501 1245 q 341 1205 381 1245 q 302 1106 302 1165 q 342 1007 302 1047 q 441 967 382 967 q 541 1007 501 967 q 581 1106 581 1047 "},"д":{"x_min":6,"x_max":813,"ha":863,"o":"m 813 -182 l 694 -182 l 694 2 l 125 2 l 125 -182 l 6 -182 l 6 108 l 88 108 q 206 410 167 239 q 246 758 246 582 l 722 758 l 722 108 l 813 108 l 813 -182 m 594 109 l 594 651 l 361 651 q 315 340 361 480 q 214 109 270 199 l 594 109 "},"¯":{"x_min":-1,"x_max":886,"ha":883,"o":"m 886 1132 l -1 1132 l -1 1213 l 886 1213 l 886 1132 "},"u":{"x_min":120,"x_max":754,"ha":879,"o":"m 754 0 l 626 0 l 626 83 q 502 6 561 33 q 372 -21 443 -21 q 186 51 252 -21 q 120 266 120 124 l 120 758 l 248 758 l 248 326 q 253 227 248 268 q 276 157 258 186 q 323 113 294 127 q 408 100 353 100 q 516 125 458 100 q 626 191 575 151 l 626 758 l 754 758 l 754 0 "},"З":{"x_min":55,"x_max":785,"ha":856,"o":"m 709 486 q 763 414 742 458 q 785 301 785 370 q 754 172 785 230 q 675 74 723 114 q 543 5 621 28 q 375 -18 465 -18 q 190 0 275 -18 q 55 39 105 19 l 55 190 l 65 190 q 216 124 132 149 q 377 99 301 99 q 483 113 426 99 q 575 155 540 127 q 629 223 612 185 q 646 308 646 261 q 625 395 646 361 q 570 451 605 430 q 486 480 535 471 q 377 490 437 490 l 241 490 l 241 605 l 362 605 q 550 648 479 605 q 622 772 622 691 q 604 837 622 809 q 554 881 586 865 q 486 904 524 897 q 397 912 449 912 q 299 901 344 912 q 215 877 255 891 q 148 848 182 866 q 99 822 114 830 l 90 822 l 90 970 q 225 1010 141 992 q 394 1029 309 1029 q 538 1015 478 1029 q 649 972 598 1002 q 730 893 702 940 q 758 786 758 847 q 702 640 758 700 q 562 562 647 581 l 562 552 q 637 530 597 546 q 709 486 677 514 "},"Α":{"x_min":17.625,"x_max":931.796875,"ha":949,"o":"m 931 0 l 788 0 l 689 282 l 252 282 l 153 0 l 17 0 l 385 1010 l 564 1010 l 931 0 m 648 397 l 471 893 l 293 397 l 648 397 "},"⅝":{"x_min":93.640625,"x_max":1327,"ha":1389,"o":"m 538 588 q 521 500 538 541 q 472 430 504 459 q 393 384 439 401 q 288 367 347 367 q 184 376 235 367 q 93 403 134 385 l 93 511 l 104 511 q 179 479 129 497 q 281 461 228 461 q 339 468 311 461 q 385 495 366 476 q 413 538 405 515 q 421 587 421 560 q 410 635 421 615 q 380 668 400 654 q 329 688 360 682 q 263 694 299 694 q 187 689 223 694 q 125 680 150 684 l 125 1016 l 529 1016 l 529 922 l 231 922 l 231 781 q 261 784 244 784 q 287 784 277 784 q 384 776 344 784 q 459 745 424 768 q 517 683 497 721 q 538 588 538 645 m 1017 1010 l 488 0 l 376 0 l 905 1010 l 1017 1010 m 1327 170 q 1258 33 1327 88 q 1084 -21 1189 -21 q 905 33 970 -21 q 841 168 841 87 q 872 262 841 222 q 965 329 904 303 l 965 332 q 885 394 909 360 q 862 475 862 427 q 924 595 862 547 q 1085 643 987 643 q 1247 597 1186 643 q 1309 481 1309 551 q 1281 396 1309 438 q 1199 330 1254 354 l 1199 327 q 1295 264 1264 301 q 1327 170 1327 228 m 1198 469 q 1168 528 1198 504 q 1085 553 1139 553 q 1006 531 1038 553 q 975 473 975 510 q 991 427 975 448 q 1038 393 1007 406 q 1078 376 1053 386 q 1133 358 1102 365 q 1185 409 1172 383 q 1198 469 1198 436 m 1214 171 q 1195 225 1214 205 q 1132 265 1176 245 q 1086 281 1116 272 q 1028 301 1057 291 q 970 248 989 279 q 951 183 951 216 q 990 101 951 133 q 1085 69 1030 69 q 1177 95 1140 69 q 1214 171 1214 122 "},"ẻ":{"x_min":72,"x_max":760,"ha":828,"o":"m 760 365 l 202 365 q 222 243 202 295 q 280 158 243 191 q 364 109 315 125 q 470 93 412 93 q 626 124 548 93 q 738 185 704 155 l 745 185 l 745 45 q 613 0 680 18 q 472 -18 546 -18 q 177 84 283 -18 q 72 374 72 186 q 173 669 72 560 q 440 779 274 779 q 676 689 593 779 q 760 434 760 599 l 760 365 m 635 463 q 585 618 635 563 q 433 674 535 674 q 270 613 331 674 q 202 463 210 552 l 635 463 m 570 1036 q 547 966 570 993 q 480 926 525 940 l 480 880 l 405 880 l 405 961 q 453 983 437 969 q 470 1023 470 996 q 457 1052 470 1039 q 421 1066 444 1066 q 388 1062 400 1066 q 359 1053 375 1059 l 357 1053 l 357 1124 q 395 1132 370 1128 q 445 1137 419 1137 q 535 1107 500 1137 q 570 1036 570 1078 "},"ẵ":{"x_min":71,"x_max":715,"ha":835,"o":"m 715 0 l 588 0 l 588 81 q 541 48 570 69 q 485 15 513 28 q 412 -10 454 0 q 315 -21 371 -21 q 142 47 213 -21 q 71 221 71 115 q 107 361 71 307 q 213 445 144 414 q 379 487 282 476 q 588 498 476 498 l 588 517 q 572 590 588 561 q 528 636 557 619 q 463 657 501 652 q 384 663 425 663 q 272 649 334 663 q 144 612 210 636 l 138 612 l 138 741 q 245 763 175 751 q 385 776 316 776 q 524 762 465 776 q 627 717 583 749 q 692 637 670 686 q 715 514 715 587 l 715 0 m 588 186 l 588 396 q 450 388 529 396 q 325 368 371 381 q 236 319 270 352 q 202 229 202 286 q 241 130 202 163 q 362 98 281 98 q 484 124 429 98 q 588 186 540 150 m 644 1090 q 583 915 644 979 q 420 852 523 852 q 257 915 317 852 q 197 1090 197 979 l 307 1090 q 335 971 307 1005 q 420 938 364 938 q 505 971 476 938 q 534 1090 534 1005 l 644 1090 m 662 1366 q 616 1224 662 1273 q 505 1176 570 1176 q 444 1189 469 1176 q 400 1220 419 1203 q 364 1250 384 1235 q 327 1266 344 1266 q 285 1245 297 1266 q 274 1176 274 1224 l 179 1176 q 225 1316 179 1267 q 336 1366 271 1366 q 397 1351 373 1366 q 441 1320 422 1337 q 477 1291 456 1307 q 514 1276 497 1276 q 555 1296 543 1276 q 568 1366 568 1317 l 662 1366 "},"ữ":{"x_min":120,"x_max":980,"ha":916,"o":"m 754 0 l 626 0 l 626 83 q 502 5 561 32 q 372 -21 443 -21 q 186 51 252 -21 q 120 266 120 124 l 120 758 l 248 758 l 248 326 q 253 227 248 268 q 276 157 258 186 q 323 113 294 127 q 408 100 353 100 q 516 125 458 100 q 626 191 575 151 l 626 758 l 767 758 q 853 780 828 758 q 878 850 878 802 q 870 905 878 874 q 855 952 863 936 l 855 958 l 963 958 q 976 902 972 926 q 980 844 980 878 q 921 710 980 755 q 755 666 863 666 l 754 666 l 754 0 m 718 1099 q 672 943 718 995 q 551 891 627 891 q 482 904 514 891 q 423 942 451 917 q 369 986 391 971 q 320 1001 346 1001 q 266 970 284 1001 q 249 888 249 939 l 162 888 q 210 1042 162 990 q 329 1095 259 1095 q 395 1081 363 1095 q 455 1044 427 1068 q 512 1002 487 1016 q 559 989 537 989 q 613 1020 594 989 q 633 1099 633 1051 l 718 1099 "},"é":{"x_min":72,"x_max":760,"ha":828,"o":"m 760 365 l 202 365 q 223 243 202 295 q 280 158 244 191 q 364 109 315 125 q 471 93 412 93 q 626 124 548 93 q 738 185 704 155 l 745 185 l 745 45 q 613 0 680 18 q 472 -18 546 -18 q 177 84 283 -18 q 72 374 72 186 q 173 669 72 560 q 440 779 274 779 q 676 689 593 779 q 760 434 760 599 l 760 365 m 635 463 q 585 618 635 563 q 433 674 535 674 q 270 613 331 674 q 202 463 210 552 l 635 463 m 651 1137 l 466 883 l 365 883 l 486 1137 l 651 1137 "},"Ş":{"x_min":91,"x_max":870,"ha":950,"o":"m 870 288 q 842 172 870 229 q 765 74 814 114 q 699 32 735 50 q 622 1 664 13 q 625 -27 625 -12 q 625 -59 625 -42 q 564 -226 625 -166 q 399 -287 504 -287 q 335 -282 374 -287 q 266 -269 296 -277 l 266 -159 l 272 -159 q 317 -175 289 -165 q 382 -185 345 -185 q 485 -158 452 -185 q 519 -73 519 -132 q 519 -42 519 -56 q 516 -17 519 -29 q 490 -17 503 -17 q 464 -17 478 -17 q 268 3 355 -17 q 91 62 181 23 l 91 231 l 100 231 q 277 132 177 167 q 466 98 377 98 q 660 144 590 98 q 730 269 730 191 q 696 368 730 336 q 596 418 663 400 q 486 440 545 431 q 360 462 426 449 q 161 560 226 491 q 97 739 97 629 q 204 947 97 866 q 476 1029 311 1029 q 671 1008 582 1029 q 829 958 760 988 l 829 799 l 819 799 q 667 880 761 848 q 475 913 574 913 q 302 868 367 913 q 237 752 237 823 q 269 653 237 689 q 383 598 301 617 q 506 575 426 588 q 642 547 586 561 q 812 457 755 517 q 870 288 870 397 "},"B":{"x_min":136,"x_max":898,"ha":953,"o":"m 898 310 q 869 177 898 235 q 792 82 841 120 q 667 19 735 38 q 494 0 599 0 l 136 0 l 136 1011 l 435 1011 q 600 1002 545 1011 q 705 968 655 994 q 786 893 761 939 q 812 784 812 847 q 775 661 812 712 q 676 580 738 610 l 676 574 q 838 485 779 553 q 898 310 898 416 m 672 766 q 659 828 672 802 q 620 868 647 853 q 542 891 588 887 q 430 896 497 896 l 270 896 l 270 604 l 443 604 q 544 610 506 604 q 613 637 581 616 q 658 689 645 657 q 672 766 672 722 m 758 305 q 739 402 758 366 q 673 463 721 438 q 594 485 640 480 q 481 491 547 491 l 270 491 l 270 115 l 447 115 q 592 124 535 115 q 684 157 648 133 q 740 218 722 184 q 758 305 758 252 "},"…":{"x_min":121,"x_max":1017,"ha":1138,"o":"m 1017 0 l 879 0 l 879 151 l 1017 151 l 1017 0 m 638 0 l 500 0 l 500 151 l 638 151 l 638 0 m 259 0 l 121 0 l 121 151 l 259 151 l 259 0 "},"Ủ":{"x_min":121,"x_max":896,"ha":1017,"o":"m 896 405 q 871 214 896 295 q 792 78 847 132 q 670 2 740 26 q 508 -21 601 -21 q 342 4 413 -21 q 224 78 272 29 q 145 212 169 133 q 121 405 121 291 l 121 1010 l 255 1010 l 255 398 q 266 269 255 316 q 303 182 277 221 q 384 116 333 138 q 508 94 436 94 q 631 116 580 94 q 713 182 682 138 q 750 271 739 221 q 762 395 762 321 l 762 1010 l 896 1010 l 896 405 m 632 1289 q 609 1219 632 1246 q 543 1179 587 1193 l 543 1133 l 468 1133 l 468 1215 q 515 1236 499 1223 q 532 1276 532 1249 q 519 1305 532 1292 q 483 1319 506 1319 q 450 1316 462 1319 q 421 1307 437 1313 l 419 1307 l 419 1377 q 457 1385 432 1381 q 507 1390 481 1390 q 597 1360 562 1390 q 632 1289 632 1331 "},"H":{"x_min":136,"x_max":908,"ha":1044,"o":"m 908 0 l 774 0 l 774 495 l 270 495 l 270 0 l 136 0 l 136 1010 l 270 1010 l 270 614 l 774 614 l 774 1010 l 908 1010 l 908 0 "},"î":{"x_min":-7.265625,"x_max":388.59375,"ha":382,"o":"m 388 880 l 286 880 l 188 1061 l 92 880 l -7 880 l 113 1137 l 267 1137 l 388 880 m 255 0 l 127 0 l 127 758 l 255 758 l 255 0 "},"ν":{"x_min":41.375,"x_max":780.578125,"ha":822,"o":"m 780 758 l 474 0 l 345 0 l 41 758 l 179 758 l 414 154 l 646 758 l 780 758 "},"ư":{"x_min":120,"x_max":980,"ha":916,"o":"m 754 0 l 626 0 l 626 83 q 502 5 561 32 q 372 -21 443 -21 q 186 51 252 -21 q 120 266 120 124 l 120 758 l 248 758 l 248 326 q 253 227 248 268 q 276 157 258 186 q 323 113 294 127 q 408 100 353 100 q 516 125 458 100 q 626 191 575 151 l 626 758 l 767 758 q 853 780 828 758 q 878 850 878 802 q 870 905 878 874 q 855 952 863 936 l 855 958 l 963 958 q 976 902 972 926 q 980 844 980 878 q 921 710 980 755 q 755 666 863 666 l 754 666 l 754 0 "},"▪":{"x_min":89,"x_max":403,"ha":493,"o":"m 403 616 l 403 302 l 89 302 l 89 616 l 403 616 "},"Ό":{"x_min":0.484375,"x_max":1146,"ha":1224,"o":"m 1018 893 q 1113 727 1080 826 q 1146 504 1146 629 q 1112 281 1146 379 q 1018 116 1078 182 q 870 13 956 48 q 676 -21 785 -21 q 483 14 570 -21 q 334 116 395 49 q 240 281 273 183 q 208 504 208 379 q 240 726 208 628 q 335 893 273 824 q 483 995 395 960 q 676 1031 572 1031 q 871 995 785 1031 q 1018 893 958 959 m 1006 504 q 917 808 1006 701 q 677 915 829 915 q 435 808 523 915 q 348 504 348 701 q 437 200 348 305 q 677 95 526 95 q 916 200 827 95 q 1006 504 1006 305 m 165 1011 l 132 750 l 33 750 l 0 1011 l 165 1011 "},"−":{"x_min":149,"x_max":987,"ha":1136,"o":"m 987 388 l 149 388 l 149 497 l 987 497 l 987 388 "},"⅜":{"x_min":94.796875,"x_max":1327,"ha":1389,"o":"m 538 560 q 517 474 538 512 q 464 413 497 436 q 386 377 428 388 q 291 367 345 367 q 187 377 235 367 q 94 406 138 387 l 94 525 l 106 525 q 183 481 131 501 q 289 461 236 461 q 383 485 346 461 q 421 559 421 510 q 387 635 421 615 q 292 656 354 656 l 197 656 l 197 750 l 281 750 q 373 775 341 750 q 405 846 405 801 q 377 910 405 886 q 290 935 349 935 q 193 913 245 935 q 116 869 141 892 l 105 869 l 105 987 q 199 1017 148 1006 q 303 1029 250 1029 q 464 981 406 1029 q 522 867 522 934 q 489 770 522 808 q 405 714 456 732 l 405 709 q 498 661 458 698 q 538 560 538 624 m 1017 1010 l 488 0 l 377 0 l 905 1010 l 1017 1010 m 1327 170 q 1258 33 1327 88 q 1084 -21 1189 -21 q 905 33 970 -21 q 841 168 841 87 q 872 262 841 222 q 965 329 904 303 l 965 332 q 885 394 909 360 q 862 475 862 427 q 924 595 862 547 q 1085 643 987 643 q 1247 597 1186 643 q 1309 481 1309 551 q 1281 396 1309 438 q 1199 330 1254 354 l 1199 327 q 1295 264 1264 301 q 1327 170 1327 228 m 1198 469 q 1168 528 1198 504 q 1085 553 1139 553 q 1006 531 1038 553 q 975 473 975 510 q 991 427 975 448 q 1038 393 1007 406 q 1078 376 1053 386 q 1133 358 1102 365 q 1185 409 1172 383 q 1198 469 1198 436 m 1214 171 q 1195 225 1214 205 q 1132 265 1176 245 q 1086 281 1116 272 q 1028 301 1057 291 q 970 248 989 279 q 951 183 951 216 q 990 101 951 133 q 1085 69 1030 69 q 1177 95 1140 69 q 1214 171 1214 122 "},"₠":{"x_min":69,"x_max":802.40625,"ha":883,"o":"m 802 0 l 373 0 l 373 337 q 142 434 221 337 q 69 679 69 525 q 146 929 69 835 q 377 1031 229 1031 q 590 972 484 1031 l 590 863 l 582 863 q 377 953 485 953 q 212 865 269 953 q 164 678 164 791 q 212 498 164 568 q 373 418 267 418 l 373 687 l 802 687 l 802 606 l 464 606 l 464 418 l 779 418 l 779 337 l 464 337 l 464 81 l 802 81 l 802 0 "},"ā":{"x_min":71,"x_max":715,"ha":835,"o":"m 715 0 l 588 0 l 588 81 q 542 48 571 69 q 486 15 513 27 q 412 -10 454 0 q 315 -21 371 -21 q 142 47 213 -21 q 71 221 71 115 q 107 361 71 307 q 213 445 144 414 q 379 487 282 476 q 588 498 476 498 l 588 517 q 572 590 588 561 q 528 636 557 619 q 463 657 501 652 q 384 663 425 663 q 272 649 334 663 q 144 612 210 636 l 138 612 l 138 741 q 245 763 175 751 q 385 776 316 776 q 524 762 465 776 q 627 717 583 749 q 692 636 670 686 q 715 514 715 587 l 715 0 m 588 186 l 588 396 q 450 388 529 396 q 325 368 371 381 q 236 319 270 352 q 202 229 202 286 q 241 130 202 163 q 362 98 281 98 q 484 124 429 98 q 588 186 540 150 m 667 906 l 164 906 l 164 1011 l 667 1011 l 667 906 "},"ĵ":{"x_min":-42,"x_max":466.578125,"ha":479,"o":"m 354 -18 q 286 -219 354 -151 q 104 -287 218 -287 q 32 -281 76 -287 q -42 -268 -12 -276 l -42 -147 l -35 -147 q 16 -163 -16 -154 q 78 -173 48 -173 q 157 -159 127 -173 q 202 -118 187 -145 q 221 -53 217 -91 q 226 40 226 -14 l 226 651 l 67 651 l 67 758 l 354 758 l 354 -18 m 466 880 l 358 880 l 232 1053 l 108 880 l 2 880 l 157 1137 l 311 1137 l 466 880 "},"Ĩ":{"x_min":31,"x_max":553,"ha":585,"o":"m 492 0 l 93 0 l 93 103 l 226 103 l 226 907 l 93 907 l 93 1010 l 492 1010 l 492 907 l 360 907 l 360 103 l 492 103 l 492 0 m 553 1352 q 510 1197 553 1248 q 398 1146 467 1146 q 334 1158 362 1146 q 280 1196 305 1170 q 228 1239 249 1225 q 186 1254 208 1254 q 138 1223 153 1254 q 123 1141 123 1192 l 31 1141 q 74 1289 31 1233 q 188 1346 117 1346 q 250 1333 222 1346 q 305 1296 278 1321 q 356 1255 333 1269 q 398 1242 379 1242 q 446 1272 429 1242 q 463 1352 463 1303 l 553 1352 "},"*":{"x_min":113.125,"x_max":770.859375,"ha":883,"o":"m 770 602 l 727 527 l 484 672 l 484 428 l 400 428 l 400 672 l 157 527 l 113 601 l 371 742 l 113 882 l 157 956 l 401 812 l 401 1056 l 484 1056 l 484 812 l 727 956 l 770 881 l 513 742 l 770 602 "},"ă":{"x_min":71,"x_max":715,"ha":835,"o":"m 715 0 l 588 0 l 588 81 q 542 48 571 69 q 486 15 513 28 q 412 -10 454 0 q 315 -21 371 -21 q 142 47 213 -21 q 71 221 71 115 q 107 361 71 307 q 213 445 144 414 q 379 487 282 476 q 588 498 476 498 l 588 517 q 572 590 588 561 q 528 636 557 619 q 463 657 501 652 q 384 663 425 663 q 272 649 334 663 q 144 612 210 636 l 138 612 l 138 741 q 245 763 175 751 q 385 776 316 776 q 524 762 465 776 q 627 717 583 749 q 692 637 670 686 q 715 514 715 587 l 715 0 m 588 186 l 588 396 q 450 388 529 396 q 325 368 371 381 q 236 319 270 352 q 202 229 202 286 q 241 130 202 163 q 362 98 281 98 q 484 124 429 98 q 588 186 540 150 m 664 1137 q 596 950 664 1023 q 412 878 528 878 q 228 950 296 878 q 161 1137 161 1023 l 271 1137 q 315 1006 279 1047 q 413 966 351 966 q 510 1006 474 966 q 556 1137 546 1047 l 664 1137 "},"Χ":{"x_min":46.109375,"x_max":906.03125,"ha":951,"o":"m 906 1010 l 557 510 l 905 0 l 750 0 l 474 415 l 192 0 l 46 0 l 398 504 l 54 1010 l 208 1010 l 480 599 l 758 1010 l 906 1010 "},"†":{"x_min":127,"x_max":756,"ha":883,"o":"m 756 703 l 484 703 l 484 92 l 398 92 l 398 703 l 127 703 l 127 787 l 398 787 l 398 1056 l 484 1056 l 484 787 l 756 787 l 756 703 "},"°":{"x_min":104,"x_max":648,"ha":752,"o":"m 648 757 q 569 564 648 643 q 376 486 490 486 q 182 564 261 486 q 104 757 104 642 q 182 950 104 871 q 376 1029 261 1029 q 569 950 491 1029 q 648 757 648 871 m 536 757 q 490 873 536 826 q 376 921 445 921 q 261 873 306 921 q 216 757 216 826 q 262 640 216 686 q 376 594 308 594 q 490 641 445 594 q 536 757 536 688 "},"Ξ":{"x_min":77,"x_max":824,"ha":901,"o":"m 824 891 l 77 891 l 77 1010 l 824 1010 l 824 891 m 788 495 l 112 495 l 112 614 l 788 614 l 788 495 m 824 0 l 77 0 l 77 119 l 824 119 l 824 0 "},"ồ":{"x_min":-18.203125,"x_max":771,"ha":843,"o":"m 771 378 q 676 86 771 193 q 421 -21 581 -21 q 166 86 261 -21 q 72 378 72 193 q 166 671 72 563 q 421 779 261 779 q 676 671 581 779 q 771 378 771 563 m 639 378 q 581 597 639 525 q 421 669 524 669 q 260 597 318 669 q 203 378 203 525 q 261 162 203 236 q 421 88 318 88 q 581 161 523 88 q 639 378 639 234 m 653 880 l 545 880 l 419 1053 l 295 880 l 190 880 l 344 1137 l 498 1137 l 653 880 m 217 957 l 129 957 l -18 1137 l 133 1137 l 217 957 "},"Ķ":{"x_min":139,"x_max":947.015625,"ha":962,"o":"m 947 0 l 772 0 l 373 449 l 273 342 l 273 0 l 139 0 l 139 1010 l 273 1010 l 273 483 l 763 1010 l 925 1010 l 475 535 l 947 0 m 593 -60 q 530 -228 593 -170 q 369 -287 468 -287 q 305 -282 344 -287 q 235 -269 266 -277 l 235 -161 l 241 -161 q 289 -176 259 -167 q 352 -185 318 -185 q 455 -158 422 -185 q 488 -72 488 -132 q 488 -28 488 -52 q 483 14 488 -3 l 587 14 q 590 -16 588 1 q 593 -60 593 -34 "},"ŵ":{"x_min":58.328125,"x_max":1078.296875,"ha":1137,"o":"m 1078 758 l 880 0 l 762 0 l 568 584 l 375 0 l 257 0 l 58 758 l 191 758 l 330 171 l 519 758 l 624 758 l 818 171 l 950 758 l 1078 758 m 800 880 l 692 880 l 566 1053 l 442 880 l 337 880 l 491 1137 l 645 1137 l 800 880 "},"΄":{"x_min":359.4375,"x_max":524.21875,"ha":883,"o":"m 524 1138 l 491 877 l 392 877 l 359 1138 l 524 1138 "},"ǽ":{"x_min":71,"x_max":1258,"ha":1327,"o":"m 1258 379 l 703 379 q 723 246 703 301 q 781 156 743 191 q 864 108 816 123 q 970 93 912 93 q 1118 121 1046 93 q 1235 185 1190 149 l 1243 185 l 1243 45 q 1118 1 1190 21 q 972 -18 1046 -18 q 779 17 859 -18 q 647 122 698 52 q 601 82 633 109 q 536 36 570 55 q 443 -4 494 11 q 315 -20 393 -20 q 142 45 214 -20 q 71 214 71 111 q 107 351 71 299 q 212 431 144 402 q 376 467 277 457 q 585 477 475 477 l 585 518 q 569 592 585 563 q 526 636 553 621 q 460 658 498 652 q 382 664 422 664 q 268 650 328 664 q 145 612 207 636 l 137 612 l 137 741 q 244 764 174 751 q 382 777 314 777 q 562 745 490 777 q 672 652 633 714 q 787 743 719 708 q 940 779 856 779 q 1172 692 1087 779 q 1258 434 1258 605 l 1258 379 m 1133 477 q 1120 557 1133 523 q 1086 617 1107 592 q 1025 659 1062 644 q 935 674 988 674 q 783 623 844 674 q 705 477 722 572 l 1133 477 m 606 201 q 586 282 593 237 q 579 374 579 327 q 442 374 507 374 q 321 359 377 374 q 235 314 268 345 q 202 225 202 283 q 241 128 202 160 q 361 97 281 97 q 493 126 428 97 q 606 201 559 155 m 898 1137 l 713 883 l 612 883 l 733 1137 l 898 1137 "},"Β":{"x_min":136,"x_max":898,"ha":953,"o":"m 898 310 q 869 177 898 235 q 792 82 841 120 q 667 19 735 38 q 494 0 599 0 l 136 0 l 136 1011 l 435 1011 q 600 1002 545 1011 q 705 968 655 994 q 786 893 761 939 q 812 784 812 847 q 775 661 812 712 q 676 580 738 610 l 676 574 q 838 485 779 553 q 898 310 898 416 m 672 766 q 659 828 672 802 q 620 868 647 853 q 542 891 588 887 q 430 896 497 896 l 270 896 l 270 604 l 443 604 q 544 610 506 604 q 613 637 581 616 q 658 689 645 657 q 672 766 672 722 m 758 305 q 739 402 758 366 q 673 463 721 438 q 594 485 640 480 q 481 491 547 491 l 270 491 l 270 115 l 447 115 q 592 124 535 115 q 684 157 648 133 q 740 218 722 184 q 758 305 758 252 "},"Ļ":{"x_min":136,"x_max":774.5625,"ha":773,"o":"m 477 0 l 136 0 l 136 1009 l 270 1009 l 270 119 l 774 119 l 774 0 l 581 0 q 584 -28 583 -12 q 586 -60 586 -44 q 523 -228 586 -170 q 362 -287 461 -287 q 298 -282 337 -287 q 228 -269 259 -277 l 228 -161 l 234 -161 q 281 -176 252 -167 q 345 -185 311 -185 q 449 -158 416 -185 q 483 -72 483 -132 q 480 -31 483 -52 q 477 0 478 -10 "},"Õ":{"x_min":78,"x_max":1016,"ha":1093,"o":"m 888 893 q 983 727 950 826 q 1016 504 1016 629 q 982 281 1016 379 q 888 116 948 182 q 740 13 826 48 q 546 -21 655 -21 q 353 14 440 -21 q 204 116 265 49 q 110 281 143 183 q 78 504 78 379 q 110 726 78 628 q 205 893 143 824 q 353 995 265 960 q 546 1031 442 1031 q 741 995 655 1031 q 888 893 828 959 m 876 504 q 787 808 876 701 q 547 915 699 915 q 305 808 393 915 q 218 504 218 701 q 307 200 218 305 q 547 95 396 95 q 786 200 697 95 q 876 504 876 305 m 815 1352 q 769 1196 815 1248 q 647 1144 724 1144 q 578 1157 610 1144 q 519 1195 547 1170 q 465 1239 487 1224 q 416 1254 443 1254 q 362 1223 380 1254 q 345 1141 345 1193 l 258 1141 q 306 1295 258 1243 q 425 1348 355 1348 q 491 1334 459 1348 q 552 1297 523 1321 q 608 1255 584 1269 q 656 1242 633 1242 q 710 1273 691 1242 q 730 1352 730 1304 l 815 1352 "},"№":{"x_min":136,"x_max":1515,"ha":1628,"o":"m 868 0 l 701 0 l 258 903 l 258 0 l 136 0 l 136 1010 l 344 1010 l 746 185 l 746 1010 l 868 1010 l 868 0 m 1515 729 q 1450 503 1515 577 q 1265 430 1386 430 q 1079 503 1142 430 q 1016 729 1016 577 q 1080 955 1016 881 q 1265 1029 1145 1029 q 1451 954 1388 1029 q 1515 729 1515 879 m 1394 729 q 1364 892 1394 846 q 1265 939 1334 939 q 1166 892 1196 939 q 1137 729 1137 846 q 1166 565 1137 611 q 1265 520 1196 520 q 1364 565 1334 520 q 1394 729 1394 611 m 1113 248 l 1411 248 l 1411 141 l 1113 141 l 1113 248 "},"χ":{"x_min":32.546875,"x_max":786.671875,"ha":819,"o":"m 786 -280 l 642 -280 l 407 140 l 170 -280 l 32 -280 l 333 242 l 40 758 l 184 758 l 411 350 l 641 758 l 779 758 l 485 248 l 786 -280 "},"ί":{"x_min":108.6875,"x_max":273.984375,"ha":382,"o":"m 255 0 l 127 0 l 127 758 l 255 758 l 255 0 m 273 1137 l 240 876 l 141 876 l 108 1137 l 273 1137 "},"Ζ":{"x_min":85,"x_max":873,"ha":951,"o":"m 873 0 l 85 0 l 85 124 l 704 891 l 108 891 l 108 1010 l 858 1010 l 858 888 l 232 119 l 873 119 l 873 0 "},"Ľ":{"x_min":136,"x_max":774.5625,"ha":773,"o":"m 774 0 l 136 0 l 136 1009 l 270 1009 l 270 119 l 774 119 l 774 0 m 642 1055 l 472 713 l 386 713 l 489 1055 l 642 1055 "},"ť":{"x_min":42,"x_max":603.78125,"ha":547,"o":"m 519 6 q 440 -8 483 -2 q 364 -15 398 -15 q 188 47 248 -15 q 128 247 128 109 l 128 651 l 42 651 l 42 758 l 128 758 l 128 975 l 256 975 l 256 758 l 519 758 l 519 651 l 258 651 l 258 305 q 258 212 258 245 q 274 149 258 178 q 316 109 289 122 q 396 97 342 97 q 462 106 428 97 q 512 121 497 115 l 519 121 l 519 6 m 603 1219 l 434 883 l 347 883 l 451 1219 l 603 1219 "},"5":{"x_min":127,"x_max":785,"ha":883,"o":"m 785 320 q 759 185 785 249 q 688 77 733 121 q 572 4 639 29 q 415 -21 504 -21 q 256 -3 333 -21 q 127 37 179 13 l 127 181 l 136 181 q 266 120 191 145 q 412 96 341 96 q 506 109 461 96 q 586 157 551 123 q 631 226 616 186 q 647 321 647 267 q 629 409 647 373 q 579 467 611 445 q 493 503 543 492 q 380 514 442 514 q 265 505 320 514 q 170 489 210 497 l 170 1011 l 777 1011 l 777 892 l 301 892 l 301 622 q 360 627 330 627 q 413 627 391 627 q 557 613 495 627 q 670 564 619 599 q 755 467 725 526 q 785 320 785 408 "},"o":{"x_min":72,"x_max":771,"ha":843,"o":"m 771 378 q 676 86 771 193 q 421 -21 581 -21 q 166 86 261 -21 q 72 378 72 193 q 166 671 72 563 q 421 779 261 779 q 676 671 581 779 q 771 378 771 563 m 639 378 q 581 597 639 525 q 421 669 524 669 q 260 597 318 669 q 203 378 203 525 q 261 162 203 236 q 421 88 318 88 q 581 161 523 88 q 639 378 639 234 "},"₩":{"x_min":62,"x_max":1310.359375,"ha":1373,"o":"m 1310 1010 l 1233 713 l 1309 713 l 1309 604 l 1204 604 l 1159 428 l 1309 428 l 1309 319 l 1130 319 l 1047 0 l 896 0 l 816 319 l 555 319 l 476 0 l 329 0 l 245 319 l 62 319 l 62 428 l 215 428 l 169 604 l 62 604 l 62 713 l 140 713 l 62 1010 l 199 1010 l 274 713 l 546 713 l 620 1010 l 757 1010 l 830 713 l 1104 713 l 1178 1010 l 1310 1010 m 1077 604 l 858 604 l 902 428 l 1033 428 l 1077 604 m 716 713 l 684 839 l 653 713 l 716 713 m 1006 319 l 929 319 l 967 162 l 1006 319 m 788 428 l 744 604 l 626 604 l 582 428 l 788 428 m 519 604 l 302 604 l 346 428 l 475 428 l 519 604 m 448 319 l 374 319 l 411 170 l 448 319 "},"Ѕ":{"x_min":91,"x_max":870,"ha":950,"o":"m 870 288 q 842 172 870 229 q 765 74 815 114 q 638 6 711 30 q 464 -18 566 -18 q 268 2 355 -18 q 91 62 181 22 l 91 231 l 100 231 q 277 132 177 167 q 466 98 377 98 q 660 144 590 98 q 730 269 730 191 q 697 368 730 336 q 597 418 664 400 q 486 440 546 431 q 361 463 427 449 q 161 560 226 491 q 97 740 97 629 q 204 947 97 866 q 476 1029 311 1029 q 671 1008 582 1029 q 829 958 760 988 l 829 800 l 819 800 q 667 880 761 848 q 475 913 574 913 q 302 868 367 913 q 237 752 237 823 q 269 653 237 689 q 384 599 302 618 q 507 575 427 589 q 643 548 587 562 q 812 457 755 518 q 870 288 870 397 "},"□":{"x_min":99,"x_max":739,"ha":839,"o":"m 99 641 l 739 641 l 739 0 l 99 0 l 99 641 m 151 589 l 151 52 l 687 52 l 687 589 l 151 589 "},"₲":{"x_min":78,"x_max":978,"ha":1077,"o":"m 978 74 q 797 8 896 37 q 618 -19 703 -19 l 618 -118 l 538 -118 l 538 -16 q 223 110 341 0 q 78 506 78 247 q 199 868 78 728 q 538 1026 320 1007 l 538 1144 l 618 1144 l 618 1028 q 976 938 792 1028 l 976 778 l 964 778 q 825 866 891 835 q 618 911 729 911 l 618 98 q 845 142 741 98 l 845 390 l 743 390 l 743 508 l 978 508 l 978 74 m 538 100 l 538 912 q 296 781 381 897 q 218 510 218 674 q 320 205 218 315 q 538 100 405 116 "},"d":{"x_min":73,"x_max":739,"ha":864,"o":"m 739 0 l 612 0 l 612 79 q 497 5 557 31 q 368 -21 438 -21 q 152 83 232 -21 q 73 373 73 187 q 100 544 73 469 q 174 672 127 619 q 282 751 220 724 q 409 779 343 779 q 515 766 469 779 q 612 727 561 753 l 612 1056 l 739 1056 l 739 0 m 612 186 l 612 621 q 520 653 560 644 q 431 662 479 662 q 264 587 324 662 q 204 375 204 512 q 250 170 204 240 q 398 100 296 100 q 508 124 452 100 q 612 186 564 148 "},",":{"x_min":99.6875,"x_max":389.953125,"ha":505,"o":"m 389 193 l 198 -251 l 99 -251 l 217 193 l 389 193 "},"\"":{"x_min":128,"x_max":509,"ha":638,"o":"m 509 1056 l 509 663 l 390 663 l 390 1056 l 509 1056 m 247 1056 l 247 663 l 128 663 l 128 1056 l 247 1056 "},"ľ":{"x_min":127,"x_max":578.484375,"ha":412,"o":"m 578 1056 l 408 713 l 322 713 l 425 1056 l 578 1056 m 255 0 l 127 0 l 127 1056 l 255 1056 l 255 0 "},"ė":{"x_min":72,"x_max":760,"ha":828,"o":"m 760 365 l 202 365 q 223 243 202 295 q 280 158 244 191 q 364 109 315 125 q 471 93 412 93 q 626 124 548 93 q 738 185 704 155 l 745 185 l 745 45 q 613 0 680 18 q 472 -18 546 -18 q 177 84 283 -18 q 72 374 72 186 q 173 669 72 560 q 440 779 274 779 q 676 689 593 779 q 760 434 760 599 l 760 365 m 635 463 q 585 618 635 563 q 433 674 535 674 q 270 613 331 674 q 202 463 210 552 l 635 463 m 514 885 l 370 885 l 370 1017 l 514 1017 l 514 885 "},"ề":{"x_min":-2.609375,"x_max":760,"ha":828,"o":"m 760 365 l 202 365 q 223 243 202 295 q 280 158 244 191 q 364 109 315 125 q 471 93 412 93 q 626 124 548 93 q 738 185 704 155 l 745 185 l 745 45 q 613 0 680 18 q 472 -18 546 -18 q 177 84 283 -18 q 72 374 72 186 q 173 669 72 560 q 440 779 274 779 q 676 689 593 779 q 760 434 760 599 l 760 365 m 635 463 q 585 618 635 563 q 433 674 535 674 q 270 613 331 674 q 202 463 210 552 l 635 463 m 668 880 l 561 880 l 435 1053 l 311 880 l 206 880 l 360 1137 l 514 1137 l 668 880 m 233 956 l 145 956 l -2 1137 l 148 1137 l 233 956 "},"Í":{"x_min":93,"x_max":492,"ha":585,"o":"m 492 0 l 93 0 l 93 103 l 225 103 l 225 907 l 93 907 l 93 1010 l 492 1010 l 492 907 l 359 907 l 359 103 l 492 103 l 492 0 m 492 1390 l 306 1137 l 205 1137 l 326 1390 l 492 1390 "},"Ú":{"x_min":121,"x_max":896,"ha":1017,"o":"m 896 405 q 871 214 896 295 q 792 78 847 132 q 670 2 740 26 q 508 -21 601 -21 q 342 4 413 -21 q 224 78 272 29 q 145 212 169 133 q 121 405 121 291 l 121 1010 l 255 1010 l 255 398 q 266 269 255 316 q 303 182 277 221 q 384 116 333 138 q 508 94 436 94 q 631 116 580 94 q 713 182 682 138 q 750 271 739 221 q 762 395 762 321 l 762 1010 l 896 1010 l 896 405 m 728 1390 l 542 1137 l 441 1137 l 563 1390 l 728 1390 "},"Ơ":{"x_min":78,"x_max":1136,"ha":1120,"o":"m 977 744 q 1007 628 998 685 q 1016 505 1016 572 q 982 281 1016 380 q 888 116 948 182 q 740 13 826 48 q 546 -21 655 -21 q 353 14 440 -21 q 204 116 265 49 q 110 281 143 183 q 78 504 78 379 q 110 726 78 628 q 205 893 143 824 q 353 995 265 960 q 546 1031 442 1031 q 741 995 654 1031 q 888 894 827 959 q 912 864 904 876 q 935 833 921 853 q 1011 854 988 833 q 1034 922 1034 876 q 1026 978 1034 947 q 1011 1024 1019 1009 l 1011 1031 l 1119 1031 q 1132 975 1128 999 q 1136 917 1136 951 q 1095 800 1136 844 q 977 744 1054 756 m 876 504 q 787 808 876 701 q 547 915 699 915 q 305 808 393 915 q 218 504 218 701 q 307 200 218 305 q 547 95 396 95 q 786 200 697 95 q 876 504 876 305 "},"Ŷ":{"x_min":4.28125,"x_max":850.359375,"ha":854,"o":"m 850 1010 l 495 442 l 495 0 l 361 0 l 361 428 l 4 1010 l 152 1010 l 428 558 l 707 1010 l 850 1010 m 661 1133 l 553 1133 l 428 1306 l 303 1133 l 198 1133 l 352 1390 l 506 1390 l 661 1133 "},"Ự":{"x_min":121,"x_max":1121,"ha":1051,"o":"m 896 405 q 871 213 896 295 q 792 78 847 132 q 670 2 740 26 q 508 -21 601 -21 q 342 4 413 -21 q 224 78 272 29 q 145 212 169 133 q 121 406 121 291 l 121 1011 l 255 1011 l 255 398 q 266 269 255 316 q 303 182 277 221 q 384 116 333 138 q 508 94 436 94 q 631 116 580 94 q 713 182 682 138 q 750 271 739 221 q 762 395 762 321 l 762 1011 l 908 1011 q 994 1033 969 1011 q 1019 1103 1019 1055 q 1011 1158 1019 1127 q 997 1205 1004 1189 l 997 1211 l 1104 1211 q 1117 1155 1113 1179 q 1121 1097 1121 1131 q 1062 963 1121 1008 q 896 919 1004 919 l 896 405 m 573 -259 l 429 -259 l 429 -127 l 573 -127 l 573 -259 "},"Ý":{"x_min":4.28125,"x_max":850.359375,"ha":854,"o":"m 850 1010 l 495 442 l 495 0 l 361 0 l 361 428 l 4 1010 l 152 1010 l 428 558 l 707 1010 l 850 1010 m 634 1390 l 448 1137 l 348 1137 l 469 1390 l 634 1390 "},"ŝ":{"x_min":74.15625,"x_max":666,"ha":723,"o":"m 666 218 q 580 48 666 114 q 346 -18 494 -18 q 191 2 261 -18 q 74 45 121 22 l 74 189 l 80 189 q 214 116 140 143 q 356 90 288 90 q 488 117 440 90 q 536 202 536 144 q 510 270 536 247 q 410 309 484 293 q 339 323 383 315 q 260 341 296 332 q 118 419 160 368 q 77 545 77 470 q 96 633 77 592 q 154 707 115 675 q 251 758 192 739 q 382 777 310 777 q 520 760 450 777 q 635 719 589 743 l 635 583 l 628 583 q 510 644 580 619 q 373 669 440 669 q 255 642 303 669 q 207 562 207 615 q 236 491 207 515 q 328 452 264 467 q 407 436 364 444 q 480 421 451 428 q 617 351 569 401 q 666 218 666 301 m 617 880 l 510 880 l 384 1054 l 259 880 l 154 880 l 308 1138 l 463 1138 l 617 880 "},"ą":{"x_min":71,"x_max":899.625,"ha":835,"o":"m 899 -265 q 838 -278 864 -274 q 784 -283 813 -283 q 633 -229 690 -283 q 576 -78 576 -175 q 580 -32 576 -52 q 588 0 585 -12 l 588 80 q 541 48 570 69 q 485 15 512 27 q 412 -10 454 0 q 315 -21 371 -21 q 142 47 213 -21 q 71 221 71 115 q 107 361 71 307 q 213 445 144 414 q 379 487 282 476 q 588 498 476 498 l 588 517 q 572 590 588 561 q 528 636 557 619 q 463 657 501 652 q 384 663 425 663 q 272 649 334 663 q 144 612 210 636 l 138 612 l 138 741 q 245 763 175 751 q 385 776 316 776 q 524 762 465 776 q 627 717 583 749 q 692 636 670 686 q 715 514 715 587 l 715 0 l 694 0 q 688 -35 690 -18 q 686 -72 686 -52 q 714 -154 686 -128 q 803 -181 742 -181 q 855 -171 827 -181 q 894 -157 882 -162 l 899 -157 l 899 -265 m 588 186 l 588 396 q 450 388 529 396 q 325 368 371 381 q 236 319 270 352 q 202 229 202 286 q 241 130 202 163 q 362 98 281 98 q 484 124 429 98 q 588 186 540 150 "},"Ắ":{"x_min":17.375,"x_max":931.640625,"ha":949,"o":"m 931 0 l 788 0 l 689 282 l 252 282 l 153 0 l 17 0 l 385 1010 l 563 1010 l 931 0 m 648 397 l 471 893 l 293 397 l 648 397 m 697 1254 q 639 1142 697 1194 q 473 1091 581 1091 q 308 1142 366 1091 q 250 1254 250 1194 l 360 1254 q 385 1191 360 1221 q 473 1162 410 1162 q 560 1192 534 1162 q 587 1254 587 1222 l 697 1254 m 640 1391 l 506 1244 l 418 1244 l 489 1391 l 640 1391 "},"ã":{"x_min":71,"x_max":715,"ha":835,"o":"m 715 0 l 588 0 l 588 80 q 542 48 571 69 q 486 15 513 27 q 412 -10 454 0 q 315 -21 371 -21 q 142 47 213 -21 q 71 221 71 115 q 107 361 71 307 q 213 445 144 414 q 379 487 282 476 q 588 498 476 498 l 588 517 q 572 590 588 561 q 528 636 557 619 q 463 657 501 652 q 384 663 425 663 q 272 649 334 663 q 145 612 210 636 l 138 612 l 138 741 q 245 763 175 751 q 385 776 316 776 q 524 762 465 776 q 627 717 583 749 q 692 636 670 686 q 715 514 715 587 l 715 0 m 588 186 l 588 396 q 450 388 529 396 q 325 368 371 381 q 236 319 270 352 q 202 229 202 286 q 241 130 202 163 q 362 98 281 98 q 484 124 429 98 q 588 186 540 150 m 700 1099 q 654 943 700 995 q 533 891 609 891 q 464 904 496 891 q 405 942 433 917 q 351 986 373 971 q 302 1001 328 1001 q 248 970 266 1001 q 231 888 231 940 l 144 888 q 192 1042 144 990 q 311 1095 241 1095 q 377 1081 345 1095 q 438 1044 409 1068 q 494 1002 469 1016 q 541 989 519 989 q 595 1020 576 989 q 615 1099 615 1051 l 700 1099 "},"æ":{"x_min":71,"x_max":1258,"ha":1327,"o":"m 1258 379 l 703 379 q 723 246 703 301 q 781 156 743 191 q 864 108 816 123 q 970 93 912 93 q 1118 121 1046 93 q 1235 185 1190 149 l 1243 185 l 1243 45 q 1118 1 1190 21 q 972 -18 1046 -18 q 779 17 859 -18 q 647 122 698 52 q 601 82 633 109 q 536 36 570 55 q 443 -4 494 11 q 315 -20 393 -20 q 142 45 214 -20 q 71 214 71 111 q 107 351 71 299 q 212 431 144 402 q 376 467 277 457 q 585 477 475 477 l 585 518 q 569 592 585 563 q 526 636 553 621 q 460 658 498 652 q 382 664 422 664 q 268 650 328 664 q 145 612 207 636 l 137 612 l 137 741 q 244 764 174 751 q 382 777 314 777 q 562 745 490 777 q 672 652 633 714 q 787 743 719 708 q 940 779 856 779 q 1172 692 1087 779 q 1258 434 1258 605 l 1258 379 m 1133 477 q 1120 557 1133 523 q 1086 617 1107 592 q 1025 659 1062 644 q 935 674 988 674 q 783 623 844 674 q 705 477 722 572 l 1133 477 m 606 201 q 586 282 593 237 q 579 374 579 327 q 442 374 507 374 q 321 359 377 374 q 235 314 268 345 q 202 225 202 283 q 241 128 202 160 q 361 97 281 97 q 493 126 428 97 q 606 201 559 155 "},"ĩ":{"x_min":-9,"x_max":392,"ha":382,"o":"m 255 0 l 127 0 l 127 758 l 255 758 l 255 0 m 392 1082 q 357 951 392 995 q 267 907 322 907 q 220 915 240 907 q 180 946 201 924 q 143 981 159 970 q 113 993 128 993 q 78 969 89 993 q 67 902 67 946 l -9 902 q 26 1033 -9 989 q 114 1078 61 1078 q 163 1068 146 1078 q 201 1038 180 1059 q 239 1003 224 1014 q 269 992 254 992 q 304 1016 293 992 q 316 1082 316 1040 l 392 1082 "},"~":{"x_min":127,"x_max":1009,"ha":1137,"o":"m 1009 629 q 995 496 1009 561 q 950 380 981 431 q 875 298 919 328 q 762 269 830 269 q 649 295 698 269 q 542 392 599 322 q 441 498 473 476 q 375 520 410 520 q 276 460 310 520 q 242 268 242 401 l 127 268 q 141 400 127 335 q 185 516 155 464 q 261 598 214 567 q 373 629 307 629 q 486 602 436 629 q 593 505 535 576 q 682 408 647 439 q 758 378 717 378 q 861 446 828 378 q 895 629 895 514 l 1009 629 "},"ŀ":{"x_min":127,"x_max":588,"ha":638,"o":"m 255 0 l 127 0 l 127 1056 l 255 1056 l 255 0 m 588 353 l 431 353 l 431 533 l 588 533 l 588 353 "},"Ċ":{"x_min":78,"x_max":916,"ha":970,"o":"m 916 73 q 848 43 878 57 q 769 13 818 28 q 679 -8 727 0 q 572 -18 630 -18 q 372 12 462 -18 q 216 109 282 43 q 114 273 151 174 q 78 504 78 372 q 113 727 78 629 q 215 893 148 826 q 370 994 279 959 q 573 1029 462 1029 q 735 1009 654 1029 q 916 939 816 989 l 916 781 l 905 781 q 740 882 822 850 q 564 914 658 914 q 426 889 487 914 q 317 812 365 864 q 244 683 270 761 q 218 504 218 606 q 246 321 218 397 q 321 196 275 244 q 431 122 368 146 q 565 98 495 98 q 747 131 662 98 q 906 231 832 164 l 916 231 l 916 73 m 627 1138 l 483 1138 l 483 1270 l 627 1270 l 627 1138 "},"¡":{"x_min":204,"x_max":342,"ha":546,"o":"m 342 867 l 204 867 l 204 1010 l 342 1010 l 342 867 m 340 0 l 206 0 l 206 732 l 340 732 l 340 0 "},"ẅ":{"x_min":58.15625,"x_max":1078.078125,"ha":1136,"o":"m 1078 758 l 880 0 l 762 0 l 568 584 l 374 0 l 257 0 l 58 758 l 191 758 l 330 171 l 519 758 l 624 758 l 818 171 l 949 758 l 1078 758 m 779 885 l 644 885 l 644 1017 l 779 1017 l 779 885 m 499 885 l 364 885 l 364 1017 l 499 1017 l 499 885 "},"ậ":{"x_min":71,"x_max":715,"ha":835,"o":"m 715 0 l 588 0 l 588 80 q 542 48 571 69 q 486 15 513 27 q 413 -10 454 0 q 316 -21 371 -21 q 142 47 213 -21 q 71 221 71 115 q 108 361 71 307 q 213 445 145 414 q 379 487 282 476 q 588 498 477 498 l 588 518 q 572 591 588 562 q 528 637 557 620 q 463 658 501 652 q 384 664 425 664 q 272 650 334 664 q 144 612 210 637 l 138 612 l 138 742 q 245 764 175 752 q 385 777 316 777 q 524 763 465 777 q 627 718 583 750 q 692 637 670 687 q 715 514 715 588 l 715 0 m 588 186 l 588 396 q 450 388 529 396 q 325 368 371 381 q 236 319 270 352 q 202 229 202 286 q 241 130 202 163 q 362 98 281 98 q 484 124 429 98 q 588 186 540 150 m 652 880 l 544 880 l 419 1054 l 294 880 l 188 880 l 344 1138 l 497 1138 l 652 880 m 433 -259 l 289 -259 l 289 -127 l 433 -127 l 433 -259 "}}}
